/* XPM */
static char *fire_down_0_xpm[] = {
/* columns rows colors chars-per-pixel */
"32 32 8 1",
"  c Gray0",
". c #23003c002200",
"X c #4b0031000c00",
"o c #42006f004000",
"O c #960061001800",
"+ c #a40040003300",
"@ c #f7002d001b00",
"# c None",
/* pixels */
"######### ##########  ##########",
"########   #      #    #########",
"######## o   oooo    o #########",
"######## o.ooooooooo.  #########",
"########      o     . ##########",
"########   o@+oo@@o   ##########",
"#########. o+o oo+o .###########",
"########## ooo  ooo ############",
"########## oo     o ############",
"#########   oo   o   ###########",
"########  o  ooooo   ###########",
"######## ooo ....  o ###########",
"########  oo  ... oo  ##########",
"#########  oo  .  oo  ##########",
"#########   oo    oo  ##########",
"##########    X  oo  ###########",
"########## oo XXXo  ############",
"#########  . XOXX    ###########",
"######### .. OOOX oo ###########",
"#########    OOO  ..  ##########",
"############ OOO      ##########",
"###########  OOO ###############",
"########### XOOO  ##############",
"########### OOOOX ##############",
"########### XOOOX ##############",
"########### XOOO  ##############",
"########### XOOOX ##############",
"###########  XOXX ##############",
"############ XX  X##############",
"############X   ################",
"################################",
"################################"
};
