/* XPM */
static char *move_up_0_xpm[] = {
/* columns rows colors chars-per-pixel */
"32 32 6 1",
"  c Gray0",
". c #23003c002200",
"X c #4b0031000c00",
"o c #42006f004000",
"O c #960061001800",
"+ c None",
/* pixels */
"++++++++++++++++++++++++++++++++",
"++++++++++++++++++++++++++++++++",
"++++++++++++++++++++++++++++++++",
"++++++++++++++++++++++++++++++++",
"++++++++++++++++++++++++++++++++",
"+++++++++++++     ++++++++++++++",
"++++++++++++   O    ++++++++++++",
"++++++++++++  OOO o  +++++++++++",
"++++++++++   OOOO o   ++++++++++",
"++++++++++ o XOOX   o  +++++++++",
"++++++++++ .       ooo  ++++++++",
"++++++++++  .o..oo  ooo ++++++++",
"+++++++++   ooooooo  oo ++++++++",
"++++++++  o oooooooo oo ++++++++",
"++++++++ oo   .oo..  oo ++++++++",
"++++++++  ooo       oo  ++++++++",
"+++++++++  oo  ..  oo  +++++++++",
"++++++++++ o  ....    ++++++++++",
"++++++++++   ......  +++++++++++",
"+++++++++++  ...... ++++++++++++",
"++++++++++++  ....  ++++++++++++",
"++++++++++++   ..    +++++++++++",
"++++++++++++ o    oo +++++++++++",
"++++++++++++ ooo oo.  ++++++++++",
"++++++++++++ oo    .. ++++++++++",
"++++++++++++ oo ++    ++++++++++",
"++++++++++++ ..  +++++++++++++++",
"++++++++++++ ..  +++++++++++++++",
"++++++++++++    ++++++++++++++++",
"++++++++++++++++++++++++++++++++",
"++++++++++++++++++++++++++++++++",
"++++++++++++++++++++++++++++++++"
};
