/* XPM */
static char *fire_down_0_xpm[] = {
/* columns rows colors chars-per-pixel */
"32 32 13 1",
"  c Gray0",
". c #0e0015004f00",
"X c #380073002c00",
"o c #7a0051002500",
"O c #28003a00d600",
"+ c #82002d008000",
"@ c #bf004100bb00",
"# c #b50089005600",
"$ c #d30082000800",
"% c #db00a6006700",
"& c #f400e9001600",
"* c #d200dd00dd00",
"= c None",
/* pixels */
"================  ==============",
"============          ==========",
"==========  +@@++++++  =========",
"========== +++@@@@+++++ ========",
"========== @+++++@@@@@  ========",
"======   = @@+++++++++  ========",
"=====  *    @@         =========",
"===== *** =      %    ==========",
"=====  o  == %%XX%%XX ==========",
"====== o ===  %%%%%%% ==========",
"====== o ==== %%%  %% ==========",
"====== o ===    %%%     ========",
"====== o === $$     $$  ========",
"=====  o ===  $$$$$$$$ =========",
"===== #o# ===    &         =====",
"===== #o#     OO&&&OO  OOO =====",
"===== #o      OOO&OOO  O.O  ====",
"=====  o   O   OOOOOO       ====",
"===== oo   OO  OOOOOO  ## ======",
"=====       O  OOOOOO  %% ======",
"===========    OOOOOO ==========",
"============  OOOOOOO  =========",
"============ OOOOOOOOO =========",
"============ OOOOOOOOO =========",
"===========  OOOOOOOOO =========",
"==========  OOO OOOOOO  ========",
"==========  O     OOOOO   ======",
"===========  ***    OOOO  ======",
"===========      ==       ======",
"=================== **** =======",
"===================      =======",
"================================"
};
