/* XPM */
static char *move_down_0_xpm[] = {
/* columns rows colors chars-per-pixel */
"32 32 11 1",
"  c Gray0",
". c #380073002c00",
"X c #28003a00d600",
"o c #960061001800",
"O c #82002d008000",
"+ c #bf004100bb00",
"@ c #b50089005600",
"# c #d30082000800",
"$ c #f700bb007600",
"% c #d200dd00dd00",
"& c None",
/* pixels */
"&&&&&&&&&&&&&&&&&&&&&&&&&&&&&&&&",
"&&&&&&&&&&&&&&&  &&&&&&&&&&&&&&&",
"&&&&&&&&&&&          &&&&&&&&&&&",
"&&&&&&&&&  O++OOOOOO  &&&&&&&&&&",
"&&&&&&&&& OOO++++OOOOO &&&&&&&&&",
"&&&&&&&&& +OOOOO+++++  &&&&&&&&&",
"&&&&&&&&& ++OOOOOOOOO  &&&&&&&&&",
"&&&&&& &&  +          &&&&&&&&&&",
"&&&&&   &&    .$$.   &&&&&&&&&&&",
"&&&&  %  && $..$$..$ &&&&&&&&&&&",
"&&&& %%% && $$$ $$$$ &&&&&&&&&&&",
"&&&&     && $$$ $$$$ &&&&&&&&&&&",
"&&&&&ooo&&   $    $    &&&&&&&&&",
"&&&&&ooo&& X        XX &&&&&&&&&",
"&&&&   o&&  X $  $$ X  &&&&&&&&&",
"&&&& $   &&   $$$$       &&&&&&&",
"&&&& $$@  & #  $$  #  $$ &&&&&&&",
"&&&& @@@    ##    ## $$$ &&&&&&&",
"&&&&  @  XXX X#  #XX X@@ &&&&&&&",
"&&&&&    XXX XX##XXX XX  &&&&&&&",
"&&&&&oo&     XXXXXXX    &&&&&&&&",
"&&&&&oo&&    XXXXXXX    &&&&&&&&",
"&&&&&ooo&&&  XXXXXXXX &&&&&&&&&&",
"&&&&&&oo&&& XXXXXXXXX &&&&&&&&&&",
"&&&&&&oo&&& XXXX XXXX &&&&&&&&&&",
"&&&&&&oo&&  XXXX XXXX &&&&&&&&&&",
"&&&&&&oo&& XXXX   XXX  &&&&&&&&&",
"&&&&&&oo&         XXXX  &&&&&&&&",
"&&&&&&oo&&  %%% &&   XXX &&&&&&&",
"&&&&&&oo&&      && %     &&&&&&&",
"&&&&&&&&&&&&&&&&&& %%%% &&&&&&&&",
"&&&&&&&&&&&&&&&&&&      &&&&&&&&"
};
