/* XPM */
static char *move_up_0_xpm[] = {
/* columns rows colors chars-per-pixel */
"32 32 9 1",
"  c Gray0",
". c #28003a00d600",
"X c #960061001800",
"o c #82002d008000",
"O c #bf004100bb00",
"+ c #b50089005600",
"@ c #f700bb007600",
"# c #d200dd00dd00",
"$ c None",
/* pixels */
"$$$$$$$$$$$$$$$$$$$$$$$$$$$$$$$$",
"$$$$$$$$$$$$$$$  $$$$$$$$$$$$$$$",
"$$$$$$$$$$$          $$$$$$$$$$$",
"$$$$$$$$$$  ooooooOOo  $$$$$$$$$",
"$$$$$$$$$ oooooOOOOooo $$$$$$$$$",
"$$$$$$$$$  OOOOOoooooO $$$$$$$$$",
"$$$$$$$$$  oooooooooOO $$$$$$$$$",
"$$$$$$$$$$   OOOOOOOO  $$$$$$$$$",
"$$$$$$$$$$$           $$$$$$$$$$",
"$$$$$$$$$$$ @@  OO @ $$$$XX$$$$$",
"$$$$$$$$$$$ @@@ OO @ $$$$XX$$$$$",
"$$$$$$$$$$$  @@ OO @ $$$$XX$$$$$",
"$$$$$$$$$     @       $$$XX$$$$$",
"$$$$$$$$$ ...       . $$$XX$$$$$",
"$$$$$$$$$  .......... $$$XX$$$$$",
"$$$$$$$             . $$$XX$$$$$",
"$$$$$$$ ..  .......   $$$XXX$$$$",
"$$$$$$$ ... .......    $$$XX$$$$",
"$$$$$$$ ... ....... ..   $XX$$$$",
"$$$$$$$  .. ....... ....    $$$$",
"$$$$$$$$ .  .......   ..  +  $$$",
"$$$$$$$$    .......      +++ $$$",
"$$$$$$$$$$ ........  $$  +++ $$$",
"$$$$$$$$$$ ......... $$$   + $$$",
"$$$$$$$$$$ ......... $$$$X   $$$",
"$$$$$$$$$$ .........  $$$XXX$$$$",
"$$$$$$$$$  ...   .... $$$XXX$$$$",
"$$$$$$$$  ....         $$   $$$$",
"$$$$$$$ ...   $$ ###  $$     $$$",
"$$$$$$$     # $$      $$  #  $$$",
"$$$$$$$$ #### $$$$$$$$$$$   $$$$",
"$$$$$$$$      $$$$$$$$$$$$ $$$$$"
};
