/* XPM */
static char *board_4_xpm[] = {
/* columns rows colors chars-per-pixel */
"32 32 7 1",
"  c #080046007f00",
". c #09004b008800",
"X c #0a0054009f00",
"o c #0b005900a800",
"O c #0b005c00ae00",
"+ c #09006c00d200",
"@ c #05007500e800",
/* pixels */
"@@@@+@++++@@@@+++++@@@+@@++++++@",
"@OoooooooooOoooooooooooooooXXoo.",
"@Oooooooooooooooooooooooooooooo.",
"@Oooooooooooooooooooooooooooooo ",
"@OooooXXooooXXXoooooooooooooooo ",
"@oooooXXXooXXXXooXXXooooooooooo ",
"@oooooXXooooXXoooXXoooooooooooo ",
"@oXXooXXXoooooooooooooooooooooo ",
"@oXXoXXXXoooooooooooooooooooooo ",
"@oXXoXoooooooooooooooXooooooooo ",
"@oXXXooooooooooooXoXXXXoooooooo ",
"@oXXXoooooXXoooXXXXooXXoooooooo ",
"@oXXooooooXoooXXXXooooXoooooooo ",
"@oooooooooXooXXXXoooooXXooXoooo ",
"@ooooooXoooooooXXoooooooooooooo ",
"@ooooooooooooooXooooooooooooooo ",
"@ooooooooooooooXooooooooooooooo ",
"+oooooooooooooooooooooooooooooo ",
"+oooooooooooooXXooooooooooooooo ",
"+oooooooXXXoooXXXoooooooooooooo.",
"+oooooXXXXoooXXXXXoooooooXooooo ",
"+oooooXXXXooXXXXXooooXoooXooooo ",
"+oooooXXXXoXooXoooooooooXXooooo ",
"+oooooXooXXooXoooooooXXXXoooooo.",
"+oooooXoXXooXooooXoooXXXXoooXoo.",
"+oooooXXXXooXooXXXooooXXooooooO.",
"@ooooXXXXXooXXXXooooooooooooooo.",
"@ooooXXooooXXXXXoooooooooooXooo.",
"@oooooooooooXooooooooooooooXXoo.",
"@oooooooooooooooooooooooooXXXoo ",
"+oooooooooooooooooooooooooooooo.",
"   .            .           ...."
};
