/* XPM */
static char *board_7_xpm[] = {
/* columns rows colors chars-per-pixel */
"32 32 5 1",
"  c #0a0050009700",
". c #0a0054009f00",
"X c #0d006700c400",
"o c #09006c00d200",
"O c #11008600fe00",
/* pixels */
"OOOOOOOOOOOOOOOOOOOOOOOOOOOOOOOO",
"OooXXXXXXXoooXXXXXXXXXXXXXXXXXX.",
"OooXXXXXXXXXXXXXXXXXXXXXXXXXXXo.",
"OoXXXXXXXXXXXXXXXXXXXXXXXXXXXXX.",
"OoXXXXXXXXXXXXXXXXXXXXXXXXXXXXX ",
"OoXXXXXXXXXXXXXXXXXXXXXXXXXXXXX ",
"OoXXXXXXXXXXXXXXXXXXXXXXXXXXXXX ",
"OXXXXXXXXXXXXXXXXXXXXXXXXXXXXXX.",
"OXXXXXXXXXXXXXXXXXXXXXXXXXXXXXX.",
"OXXXXXXXXXXXXXXXXXXXXXXXXXXXXXX.",
"OXXXXXXXXXXXXXXXXXXXXXXXXXXXXXX.",
"OXXXXXXXXXXXXXXXXXXXXXXXXXXXXXX.",
"OXXXXXXXXXXXXXXXXXXXXXXXXXXXXXX.",
"OXXXXXXXXXXXXXXXXXXXXXXXXXXXXXX.",
"OXXXXXXXXXXXXXXXXXXXXXXXXXXXXXX.",
"OXXXXXXXXXXXXXXXXXXXXXXXXXXXXXX.",
"OXXXXXXXXXXXXXXXXXXXXXXXXXXXXXX.",
"OXXXXXXXXXXXXXXXXXXXXXXXXXXXXXX.",
"OXXXXXXXXXXXXXXXXXXXXXXXXXXXXXX.",
"OXXXXXXXXXXXXXXXXXXXXXXXXXXXXXX.",
"OXXXXXXXXXXXXXXXXXXXXXXXXXXXXXX.",
"OXXXXXXXXXXXXXXXXXXXXXXXXXXXXXX.",
"OXXXXXXXXXXXXXXXXXXXXXXXXXXXXXX.",
"OXXXXXXXXXXXXXXXXXXXXXXXXXXXXXX.",
"OXXXXXXXXXXXXXXXXXXXXXXXXXXXXXX.",
"OXXXXXXXXXXXXXXXXXXXXXXXXXXXXXX.",
"OXXXXXXXXXXXXXXXXXXXXXXXXXXXXXX.",
"OXXXXXXXXXXXXXXXXXXXXXXXXXXXXXX.",
"OXXXXXXXXXXXXXXXXXXXXXXXXXXXXXX.",
"OXXXXXXXXXXXXXXXXXXXXXXXXXXXXXX.",
"OXXoXXooXXXXXXXXoXXXXXXXXXXXXoo.",
"........  ......................"
};
