/* XPM */
static char *elem_water_0_xpm[] = {
/* columns rows colors chars-per-pixel */
"32 32 5 1",
"  c #060036006300",
". c #080041007b00",
"X c #080046007f00",
"o c #0a0050009700",
"O c #0b005900a800",
/* pixels */
"OOOOOOOOOOOOOOOOoOOOOOOOOOOOOoOO",
"OXXXXXXX..XXXXXXXXXXXXXXXXX..XX ",
"OXXXXXX...XXXXXX.XXXXXXX.....XX ",
"OXXX....XXXXXXX.XXXXXXXXXX.XXXX ",
"OXX.....XXX.....XX..X.XXXXXXXXX ",
"OXXX.X.........X......XX.XXXXX. ",
"OXX.XX........XXX.....XXXXXXXXX ",
"OX...X...XXX.XXXXX...XXXXXXXXXX ",
"OX.......XX..XXXX..XXXXXXXXXXXX ",
"OX.....X.XX.XXXXX.XX..XXXXXXXXX ",
"OX....XXXX..XXXX.......XX.XXXXX ",
"OX...X..X....X..........X..XXXX ",
"OX...X..XX.XX......XX...XX.XXXX ",
"OX..XX..XX.XX......XXX......XXX ",
"OXXXXX..XX..XX...X.XXX...X.XXXX ",
"OXXXXXX.X..XXXX....XXXXXXX.XXXX ",
"OXX.XXXXXXXXXXX....XXXX.XX.XXXX ",
"OXX..XXXXXXXXXX..XXXXX..XX.XXXX ",
"oXX..XXX....XX..XXXXX..XXXXXX.X ",
"oXXXXX.....XX.....XXXX.X..XXXXX ",
"OXXXX.....XX.......XX......XXXX ",
"OXX.XX....X......XXX.......XXXX ",
"OXXXX...........XXXX......XXX.X ",
"OXXXX.........XXXX........XX..X ",
"OXXXXX........XX..........X..XX ",
"OXXXX......X.......X.....X...XX ",
"OXXXX............XXXXXXXXX..XXX ",
"OXXXX...XX......XXXXXXXXXX..XXX ",
"OXXXX..XXXX...X.XXXXXXXXXX...XX ",
"OXXXXXXXXXXXXXXXXXXXXXXXXX...XX ",
"OXXXXXXXXXXXXXXXXXXXXXXXXX..XXX ",
"                                "
};
