/* XPM */
static char * field_4_xpm[] = {
"32 32 15 1",
" 	c None",
".	c #39752D",
"+	c #3A792D",
"@	c #3A7D2E",
"#	c #F5EDEC",
"$	c #A58D8A",
"%	c #898080",
"&	c #565353",
"*	c #DCD2D1",
"=	c #B5A4A2",
"-	c #7E7371",
";	c #616060",
">	c #C2B6B5",
",	c #38732C",
"'	c #6D6B6B",
".+++++++++++++...++++......+++++",
"+++++..+++@++++++++++.......++++",
"+++++..+++@@@++++++++........+++",
"@@@++...+@@@@@@++++#$%&......+++",
"@@@@+...+@@@@@@@#&##*=$%&.....++",
"@@@@+..-++@@@@@##**#**=%&.....++",
"@@@@@.#%-%;;@@@+$##***=$%&....++",
"@@@@@+#**=;%;;@++..****=$%&...++",
"@@@@@*#***=$;;;++....$&.......++",
"@@@@@#*#***=$%;+.............+++",
"++@@###***;=%%++............++++",
"++++#*#***=&&&++............++++",
"..+++#****%%;&++*#%%*%&.....++++",
".....**#*>=%;&++##**$%&#*&..++++",
".....#****=&+++*##*>$$##>-&.++++",
"....#=***..++++*##*$$-#$%--&.++@",
".....=.....++++##***>==*>$-&.++@",
"............+++##***>$**$%%..+++",
".............+*##**>>>>>#=*...++",
".........#;%.+*#**>##%##*$%....+",
"..,....#==$%;&.*###*#$%%%$%&...+",
".,,,..***=$%;&.*####**=$%&-,....",
".,,,,*#*#**$%;&.*##****=$&%&'...",
"..,,,#*#***$%;&.##%#***=$&......",
"....,,#*****$%&.**>$****=%&.....",
"+....,,***==%;&.***$****%&......",
"+++.............+#*>**==&......+",
"++++.............**=&+++...++..+",
"@+++...........++....+.....++++.",
"++++++++++.....++++++......++++.",
"++++++++++......+++++.......+++.",
"+++++++++++.....++++...,,...++.."};
