/* XPM */
static char * power_3_xpm[] = {
"32 32 7 1",
" 	c None",
".	c #0A549F",
"+	c #1186FE",
"@	c #E2B13C",
"#	c #CB933B",
"$	c #E2BF43",
"%	c #F0DD49",
"                                ",
"                                ",
"                                ",
"                                ",
"                                ",
"                                ",
"                                ",
"                                ",
"             .....+             ",
"             .@#$$+             ",
"             .#@$$+             ",
"             .@%$@+             ",
"             .$%%#+             ",
"        ......#%%$+....+        ",
"        .@##$@#%%@#$##$+        ",
"        .#@@@%%%%%%%%%@+        ",
"        .@@@@$%%%%$%$$@+        ",
"        .$##$##%%#$##@#+        ",
"        +++++.#$%#++++++        ",
"             .#$@@+             ",
"             .@$@#+             ",
"             .#$$#+             ",
"             .#@$#+             ",
"             ++++++             ",
"                                ",
"                                ",
"                                ",
"                                ",
"                                ",
"                                ",
"                                ",
"                                "};
