/* XPM */
static char *elem_earth_10_xpm[] = {
/* columns rows colors chars-per-pixel */
"32 32 29 1",
"  c Gray0",
". c #2a001c000600",
"X c #35002b003100",
"o c #3d0035003200",
"O c #3c0022005e00",
"+ c #48002f000b00",
"@ c #41003e003e00",
"# c #4f0044003e00",
"$ c #7a0051002500",
"% c #4d004a004a00",
"& c #560053005300",
"* c #610060006000",
"= c #6d006b006b00",
"- c #7a0069006200",
"; c #7e0073007100",
": c #820010001000",
"> c #960061001800",
", c #990073004900",
"< c #820076007600",
"1 c #920076006b00",
"2 c #b10075006e00",
"3 c #b50089005600",
"4 c #d30082000800",
"5 c #cb0093003b00",
"6 c #db00a6006700",
"7 c #890080008000",
"8 c #a5008d008a00",
"9 c #c60090008b00",
"0 c None",
/* pixels */
"00000000000000000000000000000000",
"00000000000.0O+X@. 0000000000000",
"0000000000X#>>133$$.000000000000",
"000000000X+73333333>.00000000000",
"00000000.#3333333333$.0000000000",
"00000000#3333,,33333>$ 000000000",
"00000000%333,>>3333,>$.000000000",
"0000000&-33,,,,,,,3,,>+000000000",
"0000000#<33,,3,,,,33>>#000000000",
"000.+X=$>3333,,1333,,$+@@o.00000",
"00.#,,31&#*$,,,>,,3,$+$>3,>.0000",
"0X@83351$#$-,,>,3323$#>3,33-.000",
".@833966512332,>3,,,3,-3,233>.00",
"+13356653533,,2>23,32>23>,333$.0",
"X,3,55663583,>3,,3,,>,33>3333-.0",
"$3,>369,>3,>$,1,,,>>,333233559#0",
"133,23>$,2,,3>>,,,,,>,3,,33565#0",
"-3,>32-,2,,,,,,>,,,,,,,,,33569#0",
"%323,>>$>$>>>,,,,,2,,,,233333,.0",
"#153,>>>2>>>>>>3,,,,2,-,23333-00",
"o$,,33,>>>$+.#&,3,>,3>+#43333#@0",
"0.$>,,>>$#+#$;333-,,,+$>>,,2+.00",
"00+$>>>$+@>,66553,3,>#+$>>>X.000",
"000.++$#.$5966663>32>#+#$+@ 0000",
"00000o#.#,5666652$,3>$..:0000000",
"0000000+>56663333233>>+000000000",
"0000000.%5653333,,2,,$.000000000",
"00000000#893333,,>,>>$@000000000",
"00000000.$3,3,,,,>>>>.X000000000",
"000000000.$1,,22,,,>+.0000000000",
"0000000000.$13233,>+.00000000000",
"00000000000.#%$-$@&o000000000000"
};
