/* XPM */
static char *elem_earth_6_xpm[] = {
/* columns rows colors chars-per-pixel */
"32 32 29 1",
"  c Gray0",
". c #2a001c000600",
"X c #35002b003100",
"o c #3d0035003200",
"O c #3c0022005e00",
"+ c #48002f000b00",
"@ c #41003e003e00",
"# c #4f0044003e00",
"$ c #7a0051002500",
"% c #4d004a004a00",
"& c #560053005300",
"* c #610060006000",
"= c #6d006b006b00",
"- c #7a0069006200",
"; c #7e0073007100",
": c #820010001000",
"> c #960061001800",
", c #990073004900",
"< c #820076007600",
"1 c #920076006b00",
"2 c #b10075006e00",
"3 c #b50089005600",
"4 c #d30082000800",
"5 c #cb0093003b00",
"6 c #db00a6006700",
"7 c #890080008000",
"8 c #a5008d008a00",
"9 c #c60090008b00",
"0 c None",
/* pixels */
"00000000000000000000000000000000",
"0000000000000..###.0@00000000000",
"000000000000.$-959,-#.0000000000",
"00000000000.>33566333+.000000000",
"0000000000.-3335553332X 00000000",
"000000000.>3333333333,>@00000000",
"000000000o,32,3333333,>+00000000",
"000000000@3,,>>2,,324>>$:0000000",
"000000000@>33333,,2,#>$#.0000000",
"00000 .+#+$>-2333,,-+$++.+.@X000",
"0000.$$>>$+#,>,3,,,,>+##$>$$..00",
"000.$>>,>,$$32>,>,,23,>>>>,>>+.0",
"00.>33,,3,,3,3,>,,,,,,,233,>>>+o",
"0 $333333332,,,>,,2,>,33,32,>,>&",
"0.$3333,,3,3,33,,,,,,-,>$2,>>,,@",
"0@33333,,3,332,,,,,,333323,,,,3$",
"0X33333,,1>,>>,,,>,3,356533,,23-",
"0+133,>,,,,>,231>,,>&3566333,22$",
"0O>33,>,3,,,2,>,>,,>#;666333,,3%",
"00>333,,,3,,3,,$3,>>.$6666333,1#",
"0.#7333,,3$-333>,,>>+#,96653,1$.",
"00X+333333*$238,,,>>$+>556693$.0",
"000X#33333##15532,$>>#@$,558$.00",
"0000.#%-<>&$533>,2>2>$+.#>%#.000",
"0000000&#$11656,$,$>>>$#.+.00000",
"000000000=356669>->>,>>$#0000000",
"000000000X,3965632>>3,>+o0000000",
"000000000+,3355323,,3,>+00000000",
"000000000.#833,>,>33,>$.00000000",
"0000000000.@833,3,25,$+000000000",
"00000000000X@1,33331$.0000000000",
"000000000000.+X$1-%#o00000000000"
};
