/* XPM */
static char *fire_up_0_xpm[] = {
/* columns rows colors chars-per-pixel */
"32 32 7 1",
"  c Gray0",
". c #3c0022005e00",
"X c #82002d008000",
"o c #bf004100bb00",
"O c #d200dd00dd00",
"+ c Gray100",
"@ c None",
/* pixels */
"@@@@@@@@@@@@@@@@@@@@@@@@@@@@@@@@",
"@@@@@@@@@@@@@@@@@@@@@@@@@@@@@@@@",
"@@@@@@@@@@@@@@@@@@@@@@@@@@@@@@@@",
"@@@@@@@@@@@@@@@+@@@@@@@@@@@@@@@@",
"@@@@@@@@@@@@@@@+@@@@@@@@@@@@@@@@",
"@@@@@@@@@@@@@@@+@@@@@@@@@@@@@@@@",
"@@@@@@@@@@@@@@@+@@@@@@@@@@@@@@@@",
"@@@@@@@@@@@@@@+++@@@@@@@@@@@@@@@",
"@@@@@@@@@@@@@+++++@@@@@@@@@@@@@@",
"@@@@@@@@@@@@+++++++@@@@@@@@@@@@@",
"@@@@@+++++++++++++++++++++@@@@@@",
"@@@@@@@@@@@@+++++++@@@@@@@@@@@@@",
"@@@@@@@@@@@@@+++++@@@@@@@@@@@@@@",
"@@@@@@@@@@@@OO+++OO@@@@@@@@@@@@@",
"@@@@@@OOOOOOOOO+OOOOOOOOO@@@@@@@",
"@@@@@@@@@@@@OOO+OOO@@@@@@@@@@@@@",
"@@@@@@@ooooooOO+OOoooooo@@@@@@@@",
"@@@@@@@@@@@@ooO+Ooo@@@@@@@@@@@@@",
"@@@@@@@@@@@@XooOooX@@@@@@@@@@@@@",
"@@@@@@@@XXXXXXoOoXXXXXX@@@@@@@@@",
"@@@@@@@@@@@@XXXOXXX@@@@@@@@@@@@@",
"@@@@@@@@@....XXOXX....@@@@@@@@@@",
"@@@@@@@@@@@@..XoX..@@@@@@@@@@@@@",
"@@@@@@@@@@@@@..o..@@@@@@@@@@@@@@",
"@@@@@@@@@@@@@@.X.@@@@@@@@@@@@@@@",
"@@@@@@@@@@@@@@@X@@@@@@@@@@@@@@@@",
"@@@@@@@@@@@@@@@X@@@@@@@@@@@@@@@@",
"@@@@@@@@@@@@@@@.@@@@@@@@@@@@@@@@",
"@@@@@@@@@@@@@@@.@@@@@@@@@@@@@@@@",
"@@@@@@@@@@@@@@@@@@@@@@@@@@@@@@@@",
"@@@@@@@@@@@@@@@@@@@@@@@@@@@@@@@@",
"@@@@@@@@@@@@@@@@@@@@@@@@@@@@@@@@"
};
