/* XPM */
static char *fire_down_0_xpm[] = {
/* columns rows colors chars-per-pixel */
"32 32 4 1",
"  c Gray0",
". c #7a0051002500",
"X c #e5000b000b00",
"o c None",
/* pixels */
"oooooooooooooooooooooooooooooooo",
"ooooooooooooooXoooXooooooooooooo",
"ooooooooooooooXX.XXooooooooooooo",
"ooooooooooooooXX.XXooooooooooooo",
"ooooooooooooooXX.XXooooooooooooo",
"ooooooooooooooXX.XXooooooooooooo",
"oooooooooooooooX.Xoooooooooooooo",
"oooooooooooooooo.ooooooooooooooo",
"oooooooooooooooo.ooooooooooooooo",
"oooooooooooooooo.ooooooooooooooo",
"oooooooooooooooo.ooooooooooooooo",
"oooooooooooooooo.ooooooooooooooo",
"oooooooooooooooo.ooooooooooooooo",
"oooooooooooooooo.ooooooooooooooo",
"oooooooooooooooo.ooooooooooooooo",
"oooooooooooooooo.ooooooooooooooo",
"oooooooooooooooo.ooooooooooooooo",
"oooooooooooooooo.ooooooooooooooo",
"oooooooooooooooo.ooooooooooooooo",
"oooooooooooooooo.ooooooooooooooo",
"oooooooooooooooo.ooooooooooooooo",
"oooooooooooooooo.ooooooooooooooo",
"oooooooooooooooo.ooooooooooooooo",
"oooooooooooooooo.ooooooooooooooo",
"oooooooooooooooo.ooooooooooooooo",
"oooooooooooooooo.ooooooooooooooo",
"ooooooooooooooo   oooooooooooooo",
"oooooooooooooooo ooooooooooooooo",
"oooooooooooooooooooooooooooooooo",
"oooooooooooooooooooooooooooooooo",
"oooooooooooooooooooooooooooooooo",
"oooooooooooooooooooooooooooooooo"
};
