/* XPM */
static char *fire_up_0_xpm[] = {
/* columns rows colors chars-per-pixel */
"32 32 4 1",
"  c Gray0",
". c #7a0051002500",
"X c #e5000b000b00",
"o c None",
/* pixels */
"oooooooooooooooooooooooooooooooo",
"oooooooooooooooooooooooooooooooo",
"oooooooooooooooooooooooooooooooo",
"oooooooooooooooooooooooooooooooo",
"oooooooooooooooo ooooooooooooooo",
"ooooooooooooooo   oooooooooooooo",
"oooooooooooooooo.ooooooooooooooo",
"oooooooooooooooo.ooooooooooooooo",
"oooooooooooooooo.ooooooooooooooo",
"oooooooooooooooo.ooooooooooooooo",
"oooooooooooooooo.ooooooooooooooo",
"oooooooooooooooo.ooooooooooooooo",
"oooooooooooooooo.ooooooooooooooo",
"oooooooooooooooo.ooooooooooooooo",
"oooooooooooooooo.ooooooooooooooo",
"oooooooooooooooo.ooooooooooooooo",
"oooooooooooooooo.ooooooooooooooo",
"oooooooooooooooo.ooooooooooooooo",
"oooooooooooooooo.ooooooooooooooo",
"oooooooooooooooo.ooooooooooooooo",
"oooooooooooooooo.ooooooooooooooo",
"oooooooooooooooo.ooooooooooooooo",
"oooooooooooooooo.ooooooooooooooo",
"oooooooooooooooo.ooooooooooooooo",
"oooooooooooooooo.ooooooooooooooo",
"oooooooooooooooX.Xoooooooooooooo",
"ooooooooooooooXX.XXooooooooooooo",
"ooooooooooooooXX.XXooooooooooooo",
"ooooooooooooooXX.XXooooooooooooo",
"ooooooooooooooXX.XXooooooooooooo",
"ooooooooooooooXoooXooooooooooooo",
"oooooooooooooooooooooooooooooooo"
};
