/* XPM */
static char *fire_upright_0_xpm[] = {
/* columns rows colors chars-per-pixel */
"32 32 4 1",
"  c Gray0",
". c #7a0051002500",
"X c #e5000b000b00",
"o c None",
/* pixels */
"oooooooooooooooooooooooooooooooo",
"oooooooooooooooooooooooooooooooo",
"oooooooooooooooooooooooooooooooo",
"oooooooooooooooooooooooooooooooo",
"oooooooooooooooooooooooooooooooo",
"oooooooooooooooooooooooooooooooo",
"oooooooooooooooooooooooooooooooo",
"oooooooooooooooooooooooooooooooo",
"ooooooooooooooooooooooo  ooooooo",
"oooooooooooooooooooooo.. ooooooo",
"ooooooooooooooooooooo..ooooooooo",
"oooooooooooooooooooo..oooooooooo",
"ooooooooooooooooooo..ooooooooooo",
"oooooooooooooooooo..oooooooooooo",
"ooooooooooooooooo..ooooooooooooo",
"oooooooooooooooo..oooooooooooooo",
"ooooooooooooooo..ooooooooooooooo",
"oooooooooooooo..oooooooooooooooo",
"ooooooooooooo..ooooooooooooooooo",
"oooooooooooo..oooooooooooooooooo",
"ooooooooooo..ooooooooooooooooooo",
"oooooooooo..oooooooooooooooooooo",
"oooooooXX..ooooooooooooooooooooo",
"ooooooXX..oooooooooooooooooooooo",
"oooooXX..Xoooooooooooooooooooooo",
"oooooo..XXoooooooooooooooooooooo",
"oooooooXXooooooooooooooooooooooo",
"oooooooXoooooooooooooooooooooooo",
"oooooooooooooooooooooooooooooooo",
"oooooooooooooooooooooooooooooooo",
"oooooooooooooooooooooooooooooooo",
"oooooooooooooooooooooooooooooooo"
};
