/* XPM */
static char *fire_downright_0_xpm[] = {
/* columns rows colors chars-per-pixel */
"32 32 4 1",
"  c Gray0",
". c #7a0051002500",
"X c #e5000b000b00",
"o c None",
/* pixels */
"oooooooooooooooooooooooooooooooo",
"oooooooooooooooooooooooooooooooo",
"oooooooooooooooooooooooooooooooo",
"oooooooooooooooooooooooooooooooo",
"oooooooXoooooooooooooooooooooooo",
"oooooooXXooooooooooooooooooooooo",
"oooooo..XXoooooooooooooooooooooo",
"oooooXX..Xoooooooooooooooooooooo",
"ooooooXX..oooooooooooooooooooooo",
"oooooooXX..ooooooooooooooooooooo",
"oooooooooo..oooooooooooooooooooo",
"ooooooooooo..ooooooooooooooooooo",
"oooooooooooo..oooooooooooooooooo",
"ooooooooooooo..ooooooooooooooooo",
"oooooooooooooo..oooooooooooooooo",
"ooooooooooooooo..ooooooooooooooo",
"oooooooooooooooo..oooooooooooooo",
"ooooooooooooooooo..ooooooooooooo",
"oooooooooooooooooo..oooooooooooo",
"ooooooooooooooooooo..ooooooooooo",
"oooooooooooooooooooo..oooooooooo",
"ooooooooooooooooooooo..ooooooooo",
"oooooooooooooooooooooo.. ooooooo",
"ooooooooooooooooooooooo  ooooooo",
"oooooooooooooooooooooooooooooooo",
"oooooooooooooooooooooooooooooooo",
"oooooooooooooooooooooooooooooooo",
"oooooooooooooooooooooooooooooooo",
"oooooooooooooooooooooooooooooooo",
"oooooooooooooooooooooooooooooooo",
"oooooooooooooooooooooooooooooooo",
"oooooooooooooooooooooooooooooooo"
};
