/* XPM */
static char *fire_right_0_xpm[] = {
/* columns rows colors chars-per-pixel */
"32 32 17 1",
"  c Gray0",
". c #040007000400",
"X c #06000b000600",
"o c #09000f000800",
"O c #09000f000900",
"+ c #0d0016000d00",
"@ c #10001c001000",
"# c #12001e001100",
"$ c #170026001600",
"% c #1a002c001900",
"& c #1d0033001c00",
"* c #23003c002200",
"= c #4b0031000c00",
"- c #42006f004000",
"; c #8c005a001600",
": c #a40040003300",
"> c None",
/* pixels */
">>>>>>>>>>>>>>>>>>>>>>>>>>>>>>>>",
">>>>>>>>>>>>>>>>>>>>>>>>>>>>>>>>",
">>>>>>>>>>>>>>>>>>>>>>>>>>>>>>>>",
">>>>>>>>>>>>>>>>>>>>>>>>>>>>>>>>",
">>>>>>>>>>>>>>>>>>>>>>>>>>>>>>>>",
">>  >>>>>>>>>>>>>>>>>>>>>>>>>>>>",
">>    >>>>>>>>>>>>>>>>>>>>>>>>>>",
">>@-%       >>>>>>>>>>>>>>>>>>>>",
">>X--  ---:  >>>>>>>>>>>>>>>>>>>",
">>  -* ---::  >>>>>>>>>>>>>>>>>>",
">>> **  ----- >>>>>>>>>>>>>>>>>>",
">>>  ----     >>>>>>>>>>>>>>>>>>",
">>>o ----   >>>>>>>>>>>>     =>>",
">>>>  ----- >>      >    =;;= =>",
">>>>>  *---     --    =;;;;;;= >",
">>>>>  **   ----   ;;;;;;;;;;==>",
">>>>> O#+*-       ==;;;;;;;;;= >",
">>>>> *** -------  =;;;;;;;;=  >",
">>>>  *** .     --     ====== >>",
">>>        >>>>   - >>        >>",
">> $--  -- >>>>>>   >>>>>>>>>>>>",
">  ---  -- >>>>>>>>>>>>>>>>>>>>>",
"  ---  --  >>>>>>>>>>>>>>>>>>>>>",
" **-   -- >>>>>>>>>>>>>>>>>>>>>>",
"  ** > **  >>>>>>>>>>>>>>>>>>>>>",
"> **    &*  >>>>>>>>>>>>>>>>>>>>",
">     >  ** >>>>>>>>>>>>>>>>>>>>",
">>>  >>>    >>>>>>>>>>>>>>>>>>>>",
">>>>>>>>>>>>>>>>>>>>>>>>>>>>>>>>",
">>>>>>>>>>>>>>>>>>>>>>>>>>>>>>>>",
">>>>>>>>>>>>>>>>>>>>>>>>>>>>>>>>",
">>>>>>>>>>>>>>>>>>>>>>>>>>>>>>>>"
};
