/* XPM */
static char *fire_up_0_xpm[] = {
/* columns rows colors chars-per-pixel */
"32 32 6 1",
"  c Gray0",
". c #23003c002200",
"X c #4b0031000c00",
"o c #42006f004000",
"O c #960061001800",
"+ c None",
/* pixels */
"++++++++++++++ XX  +++++++++++++",
"+++++++++++++ XXXX  ++++++++++++",
"++++++++++++ XXOOXX ++++++++++++",
"++++++++++++ XOOOOX ++++++++++++",
"++++++++++++  XOOO  ++++++++++++",
"+++++++++++++  XOX +++++++++++++",
"+++++++++++++   X  +++++++++++++",
"++++++++++++   X    ++++++++++++",
"++++++++++++    X o  +++++++++++",
"++++++++++   o    o   ++++++++++",
"++++++++++ o o ++   o  +++++++++",
"++++++++++ .       ..   ++++++++",
"++++++++++  .o   oo.  o ++++++++",
"+++++++++   oooooooo oo ++++++++",
"++++++++  o oooooooo o  ++++++++",
"++++++++ oo   .ooo.  o +++++++++",
"++++++++  ooo       o  +++++++++",
"+++++++++  oo  ..  oo ++++++++++",
"++++++++++ o  ....    ++++++++++",
"++++++++++   ......  +++++++++++",
"+++++++++++  ...... ++++++++++++",
"++++++++++++  ....  ++++++++++++",
"++++++++++++   ..    +++++++++++",
"+++++++++++  o    oo +++++++++++",
"+++++++++++  ooo ooo  ++++++++++",
"+++++++++++ oo     oo ++++++++++",
"++++++++++  oo +++ oo  +++++++++",
"+++++++++  oo  +++ ooo +++++++++",
"++++++++  .oo ++++ oo.  ++++++++",
"++++++++ ...  ++++  ...  +++++++",
"++++++++   . ++++++      +++++++",
"+++++++++    +++++++++++++++++++"
};
