/* XPM */
static char *fire_left_0_xpm[] = {
/* columns rows colors chars-per-pixel */
"32 32 10 1",
"  c Gray0",
". c #040007000400",
"X c #09000f000900",
"o c #0d0016000d00",
"O c #12001e001100",
"+ c #170026001600",
"@ c #1d0033001c00",
"# c #23003c002200",
"$ c #42006f004000",
"% c None",
/* pixels */
"$$%%%%%%%%    #    # %%%%%%%%%%%",
"$$$%%%%%%  $ ## $ ## %%%%%%%%%%%",
"$$$%%%%%  #  ##  ### %%%%%%%%%%%",
"%$$$%%%% @$$$$$$$$  %%%%%%%%%%%%",
"%%$$%%%%  #$$$$$$$ %%%%%%%%%%%%%",
"%%$$%%%%%  #$$$$$# %%%%%%%%%%%%%",
"%%$$%%%%%%  $$$$## %% %%%%%%%%%%",
"%%$$%%%%%  #$$$#   %   %%%%%%%%%",
"%%%$  %%% ###$#  %   @  %%%%%%%%",
"%%%$   %%   ##     $$@@ %%%%%%%%",
"%%%$#$    $ oOX  $$$    %%%%%%%%",
"%%%##$$$$$$ ### $$   %% %%%%%%%%",
"%%%       . ###    %%%%%%%%%%%%%",
"%%%%%%%%%         %%%%%%%%%%%%%%",
"%%%%%%%%% $$ % $$+ %%%%%%%%%%%%%",
"%%%%%%%%  $$ % $$$  %%%%%%%%%%%%",
"%%%%%%%% #$  %  $$$  %%%%%%%%%%%",
"%%%%%%%% ## %%%  $## %%%%%%%%%%%",
"%%%%%%%  ## %%%% ##  %%%%%%%%%%%",
"%%%%%%%     %%%  ## %%%%%%%%%%%%",
"%%%%%%%%%%%%%%%     %%%%%%%%%%%%",
"%%%%%%%%%%%%%%%%  %%%%%%%%%%%%%%",
"%%%%%%%%%%%%%%%%%%%%%%%%%%%%%%%%",
"%%%%%%%%%%%%%%%%%%%%%%%%%%%%%%%%",
"%%%%%%%%%%%%%%%%%%%%%%%%%%%%%%%%",
"%%%%%%%%%%%%%%%%%%%%%%%%%%%%%%%%",
"%%%%%%%%%%%%%%%%%%%%%%%%%%%%%%%%",
"%%%%%%%%%%%%%%%%%%%%%%%%%%%%%%%%",
"%%%%%%%%%%%%%%%%%%%%%%%%%%%%%%%%",
"%%%%%%%%%%%%%%%%%%%%%%%%%%%%%%%%",
"%%%%%%%%%%%%%%%%%%%%%%%%%%%%%%%%",
"%%%%%%%%%%%%%%%%%%%%%%%%%%%%%%%%"
};
