/* XPM */
static char *move_left_0_xpm[] = {
/* columns rows colors chars-per-pixel */
"32 32 24 1",
"  c Gray0",
". c #040007000400",
"X c #06000b000600",
"o c #09000f000800",
"O c #09000f000900",
"+ c #0d0016000d00",
"@ c #13000c000300",
"# c #10001c001000",
"$ c #11001e001100",
"% c #12001e001100",
"& c #1a002c001900",
"* c #1a002d001a00",
"= c #1c002f001b00",
"- c #380024000900",
"; c #23003c002200",
": c #4b0031000c00",
"> c #5e003d000f00",
", c #700049001200",
"< c #42006f004000",
"1 c #830055001500",
"2 c #8d005b001700",
"3 c #960061001800",
"4 c #a40040003300",
"5 c None",
/* pixels */
"55555555555555555555555555555555",
"55555555555555555555555555555555",
"55555555555555555555555555555555",
"55555555555555555555555555555555",
"55555555555555555555555555555555",
"55555555555555555555555555555555",
"55555555555555555555555555555555",
"55555555555555555555555555555555",
"5555555555555555555   5555555555",
"555555555555       &<#5555555555",
"55555555555  4<<<  <<X5555555555",
"5555555555  44<<< ;<  5555555555",
"5555555555 <<<<<  ;; 55555555555",
"5555555555    <<<<<  55555555555",
"555555555555  <<<<< o55555555555",
"55555   555  <<<<<  555555555555",
"55555%<  555 <<<;  5555555555555",
"55555  <  5    ;;  5   555555555",
"555555 <<   <<<+%O+% <  55555555",
"555555 <<<<<<< =<;*<<<< o5555555",
"55555     .%%+ ;<;+#+<<<$5555555",
"55555  555555  ;;; 55  @  555555",
"555555555555       55 -:>  55555",
"55555555555  < .+   5  13,   555",
"5555555.555 <<<  <<  5  2333  55",
"555555      <*   <<< 55  3333  5",
"55555   ;; <<  5  <<  55  3333  ",
"555555  ;;;;  555 <;;  5  3333  ",
"5555555   ;  5555 ;;;  55  3333 ",
"55555555    5555  ;;  5555  333 ",
"55555555555555555 ;  555555  3  ",
"5555555555555555    55555555   5"
};
