/* XPM */
static char *move_down_0_xpm[] = {
/* columns rows colors chars-per-pixel */
"32 32 8 1",
"  c Gray0",
". c #23003c002200",
"X c #4b0031000c00",
"o c #42006f004000",
"O c #960061001800",
"+ c #a40040003300",
"@ c #f7002d001b00",
"# c None",
/* pixels */
"################################",
"#####   ########################",
"####  O ########################",
"#### OO  #######################",
"###  OOO #######################",
"### OOOO  ###########  #########",
"### OOOO   #########   #########",
"###  OOO o #      #  o #########",
"#### OOO o   oooo    o #########",
"#### OOO oo+@+oo@@+oo  #########",
"####  OO  oo+oooo+oo  ##########",
"##### X   ooooooooo  ###########",
"#####   O  o   oooo ############",
"######  O  o      o ############",
"####### X   ..oo.   ############",
"#######  oo           ##########",
"#######  ooo  ..   . ###########",
"########  o  ..  oo.   #########",
"######### o ... oooo. ##########",
"#########   ...   o..  #########",
"##########   ....     ##########",
"##########    ..       #########",
"########## oo    o # ###########",
"#########  .oo ooo #############",
"######### ..    oo #############",
"#########    ## oo #############",
"##############  .. #############",
"##############  .. #############",
"###############    #############",
"################################",
"################################",
"################################"
};
