/* XPM */
static char *fire_downright_0_xpm[] = {
/* columns rows colors chars-per-pixel */
"32 32 4 1",
"  c Gray0",
". c #d200dd00dd00",
"X c Gray100",
"o c None",
/* pixels */
"oooooooooooooooooooooooooooooooo",
"oooooooooooooooooooooooooooooooo",
"oooooooooooooooooooooooooooooooo",
"oooooooooooooooooooooooooooooooo",
"oooooooooo ooooooooooooooooooooo",
"oooooooooo  oooooooooooooooooooo",
"ooooooooooo  ooooooooooooooooooo",
"oooooo ooooo   ooooooooooooooooo",
"oooooo  ooooooo  ooooooooooooooo",
"oooooo   ooooooo  oooooooooooooo",
"oooooooo  o o oooooooooooooooooo",
"ooo ooooo  o      oo   ooooooooo",
"ooo  oooo  o         .    oooooo",
"oooo  ooooooo ....  ...XX  ooooo",
"ooooo    oooo  .. ....XXXX  oooo",
"ooooooooo ooo  .   ....XXXX oooo",
"ooooooooo     ......X. .XX. oooo",
"ooooooooo .. ...X..XXX  .X. oooo",
"oooooooo  ...  XXX.XXX.  .  oooo",
"ooooooooo ... .XX.. XX.  .  oooo",
"oooooooo  ....XXX   ... .  ooooo",
"ooooooooo .X...X...XX..... ooooo",
"ooooooooo .XX. . .XXX.  .  ooooo",
"ooooooooo  XXX   .XX. o   oooooo",
"oooooooooo .XX. ..XX. oooooooooo",
"oooooooooo    ......  oooooooooo",
"ooooooooooooo        ooooooooooo",
"ooooooooooooooo oooooooooooooooo",
"oooooooooooooooooooooooooooooooo",
"oooooooooooooooooooooooooooooooo",
"oooooooooooooooooooooooooooooooo",
"oooooooooooooooooooooooooooooooo"
};
