/* XPM */
static char *fire_right_0_xpm[] = {
/* columns rows colors chars-per-pixel */
"32 32 4 1",
"  c Gray0",
". c #d200dd00dd00",
"X c Gray100",
"o c None",
/* pixels */
"oooooooooooooooooooooooooooooooo",
"oooooooooooooooooooooooooooooooo",
"oooooooooooooooooooooooooooooooo",
"oooooooooooooooooooooooooooooooo",
"ooooooooooooo     oooooooooooooo",
"oooooooooooo  ...   oooooooooooo",
"ooooooooooo  .XXXX.  ooooooooooo",
"ooooo   o   .XXXXX..  oooooooooo",
"o     ooo  .....   ..  ooooooooo",
"oooooooo  ........ ...  oooooooo",
"ooooooo   ...  XX. .XX. oooooooo",
"ooooooooo   . .XX..XXX. oooooooo",
"o  ooo oooo  .XXX .XX.  oooooooo",
"       ooo  ..XX.. XX. ooooooooo",
"oooooooo    ...... ...  oooooooo",
"oooooo   .... ...XXX...  ooooooo",
"ooooooo    ..  .XXXX. .. ooooooo",
"ooooooooo   .. .XXX.  .. ooooooo",
"o     oooo    ....    .  ooooooo",
"oo oo    ooo  .....X... oooooooo",
"oooooooo  ooo ..XXXXX.  oooooooo",
"ooooooooooooo  .XXXX.  ooooooooo",
"oooooooooooooo        oooooooooo",
"oooooooooooooooooooooooooooooooo",
"oooooooooooooooooooooooooooooooo",
"oooooooooooooooooooooooooooooooo",
"oooooooooooooooooooooooooooooooo",
"oooooooooooooooooooooooooooooooo",
"oooooooooooooooooooooooooooooooo",
"oooooooooooooooooooooooooooooooo",
"oooooooooooooooooooooooooooooooo",
"oooooooooooooooooooooooooooooooo"
};
