/* XPM */
static char *fire_downleft_0_xpm[] = {
/* columns rows colors chars-per-pixel */
"32 32 4 1",
"  c Gray0",
". c #d200dd00dd00",
"X c Gray100",
"o c None",
/* pixels */
"oooooooooooooooooooooooooooooooo",
"oooooooooooooooooooooooooooooooo",
"oooooooooooooooooooooooooooooooo",
"oooooooooooooooooooooooooooooooo",
"ooooooooooooooooooooo oooooooooo",
"oooooooooooooooooooo  oooooooooo",
"ooooooooooooooooooo  ooooooooooo",
"ooooooooooooooooo   ooooo oooooo",
"ooooooooooooooo  ooooooo  oooooo",
"oooooooooooooo  ooooooo   oooooo",
"oooooooooooooooooo o o  oooooooo",
"ooooooooo   oo      o  ooooo ooo",
"oooooo    .         o  oooo  ooo",
"ooooo  XX...  .... ooooooo  oooo",
"oooo  XXXX.... ..  oooo    ooooo",
"oooo XXXX....   .  ooo ooooooooo",
"oooo .XX. .X......     ooooooooo",
"oooo .X.  XXX..X... .. ooooooooo",
"oooo  .  .XXX.XXX  ...  oooooooo",
"oooo  .  .XX ..XX. ... ooooooooo",
"ooooo  . ...   XXX....  oooooooo",
"ooooo .....XX...X...X. ooooooooo",
"ooooo  .  .XXX. . .XX. ooooooooo",
"oooooo   o .XX.   XXX  ooooooooo",
"oooooooooo .XX.. .XX. oooooooooo",
"oooooooooo  ......    oooooooooo",
"ooooooooooo        ooooooooooooo",
"oooooooooooooooo ooooooooooooooo",
"oooooooooooooooooooooooooooooooo",
"oooooooooooooooooooooooooooooooo",
"oooooooooooooooooooooooooooooooo",
"oooooooooooooooooooooooooooooooo"
};
