/* XPM */
static char *fire_right_0_xpm[] = {
/* columns rows colors chars-per-pixel */
"32 32 6 1",
"  c Gray0",
". c #05007500e800",
"X c #e00070000000",
"o c #f400e9001600",
"O c Gray100",
"+ c None",
/* pixels */
"++++++++++++++++++++++++++++++++",
"++++++++++++++++++++++++++++++++",
"++++++++...+++++++++++++++++++++",
"++++o+o...+++++o++++++++++++++++",
"+++oo...++++Xooo++++++X+X+++++++",
"+ oo.o..++++XXoo++++++++++++++++",
"  ooo..o++++++XoX+++++++++++++++",
"+  oooo+++++++++++++++++++++++++",
"+ ooo+++++++++++++++++++++++++++",
"+  oo+++++X++++++++++X++++++++++",
"+   +++++++++++++++++X++++++++++",
"++++++++++++++++++X+++++++++++++",
"++++++++++++++++++++++++++++++++",
"++++++   +++++++++++++X+++++++++",
"++++++  oo++++++++++++++++++++++",
"++++++ o..ooO+++++++++++++++++++",
"++++++ oo....OOO++++++++++++++++",
"++++++ o...++..+++++++++X+++++++",
"++++++  oo++++++++++++++++++++++",
"+++++++++o++++++++++++++++++++++",
"++++++++++++++++++++++++++++++++",
"++++++++++++++++++++++++++++++++",
"+++++++++++++++++X++++++++++++++",
"++++++++++++++++++++++++++++++++",
"++++ +++++++++o+++++++++++++++++",
"+++   ++++++++oo++++++++++++++++",
"+      o++++++oXX+++++++++++++++",
"++ oooooo+++++XXX+++++++++++++++",
"+  oo...o+++++++++++++++++++++++",
"+  oo++....++++++++++++X++++++++",
"+ ++++++++++X++++++X++++++++++++",
"++++++++++++++++++++++++++++++++"
};
