/* XPM */
static char *fire_downright_0_xpm[] = {
/* columns rows colors chars-per-pixel */
"32 32 6 1",
"  c Gray0",
". c #05007500e800",
"X c #e00070000000",
"o c #f400e9001600",
"O c Gray100",
"+ c None",
/* pixels */
"+++++++    +++++++++++++++++++++",
"+++++++     ++++++++++++++++++++",
"   +++  oooo++  ++++++++++++++++",
"    ++oooooo++  +o++++++++++++++",
"     ++oooo+++  +oo+++++++++++++",
" oooo++ooooo+  Xooo+++++++++++++",
"ooooo++o.o.o+oXXXo++++++++++++++",
"oooo+++o...o++oooo++++++++++++++",
"ooooo+++o..+++ooo+++++++++++++++",
"o.o.o+++o.++++o+o+++++++++++++++",
"o...o++++.++++++++++++++++++++++",
"+o..+++++..+++++++++++++++++++++",
"+o.++++++O.++++++++++++X++++++++",
"++.++   ++O+++++++++++XXX+++++++",
"++..+    +O+  ++++++++Xo++++++++",
"++O.+     ++   ++++++++oo+++++++",
"+++O  XXoo++   oo+++++++o+++++++",
"+++OooXXoo+  XXXo+++++++++++++++",
"+++++oooo++oooooo+++++++++++++++",
"+++++ooooo++oooo++++++++++++++++",
"+++++o.o.o++ooooo+++++++++++++++",
"+++++o...o++o.o.o+++++++++++++++",
"+X++++o..+++o...o+++++++++++++++",
"++++++o.+++++o..++++++++++++++++",
"++++X++.+++++o.+++++++X+++++++++",
"+++++++O.+++++O+++++++Xo++++++++",
"+++++++O.++++++++++++XXoo+++++++",
"++++++++O+++++++++++++++o+++++++",
"++++++++++++++++++++++++++++++++",
"++++++++X++++++X++++++++++++++++",
"+X+++++++++++++X++++++++++++++++",
"++++++++++++++++++++++++++++++++"
};
