/* XPM */
static char * fire_down_0_xpm[] = {
"32 32 7 1",
" 	c None",
".	c #E07000",
"+	c #E50B0B",
"@	c #F7BB76",
"#	c #F4E916",
"$	c #0575E8",
"%	c #FFFFFF",
"     ........++++++++.........  ",
"    @@...@@@..++++++...@ .....  ",
"     @@..@..@+++++++...@    ..  ",
"      @..@..@.++++++.@.@    .## ",
"       @@@..@..+++++.@.@@    .# ",
"       @@@  @..++++...@@@     # ",
"        @@@@@...@@..@.@@      # ",
"        @@@@...@@+..@ @ #       ",
"        ###@@.@@.@@.@ @##       ",
"        ####@@@.@@..@ ##        ",
"         ####@..@...@####       ",
"          ####.@@ . @####       ",
"           ####@... ####        ",
"           #####.. @# #         ",
"            # ###  @# #         ",
"            # @##  @###         ",
"            ## ## @###          ",
"             ##@##@# #          ",
"              #@##@# #          ",
"              # ##@#@#          ",
"              # ##@#@$          ",
"               ### ##$          ",
"               ######$          ",
"               #####$$          ",
"              $$$$$#$           ",
"                $$$$$           ",
"                 $$$$           ",
"                  $$%           ",
"                  $%%           ",
"                   %            ",
"                   %            ",
"                                "};
