/* XPM */
static char *fire_left_0_xpm[] = {
/* columns rows colors chars-per-pixel */
"32 32 6 1",
"  c Gray0",
". c #05007500e800",
"X c #e00070000000",
"o c #f400e9001600",
"O c Gray100",
"+ c None",
/* pixels */
"++++++++++++++++++++++++++++++++",
"++++++++++++++++++++++++++++++++",
"++++++++++++++oooXX++++++X++o+++",
"++++++++++++++ooXXX++++++X++ooo+",
"+++++++X+++++++X++++++++++++oo  ",
"+++++++++++++++++++++++++++++o  ",
"+++++++++++++++++++++++++++++  +",
"++++++++++++++X+++++O++++++++  +",
"++++++++++++++++++++OO++++++++++",
"+++++++++++++++++++++...oo++++++",
"++++++++++++++++++++++...ooo++++",
"+++++++++++++++++++++...oooo +++",
"+++++++++++++oo++++++.ooooo  +++",
"++++++++++++oooX++++++ooo    +++",
"++++++++++++oXXX+++++++oo   ++++",
"+++++++++++++X+++++++++     ++++",
"++++++++++++++++++++++++  ++++++",
"++++++++++++++++++++++++++++++++",
"+++++++++++++++++X+++++++ ++++++",
"++++++++++++X+++++++++++   +++++",
"++++++++++++++++++++++ooo ++++++",
"+++++++++++++++O+++...oo  ++++++",
"++++++++++++++++O.O..oo    +++++",
"+++++++++++++++++.++ooo+o+ +++++",
"++++++++++++++++++++++++ +++++++",
"++++++++++++++++++++++++++++++++",
"++++++++++++oo++++++X+++++++++++",
"++++++++++++oXX+++++++++++++++++",
"++++++++++++oX++++++++++++++++++",
"++++++++++++XX+++++++++XX+++++++",
"++++++++++++++++++++XX++++++X+++",
"++++++++++++++++++++++++++++++++"
};
