/* XPM */
static char *fire_upright_0_xpm[] = {
/* columns rows colors chars-per-pixel */
"32 32 6 1",
"  c Gray0",
". c #05007500e800",
"X c #e00070000000",
"o c #f400e9001600",
"O c Gray100",
"+ c None",
/* pixels */
"++++++++++++++++++++++++++++++++",
"+++++++++++X++++++++++++++++++++",
"+++++++X++++++++++++++++++++++++",
"+++++++++++++++++X++++++++++++++",
"++++++++O+++++++XX++++++o+++++++",
"+++++++O.++++++X+++++XXoo+++++++",
"+++++++O.+++++O+++++++Xo++++++++",
"+++++++.+++++o.+++++++X+++++++++",
"++++++o.+++++o..++++++++++++++++",
"++X+++o..+++o...o+++++++++++++++",
"+++++o...o++o.o.o+++++++++++++++",
"+++++o.o.o++ooooo+++++++++++++++",
"+++++ooooo++oooo++++++++++++++++",
"+++++oooo++oooooo+++++++++++++++",
"+++OooXXoo+  XXXo+++++++++++++++",
"+++O  XXoo++   oo+++++++++++++++",
"++O.+     ++   +++++++++++++++++",
"++..+    +O+  ++++++++++++++++++",
"++.++   ++O+++++++++++o+++++++++",
"+o.++++++O.+X++++++++oo+++++++++",
"+o..+++++..X++++++++Xo++++++++++",
"o...o++++.++++++++++XXX+++++++++",
"o.o.o+++o.++++o+o++++X++++++++++",
"ooooo+++o..+++ooo+++++++++++++++",
"oooo+++o...o++oooo++++++++++++++",
"ooooo++o.o.o+oXXXo++++++++++++++",
" oooo++ooooo+  Xooo+++++++++++++",
"     ++oooo+++  +oo+++++++++++++",
"    ++oooooo++  +o++++++++++++++",
"   +++  oooo++  ++++++++++++++++",
"+++++++     ++++++++++++++++++++",
"+++++++    +++++++++++++++++++++"
};
