/* XPM */
static char *fire_downleft_0_xpm[] = {
/* columns rows colors chars-per-pixel */
"32 32 6 1",
"  c Gray0",
". c #05007500e800",
"X c #e00070000000",
"o c #f400e9001600",
"O c Gray100",
"+ c None",
/* pixels */
"+++++++++++++++++++++    +++++++",
"++++++++++++++++++++     +++++++",
"++++X++++++++++   ++oooo  +++   ",
"++++XX++++++++    ++oooooo++    ",
"+++ooX+++++++     +++oooo++     ",
"+++o+++++++++oooo  +ooooo++oooo ",
"+++++++++   +oooooo+o.o.o++ooooo",
"+++++++++    +oooo++o...o+++oooo",
"+++++++++    ooooo+++..o+++ooooo",
"++++++++     o.o.o++++.o+++o.o.o",
"++++++++ ooo o...o++++.++++o...o",
"++++++++o.o.o ..o++++..+++++..o+",
"+++++++oo...o++.o++++.O++++++.o+",
"+++++++++..o+++.+++++O++   ++.++",
"++++++++++.o++..+   +O+    +..++",
"++++++++++.O++.O    ++     +.O++",
"+++++++++.O+++O     ++oooo  O+++",
"++++X++++.O+++Ooooo  +ooooooO+++",
"+++oXX++++O++++oooooo++oooo+++++",
"+++ooX++++++++++oooo++ooooo+++++",
"+++oo++++++++++ooooo++o.o.o+++++",
"+++++++++++++++o.o.o++o...o+++++",
"+++++++++++++++o...o+++..o++++++",
"+++++++++X++++++..o+++++.o++++++",
"+++++++++++++++++.o+++++.+++++++",
"+X+++++++++++++++.+++++..+++++++",
"++++++++++++++++..+++++.O+++++++",
"++++++++++++++++.O++X++O++++++Xo",
"++++++++++++++++O++++++O+++++XXo",
"++++++++++++X+++O++++++++++++ooo",
"++++++++++++++++++++++++++X+++oo",
"++++++++++++++++++++++++++++++++"
};
