/* XPM */
static char *fire_upleft_0_xpm[] = {
/* columns rows colors chars-per-pixel */
"32 32 6 1",
"  c Gray0",
". c #05007500e800",
"X c #e00070000000",
"o c #f400e9001600",
"O c Gray100",
"+ c None",
/* pixels */
"+++++++++++++++++++++XX+++++++++",
"++++++++++++++++++++++++++X+++++",
"++++++++++++++++O+++++++++++++++",
"++++++++++++X+++O++++++O++++++++",
"++++++++++++++++.O+++++O++++++++",
"++++++++++++++++..+++++.O+++oo++",
"+++++X++++o++++++.+++++..++ooXX+",
"++++++++++o++++++.o+++++.+++X+++",
"++++++++++oo++++..o+++++.o++++++",
"+++++++++oooX++o...o+++..o++++++",
"+++++++++XXXX++o.o.o++o...o+++++",
"+++++++++++X+++ooooo++o.o.o+++++",
"+++++++++++++O++oooo++ooooo+++++",
"+++++++X++++.O+ooOooo++oooo+++++",
"++++++++++++.O++oO   +ooooooO+++",
"+++++++++++++.O++.O ++oooo  O+++",
"+++++++++++++.o++.. ++     +.O++",
"++++++++++++..o++ . +O+    +..++",
"++++++++++oo...o++.o+O++   ++.++",
"+++++++++++o.o.o ..o+.O++++++.o+",
"++X+++X++++ ooo o...o..+++++..o+",
"++X++++++++     o.o.o+.++++o...o",
"++++++++++++    ooooo+.o+++o.o.o",
"++++++++++++    +oooo..o+++ooooo",
"++++++++++++   +oooooo..o+++oooo",
"++++++++++++++++oooo  o.o++ooooo",
"++++++++++++++++     oooo++oooo ",
"+++++++++++oo++++    oooo++     ",
"++X++++++oooXX++++   ooooo++    ",
"++++++++++oXX+++++++oooo  +++   ",
"+++++++++++X++++++++     +++++++",
"+++++++++++X+++++++++    +++++++"
};
