/* XPM */
static char * fire_up_0_xpm[] = {
"32 32 6 1",
" 	c None",
".	c #FFFFFF",
"+	c #0575E8",
"@	c #F4E916",
"#	c #E07000",
"$	c #E50B0B",
"                .               ",
"                ..              ",
"                ..+             ",
"                +..+            ",
"         .      +..+            ",
"         ..     ++.+            ",
"         ...    ++.++           ",
"         ..+     ++++           ",
"          ..+    ++++           ",
"           ..++@  ++++          ",
"     .+     .+++  ++@++         ",
"     .+     +++++@++@++         ",
"     +++     ++++@++@++         ",
"      ++      +++@++@++         ",
"       +      +++@@+@@+        .",
"       ++     ++@@ @@@@       ..",
"       +++     +@@@@@@@@@   ++++",
"       + +@@   @@@@@@@@@@   +++ ",
"       ++++@@  @@@@@@@ @@  @+++ ",
"       @@++@@@ @@#@#@@@@@@ @@+@ ",
"    @@   @+ @@@@ #@## @@@@ @@@  ",
"   #  @   @@ @@@ #@##   @@@@@   ",
"  ##  @   @@@@@@@#@@### @@@@@   ",
"  ### @@  @@@@@@@##@###  @@@    ",
"    ## @  #@@@@@@@###### @@@    ",
"     ##@@ ##@#@ #@######@@@@    ",
"      # @  #@@@@##$#####@@@@    ",
"    $ ##@   #@@@# $$####@@@@    ",
"    #$$ @@  ##@@$$$$$#######    ",
"    #$$ #   # ##$$ $$$#######   ",
"   ##$$$########$$$$$$$$#####   ",
"  ### $$##  ##$$$$$$ $ ######   "};
