/* XPM */
static char *fire_right_0_xpm[] = {
/* columns rows colors chars-per-pixel */
"32 32 17 1",
"  c Gray0",
". c #2a001c000600",
"X c #000000006d00",
"o c #3c0022005e00",
"O c #440025006e00",
"+ c #4c002b007a00",
"@ c #090009009800",
"# c #13001300c300",
"$ c #28003a00d600",
"% c #3d003d00fc00",
"& c #5b0033008e00",
"* c #63006300fe00",
"= c #7e007e00ff00",
"- c #820010001000",
"; c #e2000f002f00",
": c #82002d008000",
"> c None",
/* pixels */
">>>>>>>>>>>>>>>>>>>>>>>>>>>>>>>>",
">>>>>>>>>>>>>>>>>>>>>>>>>>>>>>>>",
">>>>>>>>>>>>>>>>>>>>>>>>>>>>>>>>",
">>>>>>>>>>>>>>>>>>>>>>>>>>>>>>>>",
">>>>>>>>>>>>>>>>>>>>>>>>>>>>>>>>",
">>>>>>>>>>>>>>>>>>>>>>>>>>>>>>>>",
">>>>>>>>>>>>>>>>>>>>>>>>>>>>>>>>",
">>>>>>>>>>>>>>>>>>>>>>>>>>>>>>>>",
">>>>>>>>>>>>>>>>>>  >>>>>>>>>>>>",
">>>>>>>>>>>>>>>>>>>XX >>>>>>>>>>",
">>>>>>>>>>>>>>>>>>>#@X  >>>>>>>>",
">>>>>>>>>>>>>>>>>>>$%@#@X >>>>>>",
">>>>>>>>>#>>>>>>>>>o=%#%@  >>>>>",
">>>>>>>>$%>>>>>>>>> *#o:o# >>>>>",
">>>>>>>>*@>>>>>>>>> @@o;-oX >>>>",
">>>>>>>#@ >>>    >> X@##O## >>>>",
">>>>>>> #  X XXXX XXX##X@#%X>>>>",
">>>>>>  ##X@####@@@$O%X   @ >>>>",
">>>>> @@#$@#%***###%#X>>>>>>>>>>",
">>>>X@$@O$O@+%%%####X>>>>>>>>>>>",
">>>>###@@@@#o#@#@$X >>>>>>>>>>>>",
">>>>$%@  >> @ #o#%X>>>>>>>>>>>>>",
">>>>@# >>>>>X#XX$%X>>>>>>>>>>>>>",
">>>>#X >>>>>X#XX$&X>>>>>>>>>>>>>",
">>>>#@ >>>>>>@@ ##@>>>>>>>>>>>>>",
">>>>#X >>>>>>@$X@#@>>>>>>>>>>>>>",
">>>>O@ >>>>>>@# @$# >>>>>>>>>>>>",
">>>>@#X>>>>> #@>X#%@>>>>>>>>>>>>",
">>>>X$@@>>> XOX>>@%o >>>>>>>>>>>",
">>>>>>$#$######>>@##@##X>>>>>>>>",
">>>>>> X#o$@@###># @#@>#X>>>>>>>",
">>>>>>     X@#>##@X .@ >>>>>>>>>"
};
