/* XPM */
static char *fire_right_0_xpm[] = {
/* columns rows colors chars-per-pixel */
"32 32 12 1",
"  c Gray0",
". c #380073002c00",
"X c #7a0051002500",
"o c #28003a00d600",
"O c #960061001800",
"+ c #82002d008000",
"@ c #bf004100bb00",
"# c #b50089005600",
"$ c #db00a6006700",
"% c #f700bb007600",
"& c #d200dd00dd00",
"* c None",
/* pixels */
"********************************",
"********************************",
"********************************",
"**********  ********************",
"******          ****************",
"****  +@@++++++  ***************",
"**** +++@@@@+++++ **************",
"**** @+++++@@@@@  ***   ********",
"**** @@+++++++++  **  &  *******",
"****  @@@@       *** &&& *******",
"****            ****  &  *******",
"**** +  %%%% .. ****     *******",
"**** ++ %%%%%..  ****   ********",
"****  + %%%%%%%% ***OOOX********",
"*****     %%%%%  ***OOO*********",
"***** ooo  %    *   OO**********",
"***** oooo  %%    o OO**********",
"***** o         ooo   **********",
"*****   oo  ooo       **********",
"******  ooo oooo oooo     ******",
"******* ooo  oooooooo $$$ ******",
"******* oooo   oooooo ##  ******",
"******* oooooo   oooo    *******",
"******* oooooooo   oo **********",
"******* oooooooo *    **********",
"******* oooooooo ***************",
"******  oooooooo ***************",
"****** ooooooooo ***************",
"****** oooooooo  ***************",
"*****  ooooooo   ***************",
"****  oooo     &  **************",
"****       &&& &&  *************"
};
