/* XPM */
static char *fire_left_0_xpm[] = {
/* columns rows colors chars-per-pixel */
"32 32 10 1",
"  c Gray0",
". c #380073002c00",
"X c #28003a00d600",
"o c #960061001800",
"O c #82002d008000",
"+ c #bf004100bb00",
"@ c #db00a6006700",
"# c #f700bb007600",
"$ c #d200dd00dd00",
"% c None",
/* pixels */
"%%%%%%%%%%%%%%%%%%%%%%%%%%%%%%%%",
"%%%%%%%%%%%%%%%%%%%%  %%%%%%%%%%",
"%%%%%%%%%%%%%%%%          %%%%%%",
"%%%%%%%%%%%%%%%  OOOOOO++O  %%%%",
"%%%%%%%%%%%%%% OOOOO++++OOO %%%%",
"%%%%%%%%%%%%%%  +++++OOOOO+ %%%%",
"%%%%%%%%%%%%%%  OOOOOOOOO++ %%%%",
"%%%%%%%%%%%%%%%       ++++  %%%%",
"%%%%%%%%%%%%%%%%            %%%%",
"%%%%%%%%%%%%%%%% .. ####  O %%%%",
"%%%%%%%%%%%%%%%  ..##### OO %%%%",
"%%%%%   %%%%%%% ######## O  %%%%",
"%%%%% @ %%%%%%%  #####     %%%%%",
"%%%%% @      %%%    #  XXX %%%%%",
"%%%%% @  XXX      ##  XXXX %%%%%",
"%%%%% @#    XXXX         X %%%%%",
"%%%%%  # #       XXX  XX   %%%%%",
"%%%%%%   # XXXX XXXX XXX  %%%%%%",
"%%%%%%%% # XXXXXXXX  XXX %%%%%%%",
"%%%%%%%% # XXXXXX   XXXX %%%%%%%",
"%%%%%%%%   XXXX   XXXXXX %%%%%%%",
"%%%%%%%%%% XX   XXXXXXXX %%%%%%%",
"%    %%%%%    % XXXXXXXX %%%%%%%",
"% $$ oo%%%%%%%% XXXXXXXX %%%%%%%",
"% $$$oooooooooo XXXXXXXX  %%%%%%",
"% $$$ ooooooooo XXXXXXXXX %%%%%%",
"%     %%%%%%%%  XXXXXXXXX ooo%%%",
"%%%%%%%%%%%%%  XXXXXXXXXX  oo%%%",
"%%%%%%%%%%%% XXX      XXXX  %%%%",
"%%%%%%%%%%%%     %%%%       %%%%",
"%%%%%%%%%%%%%%%%%%%%%%%%%%%%%%%%",
"%%%%%%%%%%%%%%%%%%%%%%%%%%%%%%%%"
};
