/* XPM */
static char *move_right_0_xpm[] = {
/* columns rows colors chars-per-pixel */
"32 32 11 1",
"  c Gray0",
". c #380073002c00",
"X c #7a0051002500",
"o c #28003a00d600",
"O c #82002d008000",
"+ c #bf004100bb00",
"@ c #b50089005600",
"# c #db00a6006700",
"$ c #f700bb007600",
"% c #d200dd00dd00",
"& c None",
/* pixels */
"&&&&&&&&&&&&&&&&&&&&&&&&&&&&&&&&",
"&&&&&&&&&&&&&&&  &&&&&&&&&&&&&&&",
"&&&   &&&&&          &&&&&&&&&&&",
"&&  %  &&  O++OOOOOO  &&&&&&&&&&",
"&& %%% && OOO++++OOOOO &&&&&&&&&",
"&&  %  && +OOOOO+++++  &&&&&&&&&",
"&&     && ++OOOOOOOOO  &&&&&&&&&",
"&&&   &&&  ++++       &&&&&&&&&&",
"&&&XXX&&&            &&&&&&&&&&&",
"&&&XXX&&& O  $$$$ .. &&&&&&&&&&&",
"&&&XXXX&& OO $$$$$..  &&&&&&&&&&",
"&&&&XXX&&  O $$$$$$$$ &&&&&&&&&&",
"&&   XX&&&     $$$$$  &&&&&&&&&&",
"&& @   &&& ooo  $    &&&&&&&&&&&",
"&& @@@  && oooo  $$ &&&&&&&&&&&&",
"&& @@@@    o         &&&&  &&&&&",
"&&  @@@ o    oo  ooo       &&&&&",
"&&&     ooo  ooo oooo oooo     &",
"&&&XXX   ooo ooo  oooooooo ### &",
"&&&XXX&&  oo oooo   oooooo @@  &",
"&&&XXXX&&    oooooo   oooo    &&",
"&&&&XXX&&&&  oooooooo   oo &&&&&",
"&&&&XXX&&&&& oooooooo &    &&&&&",
"&&&&XXX&&&&& oooooooo &&&&&&&&&&",
"&&&&XXX&&&&  oooooooo &&&&&&&&&&",
"&&&&XXX&&&& ooooooooo &&&&&&&&&&",
"&&&&XXX&&&& ooooooooo  &&&&&&&&&",
"&&&&XX&&&&  oooooooooo  &&&&&&&&",
"&&&&XX&&&  oooo      ooo &&&&&&&",
"&&&&XX&&&          %     &&&&&&&",
"&&&&XX&&&&  %%% && %%%% &&&&&&&&",
"&&&&&&&&&&      &&      &&&&&&&&"
};
