/* XPM */
static char *move_left_0_xpm[] = {
/* columns rows colors chars-per-pixel */
"32 32 11 1",
"  c Gray0",
". c #380073002c00",
"X c #7a0051002500",
"o c #28003a00d600",
"O c #82002d008000",
"+ c #bf004100bb00",
"@ c #b50089005600",
"# c #db00a6006700",
"$ c #f700bb007600",
"% c #d200dd00dd00",
"& c None",
/* pixels */
"&&&&&&&&&&&&&&&&&&&&&&&&&&&&&&&&",
"&&&&&&&&&&&&&&&  &&&&&&&&&&&&&&&",
"&&&&&&&&&&&          &&&&&   &&&",
"&&&&&&&&&&  OOOOOO++O  &&  %  &&",
"&&&&&&&&& OOOOO++++OOO && %%% &&",
"&&&&&&&&&  +++++OOOOO+ &&  %  &&",
"&&&&&&&&&  OOOOOOOOO++ &&     &&",
"&&&&&&&&&&       ++++  &&&   &&&",
"&&&&&&&&&&&            &&&XXX&&&",
"&&&&&&&&&&& .. $$$$  O &&&XXX&&&",
"&&&&&&&&&&  ..$$$$$ OO &&XXXX&&&",
"&&&&&&&&&& $$$$$$$$ O  &&XXX&&&&",
"&&&&&&&&&&  $$$$$     &&&XX   &&",
"&&&&&&&&&&&    $  ooo &&&   @ &&",
"&&&&&&&&&&&& $$  oooo &&  @@@ &&",
"&&&&&  &&&&         o    @@@@ &&",
"&&&&&       ooo  oo    o @@@  &&",
"&     oooo oooo ooo  ooo     &&&",
"& ### oooooooo  ooo ooo   XXX&&&",
"&  @@ oooooo   oooo oo  &&XXX&&&",
"&&    oooo   oooooo    &&XXXX&&&",
"&&&&& oo   oooooooo  &&&&XXX&&&&",
"&&&&&    & oooooooo &&&&&XXX&&&&",
"&&&&&&&&&& oooooooo &&&&&XXX&&&&",
"&&&&&&&&&& oooooooo  &&&&XXX&&&&",
"&&&&&&&&&& ooooooooo &&&&XXX&&&&",
"&&&&&&&&&  ooooooooo &&&&XXX&&&&",
"&&&&&&&&  oooooooooo  &&&&XX&&&&",
"&&&&&&& ooo      oooo  &&&XX&&&&",
"&&&&&&&     %          &&&XX&&&&",
"&&&&&&&& %%%% && %%%  &&&&XX&&&&",
"&&&&&&&&      &&      &&&&&&&&&&"
};
