/* XPM */
static char *elem_air_0_xpm[] = {
/* columns rows colors chars-per-pixel */
"32 32 6 1",
"  c Gray0",
". c #09006c00d200",
"X c #05007500e800",
"o c #05007b00f400",
"O c #11008600fe00",
"+ c None",
/* pixels */
"OOOOOOOOOoooXX. ++++++++++++++ .",
"OOOOooXX.      +++              ",
"XX..     ++++++++ .XXooOOOOooXX ",
"    +++++++++    .XXoOOOOOOOOOO ",
"+++          ......      ..XXX +",
"++ ..XXXXooOOOOOoXX.          ++",
"+++ OOOOOOOOOOOOOOOOOOooXXX. +++",
"++++ OOOOOOOOOOOOOOOOOOOOOOOO ++",
"++++ OOOOOoXXX.      ..XXooo +++",
"+++++  XX.                  ++++",
"+++++++   +++  ..XXXX..    +++++",
"++++++++++++ .XoOOOOOOOOOOO ++++",
"++++++++++     ..XXXooOOOOO ++++",
"+++++++++ XX.              +++++",
"+++++++++ OOOOOoXX.        +++++",
"+++++++++ OOOOOOOOOOOOOOOOo ++++",
"+++++++++ oXXXXoooOOOOOOOOO ++++",
"++++++++++                 +++++",
"+++++++++++              +++++++",
"++++++++++ oOOOOOOOOOooXX ++++++",
"++++++++++ XooOOOOOOOOOOO ++++++",
"+++++++++++         .XXo +++++++",
"+++++++++++             ++++++++",
"++++++++++ OOOOOooXXXX +++++++++",
"++++++++++ OOOOOOOOOOO +++++++++",
"+++++++++++    ..X    ++++++++++",
"++++++++++        ++++++++++++++",
"+++++++++ oooXXX. ++++++++++++++",
"++++++++ OOOOOO  +++++++++++++++",
"+++++++++ ..   +++++++++++++++++",
"+++++++++   ++++++++++++++++++++",
"++++++++ XX. +++++++++++++++++++"
};
