/* XPM */
static char *elem_air_2_xpm[] = {
/* columns rows colors chars-per-pixel */
"32 32 6 1",
"  c Gray0",
". c #09006c00d200",
"X c #05007500e800",
"o c #05007b00f400",
"O c #11008600fe00",
"+ c None",
/* pixels */
". ++++++++++++++ .XXoooOOOOOOOOO",
"              +++      .XXooOOOO",
" XXooOOOOooXX. ++++++++     ..XX",
" OOOOOOOOOOoXX.    +++++++++    ",
"+ XXX..      ......          +++",
"++          .XXoOOOOOooXXXX.. ++",
"+++ .XXXooOOOOOOOOOOOOOOOOOO +++",
"++ OOOOOOOOOOOOOOOOOOOOOOOO ++++",
"+++ oooXX..      .XXXoOOOOO ++++",
"++++                  .XX  +++++",
"+++++    ..XXXX..  +++   +++++++",
"++++ OOOOOOOOOOOoX. ++++++++++++",
"++++ OOOOOooXXX..     ++++++++++",
"+++++              .XX +++++++++",
"+++++        .XXoOOOOO +++++++++",
"++++ oOOOOOOOOOOOOOOOO +++++++++",
"++++ OOOOOOOOOoooXXXXo +++++++++",
"+++++                 ++++++++++",
"+++++++              +++++++++++",
"++++++ XXooOOOOOOOOOo ++++++++++",
"++++++ OOOOOOOOOOOooX ++++++++++",
"+++++++ oXX.         +++++++++++",
"++++++++             +++++++++++",
"+++++++++ XXXXooOOOOO ++++++++++",
"+++++++++ OOOOOOOOOOO ++++++++++",
"++++++++++    X..    +++++++++++",
"++++++++++++++        ++++++++++",
"++++++++++++++ .XXXooo +++++++++",
"+++++++++++++++  OOOOOO ++++++++",
"+++++++++++++++++   .. +++++++++",
"++++++++++++++++++++   +++++++++",
"+++++++++++++++++++ .XX ++++++++"
};
