/* XPM */
static char *move_left_0_xpm[] = {
/* columns rows colors chars-per-pixel */
"32 32 9 1",
"  c Gray0",
". c #000000006d00",
"X c #090009009800",
"o c #13001300c300",
"O c #28003a00d600",
"+ c #3d003d00fc00",
"@ c #63006300fe00",
"# c #7e007e00ff00",
"$ c None",
/* pixels */
"$$$$$$$$$$$$$$$$$$$$$$$$$$$$$$$$",
"$$$$$$$$$$$$$$$$$$$$$$$$$$$$$$$$",
"$$$$$$$$$$$$$$$$$$$$$$$$$$$$$$$$",
"$$$$$$$$$$$$$$$$$$$$$$$$$$$$$$$$",
"$$$$$$$$$$$$$$$$$$$$$$$$$$$$$$$$",
"$$$$$$$$$$$$$$   $$$$$$$$$$$$$$$",
"$$$$$$$$$$$$ .X..  $$$$$$$$$$$$$",
"$$$$$$$$$$$  .oXXX. $$$$$$$$$$$$",
"$$$$$$$$$$$ XO@oooXX $$$$$$$$$$$",
"$$$$$$$$$$$ X+#+ooXX  $$$$$$$$$$",
"$$$$$$$$$$$$ XoooXXXX $$$$$$$$$$",
"$$$$$$$$$$$$ .XXXXXXX  $$$$$$$$$",
"$$$$$$$$$$$$   .XX. .. $$$$$$$$$",
"$$$$$$$$$     .XXXX.  $ $$$$$$$$",
"$$$$$$$$ ooXX.XoooXX. $$$$$$$$$$",
"$$$$$$$ .@#XXXXXX.XX.  $$$$$$$$$",
"$$$$$$$ .+ XXXXXXXXXX. $$$$$$$$$",
"$$$$$$$$XoXX.oXXXXXoX. $$$$$$$$$",
"$$$$$$$$.Xooo+XXXX.oXX $$$$$$$$$",
"$$$$$$$$$ Xoo@XXXXOOXX. $$$$$$$$",
"$$$$$$$$$$ oX+XXX.oOoXX  $$$$$$$",
"$$$$$$$$$$ X.oX..ooooXX. $$$$$$$",
"$$$$$$$$$$ .XX. XXooooXX $$$$$$$",
"$$$$$$$$$$$     .XooooX.. $$$$$$",
"$$$$$$$$$$$$$$$$ .XXoXoX. $$$$$$",
"$$$$$$$$$$$$$$$$$ .XXXXXX $$$$$$",
"$$$$$$$$$$$$$$$$$$ .XXXXX. $$$$$",
"$$$$$$$$$$$$$$$$$$$ .XXXX. $$$$$",
"$$$$$$$$$$$$$$$$$$$$  .XX  $$$$$",
"$$$$$$$$$$$$$$$$$$$$$    $$$$$$$",
"$$$$$$$$$$$$$$$$$$$$$$$$$$$$$$$$",
"$$$$$$$$$$$$$$$$$$$$$$$$$$$$$$$$"
};
