/* XPM */
static char *move_right_0_xpm[] = {
/* columns rows colors chars-per-pixel */
"32 32 9 1",
"  c Gray0",
". c #000000006d00",
"X c #090009009800",
"o c #13001300c300",
"O c #28003a00d600",
"+ c #3d003d00fc00",
"@ c #63006300fe00",
"# c #7e007e00ff00",
"$ c None",
/* pixels */
"$$$$$$$$$$$$$$$$$$$$$$$$$$$$$$$$",
"$$$$$$$$$$$$$$$$$$$$$$$$$$$$$$$$",
"$$$$$$$$$$$$$$$$$$$$$$$$$$$$$$$$",
"$$$$$$$$$$$$$$$$$$$$$$$$$$$$$$$$",
"$$$$$$$$$$$$$$$$$$$$$$$$$$$$$$$$",
"$$$$$$$$$$$$$$$   $$$$$$$$$$$$$$",
"$$$$$$$$$$$$$  .... $$$$$$$$$$$$",
"$$$$$$$$$$$$ .XXoo . $$$$$$$$$$$",
"$$$$$$$$$$$ .XXoO@+. $$$$$$$$$$$",
"$$$$$$$$$$  XoooO@+X $$$$$$$$$$$",
"$$$$$$$$$$ XXXXoooX $$$$$$$$$$$$",
"$$$$$$$$$  XXXXXXX. $$$$$$$$$$$$",
"$$$$$$$$$ X. .XX.   $$$$$$$$$$$$",
"$$$$$$$$ $  .XXXX.     $$$$$$$$$",
"$$$$$$$$$$ .XXoooX.XXoo $$$$$$$$",
"$$$$$$$$$  XXXX.X.XX.##. $$$$$$$",
"$$$$$$$$$ .XXXXXXXXXX.+. $$$$$$$",
"$$$$$$$$$ XXo.XXXXo.XXo.$$$$$$$$",
"$$$$$$$$$ XXo.XXXX+oooX.$$$$$$$$",
"$$$$$$$$ .XooOXXXX@ooX $$$$$$$$$",
"$$$$$$$  XXo+o.XXX+Xo $$$$$$$$$$",
"$$$$$$$ .Xooooo..Xo.X $$$$$$$$$$",
"$$$$$$$ XXoooooX .XX. $$$$$$$$$$",
"$$$$$$ .XXoooXX.     $$$$$$$$$$$",
"$$$$$$ .XoooXX. $$$$$$$$$$$$$$$$",
"$$$$$$ XXXXXX. $$$$$$$$$$$$$$$$$",
"$$$$$ .XXXXX. $$$$$$$$$$$$$$$$$$",
"$$$$$ XXXXX. $$$$$$$$$$$$$$$$$$$",
"$$$$$  XX.  $$$$$$$$$$$$$$$$$$$$",
"$$$$$$$    $$$$$$$$$$$$$$$$$$$$$",
"$$$$$$$$$$$$$$$$$$$$$$$$$$$$$$$$",
"$$$$$$$$$$$$$$$$$$$$$$$$$$$$$$$$"
};
