/* XPM */
static char *move_down_0_xpm[] = {
/* columns rows colors chars-per-pixel */
"32 32 9 1",
"  c Gray0",
". c #000000006d00",
"X c #440025006e00",
"o c #090009009800",
"O c #13001300c300",
"+ c #28003a00d600",
"@ c #3d003d00fc00",
"# c #63006300fe00",
"$ c None",
/* pixels */
"$$$$$$$$$$$$$$$$$$$$$$$$$$$$$$$$",
"$$$$$$$$$$$$$$$$$$$$$$$$$$$$$$$$",
"$$$$$$$$$$$$$$$$$$$$$$$$$$$$$$$$",
"$$$$$$$$$$$$$$oO+X$$$$$$$$$$$$$$",
"$$$$$$$$$$$$$oO..oO$$$$$$$$$$$$$",
"$$$$$$$$$$$$$o.oo.oo$$$$$$$$$$$$",
"$$$$$$$$$$$$$O..o..o$$$$$$$$$$$$",
"$$$$$$$$$$$$$oOo.oO.$$$$$$$$$$$$",
"$$$$$$$$$$$$$.O+XOo$$$$$$$$$$$$$",
"$$$$$$$$$$$$$$.o.o$$$$$$$$$$$$$$",
"$$$$$$$$o.$$$$... $$$$$...$$$$$$",
"$$$$$$XOooo$$..oo.$$$$.o.OO$$$$$",
"$$$$$+Oo.oo...oooo....oO.oO+$$$$",
"$$$$$+o..Oo..oOOOoo....+o.o+$$$$",
"$$$$Oo.o.Xo..oO##Ooo.o.OOoooX$$$",
"$$$$Ooo.o+..oo+##Oo...oo+oooO$$$",
"$$$$O..o+o...oO@@Ooo....OO.oo$$$",
"$$$$ooOOo.. ooOO@Oo.$...ooOo.$$$",
"$$$$$... .$$.ooOOOo.$$$ . .$$$$$",
"$$$$$$$$$$$$.ooOOoo.$$$$$$$$$$$$",
"$$$$$$$$$$$$$.oOOooo$$$$$$$$$$$$",
"$$$$$$$$$$$$$.ooOoo.$$$$$$$$$$$$",
"$$$$$$$$$$$$$.ooooo.$$$$$$$$$$$$",
"$$$$$$$$$$$$$$.oooo.$$$$$$$$$$$$",
"$$$$$$$$$$$$$$..ooo.$$$$$$$$$$$$",
"$$$$$$$$$$$$$$$.ooo.$$$$$$$$$$$$",
"$$$$$$$$$$$$$$$..oo.$$$$$$$$$$$$",
"$$$$$$$$$$$$$$$$..o.$$$$$$$$$$$$",
"$$$$$$$$$$$$$$$$$$..$$$$$$$$$$$$",
"$$$$$$$$$$$$$$$$$$$$$$$$$$$$$$$$",
"$$$$$$$$$$$$$$$$$$$$$$$$$$$$$$$$",
"$$$$$$$$$$$$$$$$$$$$$$$$$$$$$$$$"
};
