/* XPM */
static char *fire_downleft_0_xpm[] = {
/* columns rows colors chars-per-pixel */
"32 32 5 1",
"  c Gray0",
". c #060036006300",
"X c #11008600fe00",
"o c #f500ed00ec00",
"O c None",
/* pixels */
"OOOOOOOOOOOOOOOOOOOOOOOOOOOOOOOO",
"OOOOOOOOOOOOOOOOOOOOOOOOOOOOOOOO",
"OOOOOOOOOOOOOOOOOOOOOOOOOOOOOOOO",
"OOOOOOOOOO..O..OO..OOOOOOOOOOOOO",
"OOOOOOOOO.XX.XX..XX.OOOOOOOOOOOO",
"OOOOOOOO.XooXooXXooX.OOOO.OOOOOO",
"OOOOOOOOO.XXoXXooXXoX..O.X.OOOOO",
"OOOOOOOOO.XXoX.XX..XoXX.XoX.OOOO",
"OOOOOOOO.XooXXX.XX..XooXoX.OOOOO",
"OOOOOO..XXXXXooXooXX.XXoX.OOOOOO",
"OOOOO.XXooX..XXoXXooXooX.OOOOOOO",
"OOOO.XooXXoX.XoX..XXoXXoX.OOOOOO",
"OOO.XoXX..XoXXX.O.XoX.XoX.OOOOOO",
"OOOO.X..XXoXooXX..XoXXoXoX.OOOOO",
"OOOOO..XooX.XXooXXoX.XoXoX.OOOOO",
"OOOOO.XoXX....XXooXoX.XXoX.OOOOO",
"OOOOOO.X...XX.XoXX.XoX..XoX.OOOO",
"OOOOOOO..XXooXoX..XoXoXXoXoX.OOO",
"OOOOOOO.XooXXoXoXXoXXoXoX.XoX.OO",
"OOOOOOOO.XXXoX.XoXX.XoXX..XoX.OO",
"OOOOOOOOO.XoX..XoX.XoXoX.XoX.OOO",
"OOOOOOOOOO.X..XoXoXXoXXoXoX.OOOO",
"OOOOOOOOOOO..XoXXoX.X.XoXX.OOOOO",
"OOOOOOOOOOOOO.X..XoX.XoX..OOOOOO",
"OOOOOOOOOOOOOO.O.XoXXoX.OOOOOOOO",
"OOOOOOOOOOOOOOOOO.X..XoX.OOOOOOO",
"OOOOOOOOOOOOOOOOOO..XoX.OOOOOOOO",
"OOOOOOOOOOOOOOOOOOOO.X.OOOOOOOOO",
"OOOOOOOOOOOOOOOOOOOOO.OOOOOOOOOO",
"OOOOOOOOOOOOOOOOOOOOOOOOOOOOOOOO",
"OOOOOOOOOOOOOOOOOOOOOOOOOOOOOOOO",
"OOOOOOOOOOOOOOOOOOOOOOOOOOOOOOOO"
};
