/* XPM */
static char *fire_up_0_xpm[] = {
/* columns rows colors chars-per-pixel */
"32 32 5 1",
"  c Gray0",
". c #060036006300",
"X c #11008600fe00",
"o c #f500ed00ec00",
"O c None",
/* pixels */
"OOO.OOOOO.OOOO.OO.O.OOO.OOO.OOOO",
"OO.X.OOO.X.OO.X..X.X.O.X.O.X.OOO",
"O.XoX.O.XoX..XoXXoXoX.XoX.XoX.OO",
"O.XoX.OO.XoX.XoXXoXoX.XoX.XoX.OO",
"OO.XoX.O.XoX..XooXXXoX.XoXoX.OOO",
"OO.XoX..XoX.OO.XXooXoX.XoXoX.OOO",
"OO.XoXX.XoX...O..XXoX...XoX.OOOO",
"OOO.XooXXoXXXX..O.XoX.XXXoX.OOOO",
"OOOO.XXooXXoooXX..XoXXoooX.OOOOO",
"OOOOO..XXooXXXooXXoXooXXX.X.OOOO",
"OOOOOOO..XX...XXoooXXXX..XoX.OOO",
"OOOOOOOOO..O.XoXXXoX.XoXXoX.OOOO",
"OOOOOOOO.X.O.XoX..XoXXoXXoX.OOOO",
"OOOOOOO.XoX.XoX.O.XoXoXooX.OOOOO",
"OOOOOOO.XoXXXoXX.XoXXoXXX.OOOOOO",
"OOOOOOOO.XooXXooXXoXoX.X.OOOOOOO",
"OOOOOOOOO.XXooXXooXoX.XoX.OOOOOO",
"OOOOOOOOOO..XX..XXXoXXXoX.OOOOOO",
"OOOOOOOOOOOO..OO..XoXooX.OOOOOOO",
"OOOOOOOOOOOOOOOO.XXXoXX.OOOOOOOO",
"OOOOOOOOOOOOOOO.XooXoX.OOOOOOOOO",
"OOOOOOOOOOOOOOOO.XXoX.OOOOOOOOOO",
"OOOOOOOOOOOOOOOOO.XoX.OOOOOOOOOO",
"OOOOOOOOOOOOOOOOO.XoX.OOOOOOOOOO",
"OOOOOOOOOOOOOOOOOO.X.OOOOOOOOOOO",
"OOOOOOOOOOOOOOOOOOO.OOOOOOOOOOOO",
"OOOOOOOOOOOOOOOOOOOOOOOOOOOOOOOO",
"OOOOOOOOOOOOOOOOOOOOOOOOOOOOOOOO",
"OOOOOOOOOOOOOOOOOOOOOOOOOOOOOOOO",
"OOOOOOOOOOOOOOOOOOOOOOOOOOOOOOOO",
"OOOOOOOOOOOOOOOOOOOOOOOOOOOOOOOO",
"OOOOOOOOOOOOOOOOOOOOOOOOOOOOOOOO"
};
