/* XPM */
static char *fire_right_0_xpm[] = {
/* columns rows colors chars-per-pixel */
"32 32 5 1",
"  c Gray0",
". c #060036006300",
"X c #11008600fe00",
"o c #f500ed00ec00",
"O c None",
/* pixels */
"OOOOOOOOOOOOOOOOOOOOOOOOOOOOOOOO",
"OOOOOOOOOOOOOOOOOOOOOOOOOOOO..OO",
"OOOOOOOOOOOOOOOOOOOOOOOOO...XX.O",
"OOOOOOOOOOOOOOOOOOOOOOOO.XXXooX.",
"OOOOOOOOOOOOOOOOOOOOOOO.XoooXX.O",
"OOOOOOOOOOOOOOOOOOOOOO.XoXXX..OO",
"OOOOOOOOOOOOOOOOOOOOOO.XoX..OOOO",
"OOOOOOOOOOOOOOOOO..OO.XoX..OO.OO",
"OOOOOOOOOOOOOOOO.XX.O.XoXXX..X.O",
"OOOOOOOOOOOOOOO.XooX.XoXoooXXoX.",
"OOOOOOOOOOOOOO.XoXX..XoXXXXooX.O",
"OOOOOOOOOOOOOO.XoX.OO.XoX..XX.OO",
"OOOOOOOOOOOOO.XoXXX...XoX.O...OO",
"OOOOOOOOOOOOO.XoXooXX.XoX.O.XX.O",
"OOOOOOOOOOOOOO.XoXXooXoX.O.XooX.",
"OOOOOOOOOOO.OO.XoX.XXXoX..XoXX.O",
"OOOOOOOOOO.X..XoX.O.XoX.O.XoXX.O",
"OOOOOOOO..XoX.XoXX..XoX..XoXooX.",
"OOOOOOO.XXXoXXXXooXXoooXXXoXXX.O",
"OOOOOO.XoooXXoooXXooXXXoooXXooX.",
"OOOOOOO.XXXooXXXoXXX.XoXXXooXX.O",
"OOOOOOOO...XXoX.XooXXXoX..XX..OO",
"OOOOOOOOOOO.XoXX.XXooXXoX...XX.O",
"OOOOOOOOOOOO.XooXXoXX.XoX.XXooX.",
"OOOOOOOOOOOOO.XX.XoXX.XoXXooXX.O",
"OOOOOOOOOOOOOO..O.XooX.XooXX..OO",
"OOOOOOOOOOOOOOOOOO.XXoX.XXooXX.O",
"OOOOOOOOOOOOOOOOOOO..X.O..XXooX.",
"OOOOOOOOOOOOOOOOOOOOO.OOOO..XX.O",
"OOOOOOOOOOOOOOOOOOOOOOOOOOOO..OO",
"OOOOOOOOOOOOOOOOOOOOOOOOOOOOOOOO",
"OOOOOOOOOOOOOOOOOOOOOOOOOOOOOOOO"
};
