/* XPM */
static char *fire_down_0_xpm[] = {
/* columns rows colors chars-per-pixel */
"32 32 5 1",
"  c Gray0",
". c #060036006300",
"X c #11008600fe00",
"o c #f500ed00ec00",
"O c None",
/* pixels */
"OOOOOOOOOOOOOOOOOOOOOOOOOOOOOOOO",
"OOOOOOOOOOOOOOOOOOOOOOOOOOOOOOOO",
"OOOOOOOOOOOOOOOOOOOOOOOOOOOOOOOO",
"OOOOOOOOOOOOOOOOOOOOOOOOOOOOOOOO",
"OOOOOOOOOOOOOOOOOOOOOOOOOOOOOOOO",
"OOOOOOOOOOOOOOOOOOOOOOOOOOOOOOOO",
"OOOOOOOOOOOO.OOOOOOOOOOOOOOOOOOO",
"OOOOOOOOOOO.X.OOOOOOOOOOOOOOOOOO",
"OOOOOOOOOO.XoX.OOOOOOOOOOOOOOOOO",
"OOOOOOOOOO.XoX.OOOOOOOOOOOOOOOOO",
"OOOOOOOOOO.XoXX.OOOOOOOOOOOOOOOO",
"OOOOOOOOO.XoXooX.OOOOOOOOOOOOOOO",
"OOOOOOOO.XXoXXX.OOOOOOOOOOOOOOOO",
"OOOOOOO.XooXoX..OO..OOOOOOOOOOOO",
"OOOOOO.XoXXXoXXX..XX..OOOOOOOOOO",
"OOOOOO.XoX.XoXooXXooXX.OOOOOOOOO",
"OOOOOOO.X.XoXoXXooXXooX.OOOOOOOO",
"OOOOOO.XXXoXXoX.XXoXXXoX.OOOOOOO",
"OOOOO.XooXoXoX.O.XoX.XoX.OOOOOOO",
"OOOO.XoXXoXXoX..XoX.O.X.OOOOOOOO",
"OOOO.XoXXoX.XoXXXoX.O..OOOOOOOOO",
"OOO.XoX..XXXXoooXX...XX..OOOOOOO",
"OOOO.X.XXXooXoXXooXXXooXX..OOOOO",
"OOOOO.XoooXXoX..XXoooXXooXX.OOOO",
"OOOO.XoXXX.XoX.O..XXXXoXXooX.OOO",
"OOOO.XoX...XoXX..O...XoX.XXoX.OO",
"OOO.XoXoX.XoXooXX.OO.XoX..XoX.OO",
"OOO.XoXoX.XoXXXooX..XoX.O.XoX.OO",
"OO.XoX.XoX.XoXoXXoX.XoX.OO.XoX.O",
"OO.XoX.XoX.XoXoXXoX..XoX.O.XoX.O",
"OOO.X.O.X.O.X.X..X.OO.X.OOO.X.OO",
"OOOO.OOO.OOO.O.OO.OOOO.OOOOO.OOO"
};
