/* XPM */
static char *fire_up_0_xpm[] = {
/* columns rows colors chars-per-pixel */
"32 32 5 1",
"  c Gray0",
". c #960061001800",
"X c #d200dd00dd00",
"o c Gray100",
"O c None",
/* pixels */
"OOOOOOOOOOOOOOOOOOOOOOOOOOOOOOOO",
"OOOOOOOOOOOOOO  OOOOOOOOOOOOOOOO",
"OOOOOOOOOOOOO    OOOOOOOOOOOOOOO",
"OOOOOOOOOOOOO oo OOOOOOOOOOOOOOO",
"OOOOOOOOOOOOO oo OOOOOOOOOOOOOOO",
"OOOOOOOOOOOOO oo OOOOOOOOOOOOOOO",
"OOOOOOOOOOOOO oo OOOOOOOOOOOOOOO",
"OOOOOOOOOOOOO oo OOOOOOOOOOOOOOO",
"OOOOOOOOOOOOO oo OOOOOOOOOOOOOOO",
"OOOOOOOOOOOOO oo OOOOOOOOOOOOOOO",
"OOOOOOOOOOOOO oo OOOOOOOOOOOOOOO",
"OOOOOOOOOOOOO oo OOOOOOOOOOOOOOO",
"OOOOOOOOOOOOO oo OOOOOOOOOOOOOOO",
"OOOOOOOOOOOOO oo OOOOOOOOOOOOOOO",
"OOOOOOOOOOOOO oo OOOOOOOOOOOOOOO",
"OOOOOOOOOOOOO oo OOOOOOOOOOOOOOO",
"OOOOOOOOOOOOO oo OOOOOOOOOOOOOOO",
"OOOOOOOOOOOOO oo OOOOOOOOOOOOOOO",
"OOOOOOOOOOOOO oo OOOOOOOOOOOOOOO",
"OOOOOOOOOOOOO oo OOOOOOOOOOOOOOO",
"OOOOOOOOOOOOO oo OOOOOOOOOOOOOOO",
"OOOOOOOOOO  O oo O  OOOOOOOOOOOO",
"OOOOOOOOOO          OOOOOOOOOOOO",
"OOOOOOOOOOOOO .. OOOOOOOOOOOOOOO",
"OOOOOOOOOOOOO .. OOOOOOOOOOOOOOO",
"OOOOOOOOOOOOO .. OOOOOOOOOOOOOOO",
"OOOOOOOOOOOOO .. OOOOOOOOOOOOOOO",
"OOOOOOOOOOOOO .. OOOOOOOOOOOOOOO",
"OOOOOOOOOOOOO .. OOOOOOOOOOOOOOO",
"OOOOOOOOOOOOXXXXXXOOOOOOOOOOOOOO",
"OOOOOOOOOOOOOXXXXOOOOOOOOOOOOOOO",
"OOOOOOOOOOOOOOOOOOOOOOOOOOOOOOOO"
};
