/* XPM */
static char *fire_down_0_xpm[] = {
/* columns rows colors chars-per-pixel */
"32 32 5 1",
"  c Gray0",
". c #960061001800",
"X c #d200dd00dd00",
"o c Gray100",
"O c None",
/* pixels */
"OOOOOOOOOOOOOXXXXOOOOOOOOOOOOOOO",
"OOOOOOOOOOOOXXXXXXOOOOOOOOOOOOOO",
"OOOOOOOOOOOOO .. OOOOOOOOOOOOOOO",
"OOOOOOOOOOOOO .. OOOOOOOOOOOOOOO",
"OOOOOOOOOOOOO .. OOOOOOOOOOOOOOO",
"OOOOOOOOOOOOO .. OOOOOOOOOOOOOOO",
"OOOOOOOOOOOOO .. OOOOOOOOOOOOOOO",
"OOOOOOOOOOOOO .. OOOOOOOOOOOOOOO",
"OOOOOOOOOOOOO .. OOOOOOOOOOOOOOO",
"OOOOOOOOO            OOOOOOOOOOO",
"OOOOOOOOO  OO oo OO  OOOOOOOOOOO",
"OOOOOOOOOOOOO oo OOOOOOOOOOOOOOO",
"OOOOOOOOOOOOO oo OOOOOOOOOOOOOOO",
"OOOOOOOOOOOOO oo OOOOOOOOOOOOOOO",
"OOOOOOOOOOOOO oo OOOOOOOOOOOOOOO",
"OOOOOOOOOOOOO oo OOOOOOOOOOOOOOO",
"OOOOOOOOOOOOO oo OOOOOOOOOOOOOOO",
"OOOOOOOOOOOOO oo OOOOOOOOOOOOOOO",
"OOOOOOOOOOOOO oo OOOOOOOOOOOOOOO",
"OOOOOOOOOOOOO oo OOOOOOOOOOOOOOO",
"OOOOOOOOOOOOO oo OOOOOOOOOOOOOOO",
"OOOOOOOOOOOOO oo OOOOOOOOOOOOOOO",
"OOOOOOOOOOOOO oo OOOOOOOOOOOOOOO",
"OOOOOOOOOOOOO oo OOOOOOOOOOOOOOO",
"OOOOOOOOOOOOO oo OOOOOOOOOOOOOOO",
"OOOOOOOOOOOOO oo OOOOOOOOOOOOOOO",
"OOOOOOOOOOOOO oo OOOOOOOOOOOOOOO",
"OOOOOOOOOOOOO oo OOOOOOOOOOOOOOO",
"OOOOOOOOOOOOO oo OOOOOOOOOOOOOOO",
"OOOOOOOOOOOOO    OOOOOOOOOOOOOOO",
"OOOOOOOOOOOOOO  OOOOOOOOOOOOOOOO",
"OOOOOOOOOOOOOOOOOOOOOOOOOOOOOOOO"
};
