/* XPM */
static char *fire_up_0_xpm[] = {
/* columns rows colors chars-per-pixel */
"32 32 4 1",
"  c Gray0",
". c #7e0073007100",
"X c #820076007600",
"o c None",
/* pixels */
"oooooooooooooooooooooooooooooooo",
"oooooooooooooooooooooooooooooooo",
"oooooooooooooooooooooooooooooooo",
"ooooooooooooo       oooooooooooo",
"oooooooooooo  .....  ooooooooooo",
"ooooooooooo  ....... ooooooooooo",
"ooooooooooo ........ ooooooooooo",
"ooooooooooo ........ ooooooooooo",
"ooooooooooo ........ ooooooooooo",
"oooooooo     ......  ooooooooooo",
"ooooooo  .    ....  oooooooooooo",
"oooooo   ...   ..   oooooooooooo",
"oooooo .  .. ......     oooooooo",
"oooooo ..... ......  ..  ooooooo",
"oooooo  ........... ....  oooooo",
"ooooooo    ..............  ooooo",
"ooooooooo  ...............  oooo",
"ooooooooo     ......   ....  ooo",
"ooooooooooooo ..... oo  .... ooo",
"ooooooooooooo ..... ooo ....   o",
"oooooooooooo  .....  o  .. .   o",
"ooooooooooo  ... ... o . .. XX  ",
"ooooooooooo ...   .. o .   XX X ",
"oooooooooo  ..    ..    XXXXXXX ",
"oooooooooo ..  oo ... o X XXX   ",
"oooooooo   ..  oo ...    XXXXX o",
"ooooooo  .... ooo .....   X XX o",
"ooooooo ..... ooo  ...  o XXX  o",
"ooooooo  ...  oooo     oo     oo",
"oooooooo     ooooooooooooooooooo",
"oooooooooooooooooooooooooooooooo",
"oooooooooooooooooooooooooooooooo"
};
