/* XPM */
static char *move_left_0_xpm[] = {
/* columns rows colors chars-per-pixel */
"32 32 4 1",
"  c Gray0",
". c #7e0073007100",
"X c #820076007600",
"o c None",
/* pixels */
"oooooooooooooooooooooooooooooooo",
"ooooooooooooooooooooooooo     oo",
"ooooooooooooooooooooooooo XXX  o",
"oooooooooooooo       ooo  X XX o",
"ooooooooooooo  .....  o  XXXXX o",
"oooooooooooo    ..... o X XXX   ",
"ooo   oooooo .  ..... o XXXXXXX ",
"oo  .   oooo ........ o.   XX X ",
"o  .... oooo ........ o. .. XX  ",
"o ..... oooo   ....    ... .   o",
"o .....  oooo  ...  o  .....   o",
"o  ..... ooo  .... o   ..... ooo",
"oo    ...    .....     ....  ooo",
"ooooo ....................  oooo",
"ooooo  ..................  ooooo",
"oooooo  ...... ... .....  oooooo",
"ooooooo  ....  ... ....  ooooooo",
"oooooooo      ....      oooooooo",
"ooooooooooooo ..... oooooooooooo",
"ooooooooooooo ..... oooooooooooo",
"oooooooooooo ....... ooooooooooo",
"ooooooooooo  ....... ooooooooooo",
"oooooooooo  ..   ... ooooooooooo",
"oooooooooo ... o  ..  oooooooooo",
"ooooooooo  .. ooo ... oooooooooo",
"ooooooooo ..  ooo  .. oooooooooo",
"ooooooo   .. ooooo ..  ooooooooo",
"oooooo  .... ooooo ... ooooooooo",
"oooooo ..... ooooo ...   ooooooo",
"oooooo  ...  ooooo ..... ooooooo",
"ooooooo     oooooo  ...  ooooooo",
"ooooooooooooooooooo     oooooooo"
};
