/* XPM */
static char *move_left_0_xpm[] = {
/* columns rows colors chars-per-pixel */
"32 32 5 1",
"  c Gray0",
". c #1d009b003f00",
"X c #d200dd00dd00",
"o c Gray100",
"O c None",
/* pixels */
"OOOXOOOOOOOOOOOOOOOOOOOOOOOOOOOO",
"OOOOXOOOOOO OOOOOOOOOOOOOOOOOOOO",
"OOOOOXOOOO   OOOOOOOOOOOOOOOOOOO",
"OOOOOOXX     OOOOOOOOOOOOOOOOOOO",
"OOOOOOOX      OOOOOOOOOOOOOOOOOO",
"OOOOOOO  oo      OOOOOOOOOOOOOOO",
"OOOOOO   .o    OOOOOOOOOOOOOOOOO",
"OOOOO  o..o      OOOOOOOOOOOOOOO",
"OOOO  oooo         OOOOOOOOOOOOO",
"OOO  ooooo      OOOOOOOOOOOOOOOO",
"OOO  o o   o  o   OOOOOOOOOOOOOO",
"OOOO      oo oooo    OOOOOOO   O",
"OOOOO   O   ooooooo   OOOOO     ",
"OOOOOOO   ooooooooooo   OO      ",
"OOOO    o oo oooooooooo         ",
"OOO  ooo     oooo ooooooo    OO ",
"OOO oo     ooooo  ooooooooo  OOO",
"OO     OO  ooo    oooooo  oo  OO",
"OOO   OOOO o   OO  oooo  oooo OO",
"OOOO OOOOO  o OOO     o ooooo OO",
"OOOOOOOOOOO o OOOOO o    oooo OO",
"OOOOOOOOOOO  X OOOO  o O ooo  OO",
"OOOOOOOOOOO oo OOOOO o  ooo  OOO",
"OOOOOOOOOOO X  OOOO      o  OOOO",
"OOOOOOOOO  oo OOOO    O  o OOOOO",
"OOOOOOOOO     OOOO   OO     OOOO",
"OOOOOOOOOO  OOOOOOO  OO  oo OOOO",
"OOOOOOOOOOOOOOOOOOOOOOOO o  OOOO",
"OOOOOOOOOOOOOOOOOOOOOOOO o OOOOO",
"OOOOOOOOOOOOOOOOOOOOOOOO    OOOO",
"OOOOOOOOOOOOOOOOOOOOOOOO    OOOO",
"OOOOOOOOOOOOOOOOOOOOOOOOOOOOOOOO"
};
