/* XPM */
static char *move_down_0_xpm[] = {
/* columns rows colors chars-per-pixel */
"32 32 4 1",
"  c Gray0",
". c #d200dd00dd00",
"X c Gray100",
"o c None",
/* pixels */
"ooooooooooooooo oooooooooooooooo",
"ooooooooooooo    ooooooooooooooo",
"oooooooooooooo    oooooooooooooo",
"ooooooooooooooo   oooooooooooooo",
"oooooooooooooooo  oooooooooooooo",
"ooooooooooooo      ooooooooooooo",
"oooooooooooo  ..    oooooooooooo",
"oooooooooooo XX  .X  ooooooooooo",
"oooooooooooo XX.X.XX ooooooooooo",
"oooooooooooo  X.X..X ooooooooooo",
"ooooooooooooo ..XX.X ooooooooooo",
"ooooooooooooo .XXX.  ooooooooooo",
"ooooooooooooo XXXXX oooooooooooo",
"ooooooooooooo XXXXX oooooooooooo",
"ooooooooooooo XXXXX  ooooooooooo",
"ooooooooooooo XXXXXX ooooooooooo",
"oooooooooooo  XXXXXX ooooooooooo",
"oooooooooooo ..XXXX. ooooooooooo",
"ooooooooooo  X.  X.. ooooooooooo",
"ooooooooooo  X.  ..X ooooooooooo",
"ooooooooooo  X    XX ooooooooooo",
"ooooooooooo  X    XX ooooooooooo",
"oooooooooooo X    X  ooooooooooo",
"oooooooooooo        oooooooooooo",
"ooooooooooooo       oooooooooooo",
"ooooooooooooo      ooooooooooooo",
"ooooooooooooo X  X ooooooooooooo",
"ooooooooooooo XXX oooooooooooooo",
"ooooooooooooo  .  oooooooooooooo",
"oooooooooooooo . ooooooooooooooo",
"ooooooooooooooo.oooooooooooooooo",
"ooooooooooooooo.oooooooooooooooo"
};
