/* XPM */
static char *fire_any_0_xpm[] = {
/* columns rows colors chars-per-pixel */
"32 32 4 1",
"  c Gray0",
". c #820076007600",
"X c #800080008000",
"o c None",
/* pixels */
"oooooooooooooooooooooooooooooooo",
"oooooooooooooooooooooooooooooooo",
"oooooooooooooooooooooooooooooooo",
"oooooooooooooooooooooooooooooooo",
"oooooooooooooooooooooooooooooooo",
"oooooooooooooooooooooooooooooooo",
"oooooooooooooooooooooooooooooooo",
"oooooooooooooooooooooooooooooooo",
"oooooooooooooX      Xooooooooooo",
"ooooooooooooo  ....  ooooooooooo",
"oooooooooooX  .. ...  oooooooooo",
"oooooooooX        ..  oooooooooo",
"ooooooooo  .  .. .    Xooooooooo",
"ooooooooo .  ..... . . ooooooooo",
"ooooooooo .... .. .... Xoooooooo",
"ooooooooo   ... . .   . oooooooo",
"oooooooooX ..... ... .  oooooooo",
"oooooooooo .. . ....   ooooooooo",
"oooooooooo  .....  .. Xooooooooo",
"ooooooooooX   ..  ..  oooooooooo",
"ooooooooooooX ...... Xoooooooooo",
"ooooooooooooo  ....  ooooooooooo",
"oooooooooooooX      Xooooooooooo",
"oooooooooooooooooooooooooooooooo",
"oooooooooooooooooooooooooooooooo",
"oooooooooooooooooooooooooooooooo",
"oooooooooooooooooooooooooooooooo",
"oooooooooooooooooooooooooooooooo",
"oooooooooooooooooooooooooooooooo",
"oooooooooooooooooooooooooooooooo",
"oooooooooooooooooooooooooooooooo",
"oooooooooooooooooooooooooooooooo"
};
