/* XPM */
static char *fire_any_0_xpm[] = {
/* columns rows colors chars-per-pixel */
"32 32 10 1",
"  c Gray0",
". c #820010001000",
"X c #e5000b000b00",
"o c #e2000f002f00",
"O c #e00070000000",
"+ c #dd0046004300",
"@ c #d30082000800",
"# c #f700bb007600",
"$ c #f400e9001600",
"% c None",
/* pixels */
"%%%%%%%%%%%%%%%%%%%%%%%%%%%%%%%%",
"%%%%%%%%%%%%%%%%%%%%%%%%%%%%%%%%",
"%%%%%%%%%%%%$%%%%%%%%%%%%%%%%%%%",
"%%%%%%%%%%%%$%%%$%%%%%%%%%%%%%%%",
"%%%%%%$%%%%%$$$$$%%%%%%%%%%%%%%%",
"%%%%%%$$%%%%$$$#%%%%%%%$$%%%%%%%",
"%%%%%%$$$%%$$@@#$$%%%$$$%%%%%%%%",
"%%%%%%$$$$$$$@@##$$$$$$$%%%%%%%%",
"%%%%%%$$$$$#$@@###$$$@@%%%%%%%%%",
"%%%%%%$@@@####@@@###@@@%%%%%%%%%",
"%%%%%$$$@@@@@@@OO@@@@#$%%$$$$%%%",
"%%%%%$%$#@OO@ooOoo@@@@$%$$%%%%%%",
"%%$$%$$$#@OOooXXXXXOO@$$$%%%%%%%",
"%%%$$$$##@@OOXX..++O@@$%@@%%%%%%",
"%%$$$$$#@@@@X......X@@@@@$%%%%%%",
"%%%%$$$#@@@@X+.....XXO@@@$%%%%%%",
"%%%$$$@@@OOXX.XX...XOO@@@$$%%%%%",
"%%%$$$$@OOOXXXX...XXO@@#$$$%%%%%",
"%%$$%%@@@@@OXX...XXXX@###$$$%%%%",
"%%%%%%$$##@OXXXXXXXXO@@##$%$%%%%",
"%%%%%%$$$@@@@@@XOOX@OO@@$$%$$$%%",
"%%%%%$$$$$###@@@@O@@#@@@$$%%$$%%",
"%%%%%$$%%%$$@@@@@@@##$$@@$%%%%%%",
"%%%%%%$%%%%$#@$##@@#$$%$$$%%%%%%",
"%%%%$$$%%%%$#$$$$@@$$%$$$$%%%%%%",
"%%%%%%%%%%%$$$%%$@@%%%$%$$%%%%%%",
"%%%%%%%%%$$$$%%%%$$%%%%%%$$%%%%%",
"%%%%%%%%$$%%%%%%%$$%%%%%%%$%%%%%",
"%%%%%%%%$%%%%%%%%$$%%%%%%%%%%%%%",
"%%%%%%%%%%%%%%%%%%$%%%%%%%%%%%%%",
"%%%%%%%%%%%%%%%%%%%%%%%%%%%%%%%%",
"%%%%%%%%%%%%%%%%%%%%%%%%%%%%%%%%"
};
