/* XPM */
static char *fire_downleft_0_xpm[] = {
/* columns rows colors chars-per-pixel */
"32 32 3 1",
"  c Gray0",
". c #890087008400",
"X c None",
/* pixels */
"XX XXXX    XXXXXXXXXXX   X XXXXX",
"XX     XX  XXXXXXXXXX  XX   XXXX",
"XX .XXXX  X XXXXXXXX  XXXX X  XX",
"X  XXXX  XX XXXXXXX XXXXX XXXX  ",
"XX XXX  XXXX XXXXX XXXXX XXXXX X",
"XX XX  XXXXX XXXX XXXXXX XXXX  X",
"XXX   XXXXXX       XXXX XXXXX XX",
"XXX  XXXXXX  XX XX   X XXXXX XXX",
"XXXX   XXX  XXX XXXXX    XX  XXX",
"XXXXXX     XXXX XXXXXX X    XXXX",
"XXXXXXXXXX XXXX XXXXX XX XX XXXX",
"XXXXXXXXXX XXXX XXXX XXX XX XXXX",
"XXXXXXXXXX  XXX XXX XXXX XXX XXX",
"XXXXXXXXXXX XXX XXX XXXX XXX  XX",
"XXXXXXXXXXXX XX XX XXXXX XXXX XX",
"XXXXXXXXXXXXX X X XXXXXX XXXX   ",
"XXXXXXXXXXXXXX   XXXXXX XXXXX XX",
"XXXXXXXXXXXXXXX  XXXXXX XXXX XXX",
"XXXXXXXXXXXXXXXXX  XXXX XXX  XXX",
"XXXXXXXXXXXXXXXXXXX XXX XX  XXXX",
"XXXXXXXXXXXXXXXXXXX  XX   X XXXX",
"XXXXXXXXXXXXXXXXXXXXX X  XX XXXX",
"XXXXXXXXXXXXXXXXXXXXX   XXX XXXX",
"XXXXXXXXXXXXXXXXXXXXX  XXXXX XXX",
"XXXXXXXXXXXXXXXXXXXXX XXXXXX XXX",
"XXXXXXXXXXXXXXXXXXXXXX  XXXX XXX",
"XXXXXXXXXXXXXXXXXXXXXXXX XXX    ",
"XXXXXXXXXXXXXXXXXXXXXXXXX  X XXX",
"XXXXXXXXXXXXXXXXXXXXXXXXXXX  XXX",
"XXXXXXXXXXXXXXXXXXXXXXXXXXXX XXX",
"XXXXXXXXXXXXXXXXXXXXXXXXXXXX XXX",
"XXXXXXXXXXXXXXXXXXXXXXXXXXXXX XX"
};
