/* XPM */
static char *elem_water_0_xpm[] = {
/* columns rows colors chars-per-pixel */
"32 32 4 1",
"  c Gray0",
". c #09004e008e00",
"X c #11008600fe00",
"o c None",
/* pixels */
"oooooooooooooooooooooooooooooooo",
"oooooooooooooooooooooooooooooooo",
"oooooooooooooooooooooooooooooooo",
"oooooooooooooooooooooooooooooooo",
"oooooooooooooooooooooooooooooooo",
"oooooooooooooooooooooooooooooooo",
"oooooooooooooooooooooooooooooooo",
"oooooooooooooooooooooooooooooooo",
"oooooooooooooooooooooooooooooooo",
"oooooooooooooooooooooooooooooooo",
"oooooo.oooooooo....ooooooooooooo",
"ooo.....oooooo........oooooooooo",
"ooo.............XX.....ooooooooo",
"oo...XXX......XXXXX......ooooooo",
"o...XXXXX...XXXXXXXXXX...ooooooo",
"o..XXXXXXXXXXXXXXXXXXXX...oooooo",
"o..XXXXXXXXXXXXXXXXXXXXX...ooooo",
"o..XXXXXXXXXXXXXX...XXXXX...oooo",
"o..XXXXXXXXXXXX.....XXXXXX..oooo",
"o..XXXXXXX...........XXXXX..oooo",
"o...XXXX.............XXXX...oooo",
"oo..........oo.............ooooo",
"ooo.......oooooooo.......ooooooo",
"ooooooooooooooooooo.oooooooooooo",
"oooooooooooooooooooooooooooooooo",
"oooooooooooooooooooooooooooooooo",
"oooooooooooooooooooooooooooooooo",
"oooooooooooooooooooooooooooooooo",
"oooooooooooooooooooooooooooooooo",
"oooooooooooooooooooooooooooooooo",
"oooooooooooooooooooooooooooooooo",
"oooooooooooooooooooooooooooooooo"
};
