/* XPM */
static char *elem_water_8_xpm[] = {
/* columns rows colors chars-per-pixel */
"32 32 4 1",
"  c Gray0",
". c #09004e008e00",
"X c #11008600fe00",
"o c None",
/* pixels */
"oooooooooooooooooooooooooooooooo",
"oooooooooooooooooooooooooooooooo",
"oooooooooooooooooooooooooooooooo",
"oooooooooooooooooooooooooooooooo",
"oooooooooooooooooooooooooooooooo",
"oooooooooooooooooooooooooooooooo",
"oooooooooooooooooooooooooooooooo",
"oooooooooooooooooooooooooooooooo",
"oooooooo....oooooooooooooooooooo",
"ooooooo........ooooooooooooooooo",
"ooooo..XXXXXXX...oooooooo.....oo",
"oooo..XXXXXXXXXX..oooooo..X....o",
"ooo..XXXXXXXXXXXX....oo..XXXX...",
"ooo..XXXXXXXXXXXXXXX....XXXXXX..",
"ooo..XXXXXXXXXXXXXXXXXXXXXXXXX..",
"ooo..XXXXXXXXXXXXXXXXXXXXXXXXX..",
"ooo..XXXXXXXXXX...XXXXXXXXXXXX..",
"ooo..XXXXXXX....o...XXXXXXXXXX..",
"ooo..XXXXX...ooooooo...XXXXXX...",
"oooo..XXXX..ooooooooo..........o",
"ooooo......ooooooooooo........oo",
"oooooooooooooooooooooooooooooooo",
"oooooooooooooooooooooooooooooooo",
"oooooooooooooooooooooooooooooooo",
"oooooooooooooooooooooooooooooooo",
"oooooooooooooooooooooooooooooooo",
"oooooooooooooooooooooooooooooooo",
"oooooooooooooooooooooooooooooooo",
"oooooooooooooooooooooooooooooooo",
"oooooooooooooooooooooooooooooooo",
"oooooooooooooooooooooooooooooooo",
"oooooooooooooooooooooooooooooooo"
};
