/* XPM */
static char *fire_downright_0_xpm[] = {
/* columns rows colors chars-per-pixel */
"32 32 19 1",
"  c Gray0",
". c #e00070000000",
"X c #dd0046004300",
"o c #d30082000800",
"O c #cb0093003b00",
"+ c #e200b1003c00",
"@ c #db00a6006700",
"# c #e200bf004300",
"$ c #f700bb007600",
"% c #f400e9001600",
"& c #f100f9000900",
"* c #f000dd004900",
"= c #c60090008b00",
"- c #d300ae009c00",
"; c #d900b800a600",
": c #e700cb00c000",
"> c #fd00d600c200",
", c Gray100",
"< c None",
/* pixels */
"<<<<<<<<<<<<<<<<<<<<<<<<<<<<<<<<",
"<<<<<<<<<<<<<<<<<<<<<<<<<<<<<<<<",
"<<<<<<<<<<<<<<<<<<<<<<<<<<<<<<<<",
"<<<<<<<<<<<<<<<<<<<<<<<<<<<<<<<<",
"<<<<<<<<<<<<<<<<<<<<<<<<<<<<<<<<",
"<<<<<<<;@<<<<<<<<<<<<<<<<<<<<<<<",
"<<<<<.<:<<<<<<<<<<<<<<<<<<<<<<<<",
"<<<<<<<>XX<<<<<<<<<<<<<<<<<<<<<<",
"<<<<<<@<<.@<<<<<<<<<<<<<<<<<<<<<",
"<<<<<<<<<<;$X<<<<<<<<<<<<<<<<<<<",
"<<<<<<<<<<<<.X<<<<<<<<<<<<<<<<<<",
"<<<<<<<@<<<<$oX<<<<<<<<<<<<<<<<<",
"<<<<<<<<<<<<@*#<<<@<<<<<<<<<<<<<",
"<<<<<<<<<<<X<<%&:<<<<<<<<<<<<<<<",
"<<<<<<<<<<<#<<<&%<@<<<<<<<<<<<<<",
"<<<<<<<<<<<<<<<$&$.<<<<<<<<<<<<<",
"<<<<<<<<<<<<<<<<-&*X=<<<<<<<<<<<",
"<<<<<<<<<<<<<<<<<<&+XXX<<<<<<<<<",
"<<<<<<<<<<<<<<<<X<$*+<.<<<<<<<<<",
"<<<<<<<<<<<<<<<<<<<X%%$..X<<<<<<",
"<<<<<<<<<<<<<<<<<X<<<%%#$.X<<<<<",
"<<<<<<<<<<<<<<<<<X<<+#%,%$X<<<<<",
"<<<<<<<<<<<<<<<<<<X<XO&,%+X<<<<<",
"<<<<<<<<<<<<<<<<<<<<<<.*$.<<<<<<",
"<<<<<<<<<<<<<<<<<<<<<<<<X<<<<<<<",
"<<<<<<<<<<<<<<<<<<<<<<X<X<X<<<<<",
"<<<<<<<<<<<<<<<<<<<<<<<<<<<<<<<<",
"<<<<<<<<<<<<<<<<<<<<<<<<<<<<<<<<",
"<<<<<<<<<<<<<<<<<<<<<<<<<<<<<<<<",
"<<<<<<<<<<<<<<<<<<<<<<<<<<<<<<<<",
"<<<<<<<<<<<<<<<<<<<<<<<<<<<<<<<<",
"<<<<<<<<<<<<<<<<<<<<<<<<<<<<<<<<"
};
