/* XPM */
static char *fire_downleft_0_xpm[] = {
/* columns rows colors chars-per-pixel */
"32 32 24 1",
"  c Gray0",
". c #7a0051002500",
"X c #7a0069006200",
"o c #960061001800",
"O c #990073004900",
"+ c #b10075006e00",
"@ c #e00070000000",
"# c #dd0046004300",
"$ c #82002d008000",
"% c #bf004100bb00",
"& c #b50089005600",
"* c #d30082000800",
"= c #cb0093003b00",
"- c #e200b1003c00",
"; c #db00a6006700",
": c #e200bf004300",
"> c #f700bb007600",
", c #f400e9001600",
"< c #f100f9000900",
"1 c #f000dd004900",
"2 c #c60090008b00",
"3 c #d900b800a600",
"4 c Gray100",
"5 c None",
/* pixels */
"55555555555555555555555555#55555",
"55555555555555555555555555$55555",
"55555555555555555555555.X5555555",
"55555555555555555555+55553-35555",
"5555555555555555555555555#525555",
"55555555555555555555555.##555555",
"5555555555555555555555X2o5555555",
"5555555555555555555555;&55555555",
"5555555555555555=#5555;555555555",
"5555555555555555552;;@#555555555",
"555555555555555555->@#5555555555",
"55555555555555555=:=#55555555555",
"55555555555555555<=o555555555555",
"55555555555555&1<<55555555555555",
"55555555555%5;1<1355555555555555",
"5555555##555511O5555555555555555",
"555555$5555;:1-*+5O5555555555555",
"5555555555O::;o.5555555555555555",
"555555555o;:-#555555555555555555",
"55555$@;5::=#*555555555555555555",
"55555o*:,,&5#5555555555555555555",
"55$5@:,,,:=##5555555555555555555",
"5555=,<41;@555555555555555555555",
"5555:1<,:@$555555555555555555555",
"55##;1,,>@$555555555555555555555",
"5555#*>;@#$555555555555555555555",
"55#55$###55555555555555555555555",
"55555555555555555555555555555555",
"55555555555555555555555555555555",
"55555555555555555555555555555555",
"55555555555555555555555555555555",
"55555555555555555555555555555555"
};
