/* XPM */
static char *fire_left_0_xpm[] = {
/* columns rows colors chars-per-pixel */
"32 32 11 1",
"  c Gray0",
". c #dd0046004300",
"X c #db00a6006700",
"o c #e200bf004300",
"O c #f700bb007600",
"+ c #f100f9000900",
"@ c #d300ae009c00",
"# c #e700cb00c000",
"$ c #fd00d600c200",
"% c Gray100",
"& c None",
/* pixels */
"&&&&&&&&&&&&&&&&&&&&&&&&&&&&&&&&",
"&&&&&&&&&&&&&&&&&&&&&&&&&&&&&&&&",
"&&&&&&&&&&&&&&&&&&&&&&&&&&&&&&&&",
"&&&&&&&&&&&&&&&&&&&&&&&&&&&&&&&&",
"&&&&&&&&&&&&&&&&&&&&&&&&&&&&&&&&",
"&&&&&&&&&&&&&&&&&&&&&&&&&&&&&&&&",
"&&&&&&&&&&&&&&&&&&&&&&&&&&&&&&&&",
"&&&&&&&&&&&&&&&&&&&&&&&&&&&&&&&&",
"&&&&&&&&&&&&&&&&&&&&&&&&&&&&&&&&",
"&&&&&&&&&&&&&&&&&&&&&&&&&&&&&&&&",
"&&&&&&&&&&&&&&&&&&&&&&&&&&&&&&&&",
"&&&&&&&.&&&.&&&&&&&&&X&&&&&&&&&&",
"&&&&&...&&.&&o&&&X&&&&&&&&.&&X&&",
"&&.&.&XX.X..X&&@&&&&&&&&&&&&&&.&",
"&&&&Xo++oo&...O.&#&&....&#&&&X&&",
"&&.&.+%%+++++++++++++Xo&OX..&#&X",
"&&&&.o++oo&.X$&X&$&X&X&#&&O&O&o&",
"&&&.&&.&.X&&&&.&&&&&&.&&o&&&X&.&",
"&&&&&.&o&&&..&&&&&&&o&&&&&&&&&&&",
"&&&&&&&&&...&&&&X&&&&&&&&X&&&&&&",
"&&&&&&&&&&&&&&&&&&&&&&&&&&&&&&&&",
"&&&&&&&&&&&&&&&&&&&&&&&&&&&&&&&&",
"&&&&&&&&&&&&&&&&&&&&&&&&&&&&&&&&",
"&&&&&&&&&&&&&&&&&&&&&&&&&&&&&&&&",
"&&&&&&&&&&&&&&&&&&&&&&&&&&&&&&&&",
"&&&&&&&&&&&&&&&&&&&&&&&&&&&&&&&&",
"&&&&&&&&&&&&&&&&&&&&&&&&&&&&&&&&",
"&&&&&&&&&&&&&&&&&&&&&&&&&&&&&&&&",
"&&&&&&&&&&&&&&&&&&&&&&&&&&&&&&&&",
"&&&&&&&&&&&&&&&&&&&&&&&&&&&&&&&&",
"&&&&&&&&&&&&&&&&&&&&&&&&&&&&&&&&",
"&&&&&&&&&&&&&&&&&&&&&&&&&&&&&&&&"
};
