/* XPM */
static char *fire_upright_0_xpm[] = {
/* columns rows colors chars-per-pixel */
"32 32 28 1",
"  c Gray0",
". c #7a0051002500",
"X c #7a0069006200",
"o c #820010001000",
"O c #960061001800",
"+ c #990073004900",
"@ c #b10075006e00",
"# c #e00070000000",
"$ c #dd0046004300",
"% c #82002d008000",
"& c #bf004100bb00",
"* c #b50089005600",
"= c #d30082000800",
"- c #cb0093003b00",
"; c #e200b1003c00",
": c #db00a6006700",
"> c #e200bf004300",
", c #f700bb007600",
"< c #f400e9001600",
"1 c #f100f9000900",
"2 c #f000dd004900",
"3 c #890080008000",
"4 c #b500a400a200",
"5 c #c60090008b00",
"6 c #d900b800a600",
"7 c #f500ed00ec00",
"8 c Gray100",
"9 c None",
/* pixels */
"99999999999999999999999999999999",
"99999999999999999999999999999999",
"99999999999999999999999999999999",
"999999999999999999999$$$&99$9999",
"99999999999999999999$#,;:$999999",
"99999999999999999999#:<<2:$$9999",
"99999999999999999999=,172;999999",
"9999999999999999999O-2812;999999",
"99999999999999999$$-><<1>O9$9999",
"99999999999999999$9+<<>=O9999999",
"9999999999999999#$->>9:#&9999999",
"9999999999999999#->;O99999999999",
"999999999999999.-2>=999999999999",
"99999999999@9@=:2>49999%o9999999",
"99999999999999*>29999$$999999999",
"999999999999,<1<59$9999999999999",
"9999999999991<2-9999999999999999",
"99999999999+13X99999999999999999",
"999999999$=2-9999999999999999999",
"99999999$#;>99999999999999999999",
"9999999$#::*99999999999999999999",
"999999959999$;999999999999999999",
"999999@:999999999999999999999999",
"99999O5+999999999999999999999999",
"9999$$.9999999999999999999999999",
"9959$999999999999999999999999999",
"99,6,9999*.999999999999999999999",
"99999X99999999999999999999999999",
"99999999999999999999999999999999",
"999$9999999999999999999999999999",
"99999999999999999999999999999999",
"99999999999999999999999999999999"
};
