/* XPM */
static char *move_up_0_xpm[] = {
/* columns rows colors chars-per-pixel */
"32 32 7 1",
"  c Gray0",
". c #e5000b000b00",
"X c #e2000f002f00",
"o c #e00070000000",
"O c #f700bb007600",
"+ c #f400e9001600",
"@ c None",
/* pixels */
"@@@@@@@@@@@@@@XX@@@@@@@@@@@@@@@@",
"@@@@@@@@@@@@@@XX @@@@@@@@@@@@@@@",
"@@@@@@@@@@@@@ XXX @@@@@@@@@@@@@@",
"@@@@@@@@@@@@  ooo @@@@@@@@@@@@@@",
"@@@@@@@@@@@@ ++o+  @@@@@@@@@@@@@",
"@@@@@@@@@@@  +o.++ @@@@@@@@@@@@@",
"@@@@@@@@@@@ ++o.o+  @@@@@@@@@@@@",
"@@@@@@@@@@@ +o..o+  @@@@@@@@@@@@",
"@@@@@@@@@@@  o...o @@@@@@@@@@@@@",
"@@@@@@@@@@@@  ...  @@@@@@@@@@@@@",
"@@@@@@@@@@@@@ .+.  @@@@@@@@@@@@@",
"@@@@@@@@   @@ .++       @@@@@@@@",
"@@@@@@@@ .   .++.....   @@@@@@@@",
"@@@@@@@  ......+..oo... @@@@@@@@",
"@@@@@@  ..ooo..+..oooo.  @@@@@@@",
"@@@@@@ ..ooooo...ooOoo..  @@@@@@",
"@@@@@@ ..oooOo...oOOOoo.. @@@@@@",
"@@@@@  .ooo Oo..oo OOOoo. @@@@@@",
"@@@@@ ..ooO OOo.oO +OOoo. @@@@@@",
"@@@@  .ooOO OOooOO ++Ooo. @@@@@@",
"@@@  .ooOOO OOoOO+ +++Oo. @@@@@@",
"@@@ ..oOOO+  OOO++ +++Oo. @@@@@@",
"@@@ oooOO+++ +OO+  +++Oo. @@@@@@",
"@@@ ooOO+++  +OO+  +++Oo. @@@@@@",
"@@@ ooO++++  +OO+   ++Ooo. @@@@@",
"@@@ OOO+++ @ +O++ @  ++OoO @@@@@",
"@@@ OO+++  @ +O++ @@  ++OO @@@@@",
"@@  ++++  @  ++++  @@ @+OO  @@@@",
"@@ ++++  @  ++++++ @@   ++  @@@@",
"@@     @@@       + @@@@  + @@@@@",
"@@@@  @@@@  @@@     @@@@    @@@@",
"@@@@@@@@@@@@@@@@@   @@@@@@@@@@@@"
};
