/* XPM */
static char *fire_up_0_xpm[] = {
/* columns rows colors chars-per-pixel */
"32 32 15 1",
"  c Gray0",
". c #35002b003100",
"X c #3d0035003200",
"o c #3c0022005e00",
"O c #41003e003e00",
"+ c #440025006e00",
"@ c #4c002b007a00",
"# c #4f0044003e00",
"$ c #5b0033008e00",
"% c #5c0034009400",
"& c #69003b00a500",
"* c #c60090008b00",
"= c #d300ae009c00",
"- c #d900b800a600",
"; c None",
/* pixels */
";;;;;;;;;;;;;;XOX;;;;;;;;;;;;;;;",
";;;;;;;;;;;;X####OX;;;;;;;;;;;;;",
";;;;;;;;;;;;O#OO##O.;;;;;;;;;;;;",
";;;;;;;;;;;XOOOOOOOX;;;;;;;;;;;;",
";;;;;;;;;;;#OX.OOXX..;;;;;;;;;;;",
";;;;;;;;;;O#OXXXXXXX..;*;;;;;;;;",
";;;;;;;;;;O#OXXOXXXXX.@*;;;;;;;;",
";;;;;;;;;;O#OXXXXXXXX.@@;;;;;;;;",
";;;;;;;;;;O#OXXOXXXOXX+;;;;;;;;;",
";;;;;;;;;;OOXXXOXXOXXX;;;;;;;;;;",
";;;;;;;;;;XOXXXOXX#X.X;;;;;;;;;;",
";;;;;;;;;&OOXXXOXOOXX.;;;;;;;;;;",
";;;;;;;;&&#OXXOXXOOXO.;;;;;;;;;;",
";;;;;;;;&%.OX.OXXXOOO.;;;;;;;;;;",
";;;;;;;&&$.O..XX..XX..;;;;;;;;;;",
";;;;;;;&$@oo&...X...X;;;;;;;;;;;",
";;;;;;&%@+;;&@++$@+o;;;;;;;;;;;;",
";;;;;;%$++;;%@@+@@+o;;;;;;;;;;;;",
";;;;;;-*@;;;%@@+@@+o;;;;;;;;;;;;",
";;;;;;-*;;;;;@@@@@@;;;;;;;;;;;;;",
";;;;;;;;;;;;%$@@$$@+;;;;;;;;;;;;",
";;;;;;;;;;;&%@@+$@@o+;;;;;;;;;;;",
";;;;;;;;;;&&$@++$@+oo;;;;;;;;;;;",
";;;;;;;;;;&%$@++@++ooo;;;;;;;;;;",
";;;;;;;;;;&%@+++@+oooo;;;;;;;;;;",
";;;;;;;;;%&$@@+@@@+++o+;;;;;;;;;",
";;;;;;;;;&&$@@@$@@@@+oo;;;;;;;;;",
";;;;;;;;;$&$+@@@++@@@+o;;;;;;;;;",
";;;;;;;;;;$@+@$@++@@@@;;;;;;;;;;",
";;;;;;;;;;;@@@@@@@@@@;;;;;;;;;;;",
";;;;;;;;;;;;*=*;;*=*;;;;;;;;;;;;",
";;;;;;;;;;;;*=*;;*=*;;;;;;;;;;;;"
};
