/* XPM */
static char *fire_left_0_xpm[] = {
/* columns rows colors chars-per-pixel */
"32 32 5 1",
"  c Gray0",
". c #960061001800",
"X c #d200dd00dd00",
"o c Gray100",
"O c None",
/* pixels */
"OOOOOOOOOOOOOOOOOOOOOOOOOOOOOOOO",
"OOOOOOOOOOOOOOOOOOOOOOOOOOOOOOOO",
"OOOOOOOOOOOOOOOOOOOOOOOOOOOOOOOO",
"OOOOOOOOOOOOOOOOOOOOOOOOOOOOOOOO",
"OOOOOOOOOOOOOOOOOOOOO     OOOOOO",
"OOOOOOOOOOOOOOOOOOOO  XX   OOOOO",
"OOOOOOOOOOOOOOOOOOO  XXXXX OOOOO",
"OOOOOOOOOOOOOOOOOOO XXXXXX OOOOO",
"OOOOOOOOOOOOOOOOOOO    XXX OOOOO",
"OOOOOOOOOOOOOOOOOOO    XXX OOOOO",
"OOOOOOOOOOOOOOOOOOO XXXXXX OOOOO",
"OOOOOOOOOOOOOOOOOOO XXXXXX OOOOO",
"OOOOOOOOOOOO   OOOO  XX XX OOOOO",
"OOOOOOOOOOOOO  OOOOO       OOOOO",
"O                    .      OOOO",
"  ooooooooooo XXX  .... XXX OOOO",
"  ooooooooooo XX  .....  XX OOOO",
"O             X  ....... XX OOOO",
"OOOOOOOOOOOOO    ..  ... XX OOOO",
"OOOOOOOOOOOO   O  .  ...  X OOOO",
"OOOOOOOOOOOOOOOOO ....... X OOOO",
"OOOOOOOOOOOOOOOOO  ......   OOOO",
"OOOOOOOOOOOOOOOOOO  .....  OOOOO",
"OOOOOOOOOOOOOOOOOOO  ...    OOOO",
"OOOOOOOOOOOOOOOOOOO      XX  OOO",
"OOOOOOOOOOOOOOOOOOO XXX  XX  OOO",
"OOOOOOOOOOOOOOOOOO  XXXX XXX OOO",
"OOOOOOOOOOOOOOOOOO XXX    XX  OO",
"OOOOOOOOOOOOOOOOOO XX  OO  XX OO",
"OOOOOOOOOOOOOOOOO      OO     OO",
"OOOOOOOOOOOOOOOOO     OOOO    OO",
"OOOOOOOOOOOOOOOO      OOOO    OO"
};
