/* XPM */
static char *move_left_0_xpm[] = {
/* columns rows colors chars-per-pixel */
"32 32 4 1",
"  c Gray0",
". c #960061001800",
"X c #d200dd00dd00",
"o c None",
/* pixels */
"oooooooooooooooooooooooooooooooo",
"ooooooooooo oooooooooooooooooooo",
"oooooooooo X ooooooooooooooooooo",
"oooooooooo X ooo     ooooooooooo",
"oooooooooo X oo  XX   oooooooooo",
"oooooooooo X o  XXXXX oooooooooo",
"oooooooooo X o XXXXXX oooooooooo",
"oooooooooo X o    XXX oooooooooo",
"oooooooooo X o    XXX oooooooooo",
"oooooooooo X o XXXXXX oooooooooo",
"oooooooo o X o XXXXXX oooooooooo",
"oooooooo        XXXXX oooooooooo",
"ooooooooo X           oooooooooo",
"ooooooooo X .......    ooooooooo",
"ooooooooo   ....... XX ooooooooo",
"oooooooooo  ....... XX ooooooooo",
"ooooooooooo ..  ... XX ooooooooo",
"ooooooooooo ..  ... XX ooooooooo",
"ooooooooooo  ...... XX ooooooooo",
"oooooooooooo ...... XX ooooooooo",
"oooooooooooo  ....     ooooooooo",
"ooooooooooooo  ..  XX oooooooooo",
"oooooooooooooo    XXX  ooooooooo",
"oooooooooooooo     XXX  oooooooo",
"oooooooooooooo XXX  XX  oooooooo",
"ooooooooooooo  XXXX XXX oooooooo",
"ooooooooooooo XXX    XX  ooooooo",
"ooooooooooooo XX  oo  XX ooooooo",
"oooooooooooo      oo     ooooooo",
"oooooooooooo     oooo    ooooooo",
"ooooooooooo      oooo    ooooooo",
"oooooooooooooooooooooooooooooooo"
};
