/* XPM */
static char *move_down_0_xpm[] = {
/* columns rows colors chars-per-pixel */
"32 32 5 1",
"  c Gray0",
". c #960061001800",
"X c #ad00b500b500",
"o c #d200dd00dd00",
"O c None",
/* pixels */
"OOOOOOOOOOOOOOOOOOOOOOOOOOOOOOOO",
"OOOOOOOOOO OOOOOOOOOOOOOOOOOOOOO",
"OOOOOOOOO   OOOOOOOOOOOOOOOOOOOO",
"OOOOOOOOO o OOOOOOOOOOOOOOOOOOOO",
"OOOOOOOOO o OOO    OOOOOOOOOOOOO",
"OOOOOOOOO o OO  oo  OOOOOOOOOOOO",
"OOOOOOOOO o O  oooo  OOOOOOOOOOO",
"OOOOOOOOO o O oooooo OOOOOOOOOOO",
"OOOOOOOOO o O o    o OOOOOOOOOOO",
"OOOOOOOOO o O o    o OOOOOOOOOOO",
"OOOOOOOOO o O oooooo OOOOOOOOOOO",
"OOOOOOOOO o O ooooo     OOOOOOOO",
"OOOOOOOOO o O ooooo ...  OOOOOOO",
"OOOOOOOOO o O       ....  OOOOOO",
"OOOOOOO   o   oooo ...... OOOOOO",
"OOOOOOO      ooooo ..  .. OOOOOO",
"OOOOOOOO XXX ooooo ..  .. OOOOOO",
"OOOOOOOO XX  ooooo ...... OOOOOO",
"OOOOOOOO     ooooo .....  OOOOOO",
"OOOOOOOO XX        ..... OOOOOOO",
"OOOOOOOOO  O  oo    ...  OOOOOOO",
"OOOOOOOOOOOO  oo oo     OOOOOOOO",
"OOOOOOOOOOOO ooo ooo   OOOOOOOOO",
"OOOOOOOOOOOO ooo oooo OOOOOOOOOO",
"OOOOOOOOOOOO oo   ooo OOOOOOOOOO",
"OOOOOOOOOOOO o  O ooo OOOOOOOOOO",
"OOOOOOOOOOOO    O ooo OOOOOOOOOO",
"OOOOOOOOOOOO    O ooo OOOOOOOOOO",
"OOOOOOOOOOOO    O o o OOOOOOOOOO",
"OOOOOOOOOOOOOOOOO     OOOOOOOOOO",
"OOOOOOOOOOOOOOOOO     OOOOOOOOOO",
"OOOOOOOOOOOOOOOOOO    OOOOOOOOOO"
};
