/* XPM */
static char *fire_down_0_xpm[] = {
/* columns rows colors chars-per-pixel */
"32 32 6 1",
"  c Gray0",
". c #e2000f002f00",
"X c #e00070000000",
"o c #f400e9001600",
"O c Gray100",
"+ c None",
/* pixels */
"++++++++++++++++++++++++++++++++",
"++++++++++++++++++++++++++++++++",
"++++++++++++++++++++++++++++++++",
"+++++++++++++++ ++++++++++++++++",
"+++++++++++++++ ++++++++++++++++",
"+++++++++++++++.++++++++++++++++",
"+++++++++++++++.++++++++++++++++",
"++++++++++++++ . +++++++++++++++",
"+++++++++++++  X  ++++++++++++++",
"++++++++++++  .X.  +++++++++++++",
"+++++++++    ..o..    ++++++++++",
"++++++++++++...o...+++++++++++++",
"++++++++......XoX......+++++++++",
"++++++++++++.XXoXX.+++++++++++++",
"++++++++++++XXoOoXX+++++++++++++",
"+++++++XXXXXXooOooXXXXXX++++++++",
"++++++++++++oooOooo+++++++++++++",
"++++++oooooooooOooooooooo+++++++",
"++++++++++++ooOOOoo+++++++++++++",
"+++++++++++++OOOOO++++++++++++++",
"++++++++++++OOOOOOO+++++++++++++",
"+++++OOOOOOOOOOOOOOOOOOOOO++++++",
"++++++++++++OOOOOOO+++++++++++++",
"+++++++++++++OOOOO++++++++++++++",
"++++++++++++++OOO+++++++++++++++",
"+++++++++++++++O++++++++++++++++",
"+++++++++++++++O++++++++++++++++",
"+++++++++++++++O++++++++++++++++",
"+++++++++++++++O++++++++++++++++",
"++++++++++++++++++++++++++++++++",
"++++++++++++++++++++++++++++++++",
"++++++++++++++++++++++++++++++++"
};
