/* XPM */
static char *fire_upleft_0_xpm[] = {
/* columns rows colors chars-per-pixel */
"32 32 6 1",
"  c Gray0",
". c #e2000f002f00",
"X c #e00070000000",
"o c #f400e9001600",
"O c Gray100",
"+ c None",
/* pixels */
"++++++++++++++++++++++++++++++++",
"+++++++++++O++++++++++++++++++++",
"+++++++++++O++++++++++++++++++++",
"+++++++++++O++++++++++++++++++++",
"+++++++++++O++++++++++++++++++++",
"+++++++++++O++++++++++++++++++++",
"+++++++++++O+++o++++++++++++++++",
"++++++++++OOO++o++++++++++++++++",
"+++++++++OOOOO+o++++++++++++++++",
"++++++++OOOOOOOo++++++++++++++++",
"+++++++OOOOOOOOO++X+++++++++++++",
"+++OOOOOOOOOOOOOOOOO++++++++++++",
"+++++++OOOOOOOOOo+X+++++++++++++",
"++++++++OOOOOOOoooX+++++++++++++",
"+++++++++OOOOOooooo++.++++++++++",
"++++++++ooOOOoooooooooo+++++++++",
"+++++++++++OoooooooXX.++++++++++",
"+++++++++++O+oooooXXXX++++++++++",
"+++++++++++OXXoooXXXXXXXX+++++++",
"+++++++++++O+++oXXXXXX.. +++++++",
"+++++++++++O+++oXXXXX....+++++++",
"+++++++++++O++.o.XXX.........+++",
"+++++++++++++++o++X......  +++++",
"+++++++++++++++o++X.....    ++++",
"+++++++++++++++o++X ...        +",
"++++++++++++++++++X++.      ++++",
"++++++++++++++++++X++.     +++++",
"+++++++++++++++++++++.+   ++++++",
"+++++++++++++++++++++.++ +++++++",
"++++++++++++++++++++++++ +++++++",
"++++++++++++++++++++++++ +++++++",
"++++++++++++++++++++++++++++++++"
};
