/* XPM */
static char *fire_right_0_xpm[] = {
/* columns rows colors chars-per-pixel */
"32 32 6 1",
"  c Gray0",
". c #e2000f002f00",
"X c #e00070000000",
"o c #f400e9001600",
"O c Gray100",
"+ c None",
/* pixels */
"++++++++++++++++++++++++++++++++",
"++++++++++++++++++++++++++++++++",
"++++++++++++++++++++++++++++++++",
"++++++++++++++++++++++++++++++++",
"++++++++++++++++++++++++++++++++",
"++++++++++++++++++++++++++++++++",
"+++++++++++++++++++++O++++++++++",
"+++++++++++++++++o+++O++++++++++",
"+++++++++++++++X+o+++O++++++++++",
"++++++++++++.++X+o+++O++++++++++",
"++++++++++ +.++X+o+++O++++++++++",
"++++++++++ +.++X+o+++O++++++++++",
"++++++++++ +.++X+o+++O++++++++++",
"+++++++++  ...XXooo+OOO+++++++++",
"++++++++  ...XXooooOOOOO++++++++",
"+++++++  ...XXooooOOOOOOO+++++++",
"+++  ...XXooooOOOOOOOOOOOOOOO+++",
"+++++++  ...XXooooOOOOOOO+++++++",
"++++++++  ...XXooooOOOOO++++++++",
"+++++++++  ...XXooo+OOO+++++++++",
"++++++++++ +.++X+o+++O++++++++++",
"++++++++++ +.++X+o+++O++++++++++",
"++++++++++ +.++X+o+++O++++++++++",
"++++++++++++.++X+o+++O++++++++++",
"+++++++++++++++X+o+++O++++++++++",
"+++++++++++++++++o+++O++++++++++",
"+++++++++++++++++++++O++++++++++",
"++++++++++++++++++++++++++++++++",
"++++++++++++++++++++++++++++++++",
"++++++++++++++++++++++++++++++++",
"++++++++++++++++++++++++++++++++",
"++++++++++++++++++++++++++++++++"
};
