/* XPM */
static char *fire_downleft_0_xpm[] = {
/* columns rows colors chars-per-pixel */
"32 32 6 1",
"  c Gray0",
". c #e2000f002f00",
"X c #e00070000000",
"o c #f400e9001600",
"O c Gray100",
"+ c None",
/* pixels */
"++++++++++++++++++++++++++++++++",
"++++++++++++++++++++++++ +++++++",
"++++++++++++++++++++++++ +++++++",
"+++++++++++++++++++++.++ +++++++",
"+++++++++++++++++++++.+   ++++++",
"++++++++++++++++++X++.     +++++",
"++++++++++++++++++X++.      ++++",
"+++++++++++++++o++X ...        +",
"+++++++++++++++o++X.....    ++++",
"+++++++++++++++o++X......  +++++",
"+++++++++++O++.o.XXX.........+++",
"+++++++++++O+++oXXXXX....+++++++",
"+++++++++++O+++oXXXXXX.. +++++++",
"+++++++++++OXXoooXXXXXXXX+++++++",
"+++++++++++O+oooooXXXX++++++++++",
"+++++++++++OoooooooXX.++++++++++",
"++++++++ooOOOoooooooooo+++++++++",
"+++++++++OOOOOooooo++.++++++++++",
"++++++++OOOOOOOoooX+++++++++++++",
"+++++++OOOOOOOOOo+X+++++++++++++",
"+++OOOOOOOOOOOOOOOOO++++++++++++",
"+++++++OOOOOOOOO++X+++++++++++++",
"++++++++OOOOOOOo++++++++++++++++",
"+++++++++OOOOO+o++++++++++++++++",
"++++++++++OOO++o++++++++++++++++",
"+++++++++++O+++o++++++++++++++++",
"+++++++++++O++++++++++++++++++++",
"+++++++++++O++++++++++++++++++++",
"+++++++++++O++++++++++++++++++++",
"+++++++++++O++++++++++++++++++++",
"+++++++++++O++++++++++++++++++++",
"++++++++++++++++++++++++++++++++"
};
