/* XPM */
static char *fire_left_0_xpm[] = {
/* columns rows colors chars-per-pixel */
"32 32 7 1",
"  c Gray0",
". c #3c0022005e00",
"X c #82002d008000",
"o c #bf004100bb00",
"O c #d200dd00dd00",
"+ c Gray100",
"@ c None",
/* pixels */
"@@@@@@@@@@@@@@@@@@@@@@@@@@@@@@@@",
"@@@@@@@@@@@@@@@@@@@@@@@@@@@@@@@@",
"@@@@@@@@@@@@@@@@@@@@@@@@@@@@@@@@",
"@@@@@@@@@@@@@@@@@@@@@@@@@@@@@@@@",
"@@@@@@@@@@@@@@@@@@@@@@@@@@@@@@@@",
"@@@@@@@@@@@@@@@@@@@@@@@@@@@@@@@@",
"@@@@@@@@@@+@@@@@@@@@@@@@@@@@@@@@",
"@@@@@@@@@@+@@@O@@@@@@@@@@@@@@@@@",
"@@@@@@@@@@+@@@O@o@@@@@@@@@@@@@@@",
"@@@@@@@@@@+@@@O@o@@X@@@@@@@@@@@@",
"@@@@@@@@@@+@@@O@o@@X@.@@@@@@@@@@",
"@@@@@@@@@@+@@@O@o@@X@.@@@@@@@@@@",
"@@@@@@@@@@+@@@O@o@@X@.@@@@@@@@@@",
"@@@@@@@@@+++@OOOooXXX..@@@@@@@@@",
"@@@@@@@@+++++OOOOooXXX..@@@@@@@@",
"@@@@@@@+++++++OOOOooXXX..@@@@@@@",
"@@@+++++++++++++++OOOOooXXX..@@@",
"@@@@@@@+++++++OOOOooXXX..@@@@@@@",
"@@@@@@@@+++++OOOOooXXX..@@@@@@@@",
"@@@@@@@@@+++@OOOooXXX..@@@@@@@@@",
"@@@@@@@@@@+@@@O@o@@X@.@@@@@@@@@@",
"@@@@@@@@@@+@@@O@o@@X@.@@@@@@@@@@",
"@@@@@@@@@@+@@@O@o@@X@.@@@@@@@@@@",
"@@@@@@@@@@+@@@O@o@@X@@@@@@@@@@@@",
"@@@@@@@@@@+@@@O@o@@@@@@@@@@@@@@@",
"@@@@@@@@@@+@@@O@@@@@@@@@@@@@@@@@",
"@@@@@@@@@@+@@@@@@@@@@@@@@@@@@@@@",
"@@@@@@@@@@@@@@@@@@@@@@@@@@@@@@@@",
"@@@@@@@@@@@@@@@@@@@@@@@@@@@@@@@@",
"@@@@@@@@@@@@@@@@@@@@@@@@@@@@@@@@",
"@@@@@@@@@@@@@@@@@@@@@@@@@@@@@@@@",
"@@@@@@@@@@@@@@@@@@@@@@@@@@@@@@@@"
};
