/* XPM */
static char *fire_upright_0_xpm[] = {
/* columns rows colors chars-per-pixel */
"32 32 7 1",
"  c Gray0",
". c #440025006e00",
"X c #82002d008000",
"o c #bf004100bb00",
"O c #d200dd00dd00",
"+ c Gray100",
"@ c None",
/* pixels */
"@@@@@@@@@@@@@@@@@@@@@@@@@@@@@@@@",
"@@@@@@@@@@@@@@@@@@@@+@@@@@@@@@@@",
"@@@@@@@@@@@@@@@@@@@@+@@@@@@@@@@@",
"@@@@@@@@@@@@@@@@@@@@+@@@@@@@@@@@",
"@@@@@@@@@@@@@@@@@@@@+@@@@@@@@@@@",
"@@@@@@@@@@@@@@@@@@@@+@@@@@@@@@@@",
"@@@@@@@@@@@@@@@@O@@@+@@@@@@@@@@@",
"@@@@@@@@@@@@@@@@O@@+++@@@@@@@@@@",
"@@@@@@@@@@@@@@@@O@+++++@@@@@@@@@",
"@@@@@@@@@@@@@@@@O+++++++@@@@@@@@",
"@@@@@@@@@@@@@o@@+++++++++@@@@@@@",
"@@@@@@@@@@@@+++++++++++++++++@@@",
"@@@@@@@@@@@@@o@O+++++++++@@@@@@@",
"@@@@@@@@@@@@@oOOO+++++++@@@@@@@@",
"@@@@@@@@@@X@@OOOOO+++++@@@@@@@@@",
"@@@@@@@@@OOOOOOOOOO+++OO@@@@@@@@",
"@@@@@@@@@@XooOOOOOOO+@@@@@@@@@@@",
"@@@@@@@@@@ooooOOOOO@+@@@@@@@@@@@",
"@@@@@@@ooooooooOOOoo+@@@@@@@@@@@",
"@@@@@@@.XXooooooO@@@+@@@@@@@@@@@",
"@@@@@@@XXXXoooooO@@@+@@@@@@@@@@@",
"@@@XXXXXXXXXoooXOX@@+@@@@@@@@@@@",
"@@@@@..XXXXXXo@@O@@@@@@@@@@@@@@@",
"@@@@....XXXXXo@@O@@@@@@@@@@@@@@@",
"@........XXX.o@@O@@@@@@@@@@@@@@@",
"@@@@......X@@o@@@@@@@@@@@@@@@@@@",
"@@@@@.....X@@o@@@@@@@@@@@@@@@@@@",
"@@@@@@...@X@@@@@@@@@@@@@@@@@@@@@",
"@@@@@@@.@@X@@@@@@@@@@@@@@@@@@@@@",
"@@@@@@@.@@@@@@@@@@@@@@@@@@@@@@@@",
"@@@@@@@.@@@@@@@@@@@@@@@@@@@@@@@@",
"@@@@@@@@@@@@@@@@@@@@@@@@@@@@@@@@"
};
