/* XPM */
static char *fire_upright_0_xpm[] = {
/* columns rows colors chars-per-pixel */
"32 32 5 1",
"  c Gray0",
". c #060036006300",
"X c #11008600fe00",
"o c #f500ed00ec00",
"O c None",
/* pixels */
"OOOOOOOOOOOOOOOOOOOOOOOOOOOOOOOO",
"OOOOOOOOOOOOOOOOOOOOOOOOOOOOOOOO",
"OOOOOOOOOOOOOOOOOOOOOOOOOOOOOOOO",
"OOOOOOOOOO.OOOOOOOOOOOOOOOOOOOOO",
"OOOOOOOOO.X.OOOOOOOOOOOOOOOOOOOO",
"OOOOOOOO.XoX..OOOOOOOOOOOOOOOOOO",
"OOOOOOO.XoX..X.OOOOOOOOOOOOOOOOO",
"OOOOOOOO.XoXXoX.O.OOOOOOOOOOOOOO",
"OOOOOO..XoX.XoX..X.OOOOOOOOOOOOO",
"OOOOO.XXoX.X.XoXXoX..OOOOOOOOOOO",
"OOOO.XoXoXXoXXoXoX..X.OOOOOOOOOO",
"OOO.XoX.XoXoX.XoX..XoX.OOOOOOOOO",
"OO.XoX..XXoX.XXoX.XoXXX.OOOOOOOO",
"OO.XoX.XoXoXXoXXoXoXXooX.OOOOOOO",
"OOO.XoXoXXoXoX..XoXooXX..OOOOOOO",
"OOOO.XoX..XoX.XXoX.XX...X.OOOOOO",
"OOOOO.XoXX.XoXooXX....XXoX.OOOOO",
"OOOOO.XoXoX.XoXXooXX.XooX..OOOOO",
"OOOOO.XoXoXXoX..XXooXoXX..X.OOOO",
"OOOOOO.XoX.XoX.O.XXXoX..XXoX.OOO",
"OOOOOO.XoXXoXX..XoX.XoXXooX.OOOO",
"OOOOOOO.XooXooXXoXX..XooXX.OOOOO",
"OOOOOO.XoXX.XXooXooXXXXX..OOOOOO",
"OOOOO.XoXooX..XX.XXXooX.OOOOOOOO",
"OOOO.XoX.XXoX..XX.XoXX.OOOOOOOOO",
"OOOOO.X.O..XoXXooXXoXX.OOOOOOOOO",
"OOOOOO.OOOO.XooXXooXooX.OOOOOOOO",
"OOOOOOOOOOOO.XX..XX.XX.OOOOOOOOO",
"OOOOOOOOOOOOO..OO..O..OOOOOOOOOO",
"OOOOOOOOOOOOOOOOOOOOOOOOOOOOOOOO",
"OOOOOOOOOOOOOOOOOOOOOOOOOOOOOOOO",
"OOOOOOOOOOOOOOOOOOOOOOOOOOOOOOOO"
};
