/* XPM */
static char *fire_upleft_0_xpm[] = {
/* columns rows colors chars-per-pixel */
"32 32 5 1",
"  c Gray0",
". c #060036006300",
"X c #11008600fe00",
"o c #f500ed00ec00",
"O c None",
/* pixels */
"OOOOOOOOOOOOOOOOOOOOOOOOOOOOOOOO",
"OOOOOOOOOOOOOOOOOOOOOOOOOOOOOOOO",
"OOOOOOOOOOOOOOOOOOOOOOOOOOOOOOOO",
"OOOOOOOOOOOOOOOOOOO.OOOOOOOOOOOO",
"OOOOOOOOOOOOOOOOOO.X.OOOOOOOOOOO",
"OOOOOOOOOOOOOOOO..XoX.OOOOOOOOOO",
"OOOOOOOOOOOOOOO.X..XoX.OOOOOOOOO",
"OOOOOOOOOOOOO..XoX.XoX.OOOOOOOOO",
"OOOOOOOOOOOO.X..XoX.XoX.OO.OOOOO",
"OOOOOOOOOOO.XoX.XoX.XoXX..X.OOOO",
"OOOOOOOOOO.XXoX..XoXoXXoXXoX.OOO",
"OOOOOOOOO.XoXXoX..XoX.XoXXoX.OOO",
"OOOOOOOOO..XoXoX.XoX..XXooX.OOOO",
"OOOOOOOO.X..XoX..XoXXXoXXXoX.OOO",
"OOOOOOO.XoX..XoXXoXXoXoX.XoX.OOO",
"OOOOOOOO.XoXXoXoXoX.XoX.XoX.OOOO",
"OOOOOOO..XXooX.XoX.O.XoXXoX.OOOO",
"OOOOOO.XXooXXX.XoX...XoX.XoX.OOO",
"OOOOO.XooXX.XoX.XoXXXoX..XoX.OOO",
"OOOOO..XX.XX.XoXoXooXoX.XoX.OOOO",
"OOOO.X.X.XooXXXoX.XXoX.XoX.OOOOO",
"OOO.XoXoX.XXoooX.XX.XoXoX.OOOOOO",
"OOOO.XoXoXXoXXX.XooXXoXoX.OOOOOO",
"OOOOO.X.XooXXoX.XXXooXoX.OOOOOOO",
"OOOOOO.O.XX..XoXoooXX.XoX.OOOOOO",
"OOOOOOOO.XoX..XoXXX..O.XoX.OOOOO",
"OOOOOOOOO.XoXXoX...OOOO.X.OOOOOO",
"OOOOOOOOOO.XooX.OOOOOOOO.OOOOOOO",
"OOOOOOOOOOO.XX.OOOOOOOOOOOOOOOOO",
"OOOOOOOOOOOO..OOOOOOOOOOOOOOOOOO",
"OOOOOOOOOOOOOOOOOOOOOOOOOOOOOOOO",
"OOOOOOOOOOOOOOOOOOOOOOOOOOOOOOOO"
};
