/* XPM */
static char *fire_downright_0_xpm[] = {
/* columns rows colors chars-per-pixel */
"32 32 5 1",
"  c Gray0",
". c #060036006300",
"X c #11008600fe00",
"o c #f500ed00ec00",
"O c None",
/* pixels */
"OOOOOOOOOOOOOOOOOOOOOOOOOOOOOOOO",
"OOOOOOOOOOOOOOOOOOOOOOOOOOOOOOOO",
"OOOOOOOOOOOOOOOOOO..OOOOOOOOOOOO",
"OOOOOOOOOOOOOOOOO.XX.OOOOOOOOOOO",
"OOOOOOO.OOOOOOOO.XooX.OOOOOOOOOO",
"OOOOOO.X.OOOO...XoXXoX.OOOOOOOOO",
"OOOOO.XoX.O..XXXoX..XoX.OOOOOOOO",
"OOOOOO.XoX.XXoooXoX..XX.O.OOOOOO",
"OOOOOOO.XoXooXXX.XoXXooX.X.OOOOO",
"OOOOOO.XoXoXXooX.XXXoXXoXoX.OOOO",
"OOOOOO.XoXoX.XX.XoooXX.XoXoX.OOO",
"OOOOO.XoX.XoXX.XoXXXooX.X.X.OOOO",
"OOOO.XoX.XoXooXoXoX.XX.XX..OOOOO",
"OOO.XoX..XoXXXoX.XoX.XXooX.OOOOO",
"OOO.XoX.XoX...XoX.XXXooXX.OOOOOO",
"OOOO.XoXXoX.O.XoX.XooXX..OOOOOOO",
"OOOO.XoX.XoX.XoXoXoXXoX.OOOOOOOO",
"OOO.XoX.XoXoXXoXXoX..XoX.OOOOOOO",
"OOO.XoXXXoXXXoX..XoX..X.OOOOOOOO",
"OOOO.XooXX..XoX.XoXoX..OOOOOOOOO",
"OOO.XoXXoX.XoX..XoXXoX.OOOOOOOOO",
"OOO.XoXXoXXoXoX..XoXX.OOOOOOOOOO",
"OOOO.X..XXoX.XoX.XoX.OOOOOOOOOOO",
"OOOOO.OO.XoX.XoX..X.OOOOOOOOOOOO",
"OOOOOOOOO.XoX.XoX..OOOOOOOOOOOOO",
"OOOOOOOOO.XoX..X.OOOOOOOOOOOOOOO",
"OOOOOOOOOO.XoX..OOOOOOOOOOOOOOOO",
"OOOOOOOOOOO.X.OOOOOOOOOOOOOOOOOO",
"OOOOOOOOOOOO.OOOOOOOOOOOOOOOOOOO",
"OOOOOOOOOOOOOOOOOOOOOOOOOOOOOOOO",
"OOOOOOOOOOOOOOOOOOOOOOOOOOOOOOOO",
"OOOOOOOOOOOOOOOOOOOOOOOOOOOOOOOO"
};
