/* XPM */
static char *fire_left_0_xpm[] = {
/* columns rows colors chars-per-pixel */
"32 32 5 1",
"  c Gray0",
". c #060036006300",
"X c #11008600fe00",
"o c #f500ed00ec00",
"O c None",
/* pixels */
"OOOOOOOOOOOOOOOOOOOOOOOOOOOOOOOO",
"OOOOOOOOOOOOOOOOOOOOOOOOOOOOOOOO",
"OO..OOOOOOOOOOOOOOOOOOOOOOOOOOOO",
"O.XX..OOOO.OOOOOOOOOOOOOOOOOOOOO",
".XooXX..O.X..OOOOOOOOOOOOOOOOOOO",
"O.XXooXX.XoXX.OOOOOOOOOOOOOOOOOO",
"OO..XXooX.XooX.O..OOOOOOOOOOOOOO",
"O.XXooXXoX.XXoX.XX.OOOOOOOOOOOOO",
".XooXX.XoX.XXoXXooX.OOOOOOOOOOOO",
"O.XX...XoXXooXX.XXoX.OOOOOOOOOOO",
"OO..XX..XoXXXooX.XoXX...OOOOOOOO",
"O.XXooXXXoX.XXXoXXXooXXX.OOOOOOO",
".XooXXoooXXXooXXoooXXoooX.OOOOOO",
"O.XXXoXXXoooXXooXXXXoXXX.OOOOOOO",
".XooXoX..XoX..XXoX.XoX..OOOOOOOO",
"O.XXoX.O.XoX.O.XoX..X.OOOOOOOOOO",
"O.XXoX..XoXXX.XoX.OO.OOOOOOOOOOO",
".XooX.O.XoXooXXoX.OOOOOOOOOOOOOO",
"O.XX.O.XoX.XXooXoX.OOOOOOOOOOOOO",
"OO...O.XoX...XXXoX.OOOOOOOOOOOOO",
"OO.XX..XoX.OO.XoX.OOOOOOOOOOOOOO",
"O.XooXXXXoX..XXoX.OOOOOOOOOOOOOO",
".XoXXoooXoX.XooX.OOOOOOOOOOOOOOO",
"O.X..XXXoX.O.XX.OOOOOOOOOOOOOOOO",
"OO.OO..XoX.OO..OOOOOOOOOOOOOOOOO",
"OOOO..XoX.OOOOOOOOOOOOOOOOOOOOOO",
"OO..XXXoX.OOOOOOOOOOOOOOOOOOOOOO",
"O.XXoooX.OOOOOOOOOOOOOOOOOOOOOOO",
".XooXXX.OOOOOOOOOOOOOOOOOOOOOOOO",
"O.XX...OOOOOOOOOOOOOOOOOOOOOOOOO",
"OO..OOOOOOOOOOOOOOOOOOOOOOOOOOOO",
"OOOOOOOOOOOOOOOOOOOOOOOOOOOOOOOO"
};
