/* XPM */
static char *fire_up_0_xpm[] = {
/* columns rows colors chars-per-pixel */
"32 32 5 1",
"  c Gray0",
". c #48002f000b00",
"X c #7a0051002500",
"o c #d200dd00dd00",
"O c None",
/* pixels */
"OOOOOOOOOOOOOOOOOOOOOOOOOOOOOOOO",
"OOOOOOOOOOOOOOOOOOOOOOOOOOOOOOOO",
"OOOOOOOOOOOOOOOooOOOOOOOOOOOOOOO",
"OOOOOOOOOOOOOOOooOOOOOOOOOOOOOOO",
"OOOOOOOOOOOOOOooooOOOOOOOOOOOOOO",
"OOOOOOOOOOOOOOooooOOOOOOOOOOOOOO",
"OOOOOOOOOOOOOOOX.OOOOOOOOOOOOOOO",
"OOOOOOOOOOOOOOOX.OOOOOOOOOOOOOOO",
"OOOOOOOOOOOOOOOX.OOOOOOOOOOOOOOO",
"OOOOOOOOOOOOOOOX.OOOOOOOOOOOOOOO",
"OOOOOOOOOOOOOOO..OOOOOOOOOOOOOOO",
"OOOOOOOOOOOOOOOX.OOOOOOOOOOOOOOO",
"OOOOOOOOOOOOOOOX.OOOOOOOOOOOOOOO",
"OOOOOOOOOOOOOOOX.OOOOOOOOOOOOOOO",
"OOOOOOOOOOOOOOOX.OOOOOOOOOOOOOOO",
"OOOOOOOOOOOOOOO..OOOOOOOOOOOOOOO",
"OOOOOOOOOOOOOOOX.OOOOOOOOOOOOOOO",
"OOOOOOOOOOOOOOOX.OOOOOOOOOOOOOOO",
"OOOOOOOOOOOOOOOX.OOOOOOOOOOOOOOO",
"OOOOOOOOOOOOOOOX.OOOOOOOOOOOOOOO",
"OOOOOOOOOOOOOOO..OOOOOOOOOOOOOOO",
"OOOOOOOOOOOOOOOX.OOOOOOOOOOOOOOO",
"OOOOOOOOOOOOOOOX.OOOOOOOOOOOOOOO",
"OOOOOOOOOOOOOOOX.OOOOOOOOOOOOOOO",
"OOOOOOOOOOOOOOOX.OOOOOOOOOOOOOOO",
"OOOOOOOOOOOOOOO..OOOOOOOOOOOOOOO",
"OOOOOOOOOOOOOOOX.OOOOOOOOOOOOOOO",
"OOOOOOOOOOOOOOOX.OOOOOOOOOOOOOOO",
"OOOOOOOOOOOOOOOX.OOOOOOOOOOOOOOO",
"OOOOOOOOOOOOOOOOOOOOOOOOOOOOOOOO",
"OOOOOOOOOOOOOOOOOOOOOOOOOOOOOOOO",
"OOOOOOOOOOOOOOOOOOOOOOOOOOOOOOOO"
};
