/* XPM */
static char *fire_downleft_0_xpm[] = {
/* columns rows colors chars-per-pixel */
"32 32 5 1",
"  c Gray0",
". c #48002f000b00",
"X c #7a0051002500",
"o c #d200dd00dd00",
"O c None",
/* pixels */
"OOOOOOOOOOOOOOOOOOOOOOOOOOOOOOOO",
"OOOOOOOOOOOOOOOOOOOOOOOOOOOOOOOO",
"OOOOOOOOOOOOOOOOOOOOOOOOOOOOOOOO",
"OOOOOOOOOOOOOOOOOOOOOOOOOOOOOOOO",
"OOOOOOOOOOOOOOOOOOOOOOOOOOOOOOOO",
"OOOOOOOOOOOOOOOOOOOOOOOOOOOOOOOO",
"OOOOOOOOOOOOOOOOOOOOOOOO.OOOOOOO",
"OOOOOOOOOOOOOOOOOOOOOOO..XOOOOOO",
"OOOOOOOOOOOOOOOOOOOOOO..XOOOOOOO",
"OOOOOOOOOOOOOOOOOOOOO...OOOOOOOO",
"OOOOOOOOOOOOOOOOOOOO..XOOOOOOOOO",
"OOOOOOOOOOOOOOOOOOO..XOOOOOOOOOO",
"OOOOOOOOOOOOOOOOOO..XOOOOOOOOOOO",
"OOOOOOOOOOOOOOOOO...OOOOOOOOOOOO",
"OOOOOOOOOOOOOOOO..XOOOOOOOOOOOOO",
"OOOOOOOOOOOOOOO..XOOOOOOOOOOOOOO",
"OOOOOOOOOOOOOO...OOOOOOOOOOOOOOO",
"OOOOOOOOOOOOO..XOOOOOOOOOOOOOOOO",
"OOOOOOOOOOOO..XOOOOOOOOOOOOOOOOO",
"OOOOOOOOOOO..XOOOOOOOOOOOOOOOOOO",
"OOOOOOOOOO...OOOOOOOOOOOOOOOOOOO",
"OOOOOOOOO..XOOOOOOOOOOOOOOOOOOOO",
"OOOOOOOo..XOOOOOOOOOOOOOOOOOOOOO",
"OOOOOOOooXOOOOOOOOOOOOOOOOOOOOOO",
"OOOOOOooooOOOOOOOOOOOOOOOOOOOOOO",
"OOOOOOooOOOOOOOOOOOOOOOOOOOOOOOO",
"OOOOOOOOOOOOOOOOOOOOOOOOOOOOOOOO",
"OOOOOOOOOOOOOOOOOOOOOOOOOOOOOOOO",
"OOOOOOOOOOOOOOOOOOOOOOOOOOOOOOOO",
"OOOOOOOOOOOOOOOOOOOOOOOOOOOOOOOO",
"OOOOOOOOOOOOOOOOOOOOOOOOOOOOOOOO",
"OOOOOOOOOOOOOOOOOOOOOOOOOOOOOOOO"
};
