/* XPM */
static char *move_down_0_xpm[] = {
/* columns rows colors chars-per-pixel */
"32 32 7 1",
"  c Gray0",
". c #790013000c00",
"X c #9a0017000e00",
"o c #aa001a001300",
"O c #c4002f002f00",
"+ c #fb00a600a600",
"@ c None",
/* pixels */
"@@@@@@@@@@@@@@@@@@@@@@@@@@@@@@@@",
"@@@@@@@@@@@@@@@@@@@@@@@@@@@@@@@@",
"@@@@@@@@@@@@@@@@@@@@@@@@@@@@@@@@",
"@@@@@@@@@@@@@@@@@@@@@@@@@@@@@@@@",
"@@@@@@@@@@@@@@@@@@@@@@@@@@@@@@@@",
"@@@@@@@@@@@@@@@@@@@@@@@@@@@@@@@@",
"@@@@@@@@@@@@+@@@@@+@@@@@@@@@@@@@",
"@@@@@@@@@@@@+@@@@@+@@@@@@@@@@@@@",
"@@@@@@@@@@@@@+OOX+@@@@@@@@@@@@@@",
"@@@@@@@@@@@@@OooX.@@@@@@@@@@@@@@",
"@@@@@@@@@@@@Oo o X.@@@@@@@@@@@@@",
"@@@@@@@@@@@@OooooX.@@@@@@@@@@@@@",
"@@@@@@@@@@@@@oooX.@@@@@@@@@@@@@@",
"@@@@@@@@@@@@@Oo+X.@@@@@@@@@@@@@@",
"@@@@@@@@@@@@@X...X@@@@@@@@@@@@@@",
"@@@@@@@@@@@@@OXXX.@@@@@@@@@@@@@@",
"@@@@@@@@@@@@OOooo.@@@@@@@@@@@@@@",
"@@@@@@@@@@@OooooXoo@@@Oo@@@@@@@@",
"@@@@@@@@@@OoXooXXOX.OOooOX@@@@@@",
"@@@@@@@@@@OoXoXXXOo.oXo.XXX@@@@@",
"@@@@@@@@@OX@ooXXXXOXoX.@..@@@@@@",
"@@@@@@@@@O.@@O....Xoo.@@@@@@@@@@",
"@@@@@@@@Oo@@O.@@@@@XooX@@@@@@@@@",
"@@@@@@@@o.@O.@@@@@@..@X.@@@@@@@@",
"@@@@@@@@@@@@@@@@@@@@@@@@@@@@@@@@",
"@@@@@@@@@@@@@@@@@@@@@@@@@@@@@@@@",
"@@@@@@@@@@@@@@@@@@@@@@@@@@@@@@@@",
"@@@@@@@@@@@@@@@@@@@@@@@@@@@@@@@@",
"@@@@@@@@@@@@@@@@@@@@@@@@@@@@@@@@",
"@@@@@@@@@@@@@@@@@@@@@@@@@@@@@@@@",
"@@@@@@@@@@@@@@@@@@@@@@@@@@@@@@@@",
"@@@@@@@@@@@@@@@@@@@@@@@@@@@@@@@@"
};
