/* XPM */
static char *move_down_0_xpm[] = {
/* columns rows colors chars-per-pixel */
"32 32 18 1",
"  c Gray0",
". c Gray8",
"X c #2a001c000600",
"o c #240023002300",
"O c #280026002600",
"+ c #35002b003100",
"@ c #360033003300",
"# c #41003e003e00",
"$ c #09004b008800",
"% c #09004e008e00",
"& c #0a0054009f00",
"* c #0b005c00ae00",
"= c #0c006100b900",
"- c #ad00b500b500",
"; c #b500a400a200",
": c #c200b600b500",
"> c Gray100",
", c None",
/* pixels */
",,,,,,,,,,,,,,,,,,,,,,,,,,,,,,,,",
",,,,,,,,,,,,,,,,,,,,,,,,,,,,,,,,",
",,,,,,,,,,,,,,,,,,,,,,,,,,,,,,,,",
",,,,,,,,,,,,,,,,,,,,,,,,,,,,,,,,",
",,,,,,,,,,,,,,,,,,,,,,,,,,,,,,,,",
",,,,,,,,,,,,,,,,,,,,,,,,,,,,,,,,",
",,,,,,,,,,,,...,,,,,,,,...,,,,,,",
",,,,,,,,,,,.o....,,,,,.....,,,,,",
",,,,,,,,,,o.o.o. ..oOOoo... ,,,,",
",,,,,,,,oOOOoooo..oooo.oo...,,,,",
",,,,,.oo+@O@@@@@@oo.o..oooO. ,,,",
",,,o.o@OO@@@@@o@@@@@Oo.ooOo. ,,,",
",,o#oOOo@@@o:&=$&:o@@@oooo.. ,,,",
",,.o+o.O@O::&>&$&&:-o@@ooo.. ,,,",
",,,.o+O@o::==&  =*&;:o@oOO. ,,,,",
",,,,..@oo:;&&$  $&&;..oo@o. ,,,,",
",,,,, o.o.:;%&$&=%;.oO..+o ,,,,,",
",,,,,o+..o.-;$&&=-ooOOOo.o ,,,,,",
",,,,,,oo.Ooooo&=..oOOO.o... ,,,,",
",,,,,.o...OOooo.ooOO.OoX.oOo,,,,",
",,,, .oo..oOOooooo...ooo.o+o ,,,",
",,,, ooooO+ooooo.o....oOooO.. ,,",
",,, ooo.oOoo ... . ..OooOOO.. ,,",
",,, ..oo.o,,,,,,,,...oooOOo.. ,,",
",,,, ..  ,,,,,,,,,,, ooOOo... ,,",
",,,,, .,,,,,,,,,,,,,, .......,,,",
",,,,,,,,,,,,,,,,,,,,,,.... .,,,,",
",,,,,,,,,,,,,,,,,,,,,,,, ..,,,,,",
",,,,,,,,,,,,,,,,,,,,,,,,,,,,,,,,",
",,,,,,,,,,,,,,,,,,,,,,,,,,,,,,,,",
",,,,,,,,,,,,,,,,,,,,,,,,,,,,,,,,",
",,,,,,,,,,,,,,,,,,,,,,,,,,,,,,,,"
};
