/* XPM */
static char *move_left_0_xpm[] = {
/* columns rows colors chars-per-pixel */
"32 32 16 1",
"  c Gray0",
". c Gray8",
"X c #2a001c000600",
"o c #240023002300",
"O c #280026002600",
"+ c #35002b003100",
"@ c #360033003300",
"# c #09004b008800",
"$ c #0a0050009700",
"% c #0a0054009f00",
"& c #0b005900a800",
"* c #0b005c00ae00",
"= c #0c006100b900",
"- c #b500a400a200",
"; c #c200b600b500",
": c None",
/* pixels */
"::::::::::::::::::::::::::::::::",
"::::::::::::::::::::::::::::::::",
"::::::::::::::::::::::::::::::::",
"::::::::::::::::::::::::::::::::",
"::::::::::::::::::::::::::::::::",
"::::::::::::::::::::::::::::::::",
"::::::::::::::::::::::::::::::::",
"::::::o@.:::::::::::::@@@o::::::",
":::::O@@@.::::::::::...@@@. ::::",
"::::OO@O@@o.::::::..oO@@@@o..:::",
"::::@@oOoO@o.o::  ++@@.OOOoX.:::",
"::::.ooo+o.. ....O@@OOoOOoo ::::",
":::::.o@Oo;;@@O+@OoOooO.oo.:::::",
"::::::.@.%#;;@@OOOOOoOOOoo::::::",
"::::::@.O=%&;;;@OoOOOOooO+oo::::",
":::::::O  &#*;--oOOO.Oooo@oo@:::",
":::::::O  %=#-...ooOOOoo.oo..:::",
"::::::...%#$-..ooooooO.oooo. :::",
":::::@@.o=&-...ooo.oOooooo. ::::",
":::: @@+o..X.+ooOooOOooOoo::::::",
"::: @@+OOOooOoOOOOOOoooX::::::::",
"::: @+O+oooOooo.OoOo+Oo.::::::::",
":::.@@O@+Oooo.: oOoO++o.::::::::",
"::: @.@O@o. :::: @@O+OO. :::::::",
":::: oo... :::::@o.ooOo..:::::::",
":::::.oo.:::::::: o..... :::::::",
":::::::::::::::::: . .. ::::::::",
"::::::::::::::::::::::::::::::::",
"::::::::::::::::::::::::::::::::",
"::::::::::::::::::::::::::::::::",
"::::::::::::::::::::::::::::::::",
"::::::::::::::::::::::::::::::::"
};
