/* XPM */
static char *fire_downleft_0_xpm[] = {
/* columns rows colors chars-per-pixel */
"32 32 20 1",
"  c Gray0",
". c #aa001a001300",
"X c #bf0030002f00",
"o c #b10075006e00",
"O c #c4002f002f00",
"+ c #cc0049002900",
"@ c #db0066002300",
"# c #e00070000000",
"$ c #e7007d001f00",
"% c #dd0046004300",
"& c #d30082000800",
"* c #cb0093003b00",
"= c #f2009e001b00",
"- c #e200b1003c00",
"; c #db00a6006700",
": c #e200bf004300",
"> c #f800d7002200",
", c #f400e9001600",
"< c #f100f9000900",
"1 c None",
/* pixels */
"11111111111111111111111111111111",
"11111111111111111111111111111111",
"11111111111111111111111111111111",
"11111111111111111@11111111111111",
"1111111111111$1@+@$1111111111111",
"111111111111@@#OO+$#11111==11111",
"11111111111+@+#@X*%##11$@=$$1111",
"1111111111$$.++;=@@@11$#@@@$$111",
"11111111111%@$$$==$>1>$>@++#$111",
"11111111111=@@+==@$>$@$#$+++$111",
"111111111111#X==@+@@==@$#=@$$111",
"111111111=-=$$=$++++#=+$#@$$>111",
"11111111--@@===+++XX*$&&@$$,1111",
"1111111--#%O-=$@X@+@==@@*=>11111",
"111111--#@++#=$+X@&@@@-+*$$11111",
"1111111$$#@*$$$++@o$+@#=@@$@1111",
"111111=#+#@$$@@*@@@$$$#$$$$11111",
"111111#@%+@@$**+@@@*$$=$$$111111",
"111111$@#@+=$$@%+&===%@1$1111111",
"1111111$$$@=$-#%%O#=-%1111111111",
"111111,<#=$%:-$#%%+=@O@111111111",
"1111111<1=$$+>$$@%+$%O#111111111",
"1111111111$@@@:$$@#=$@1111111111",
"11111111111$@$o>$$$=$#1111111111",
"111111111111$$$$:$$:##1111111111",
"1111111111111=#+.@@@%>1111111111",
"1111111111111>$++%@@:11111111111",
"1111111111111,>$%$$>111111111111",
"11111111111111>11$11111111111111",
"11111111111111111111111111111111",
"11111111111111111111111111111111",
"11111111111111111111111111111111"
};
