/* XPM */
static char *fire_upleft_0_xpm[] = {
/* columns rows colors chars-per-pixel */
"32 32 65 1",
"  c Gray0",
". c #010000000000",
"X c #030002000000",
"o c #050003000000",
"O c #070004000100",
"+ c #090005000100",
"@ c #0e0009000200",
"# c #0f0009000200",
"$ c #10000a000200",
"% c #12000b000200",
"& c #15000e000300",
"* c #17000f000300",
"= c #190010000400",
"- c #1b0011000400",
"; c #210015000500",
": c #220016000500",
"> c #260018000600",
", c #2a001b000600",
"< c #2b001c000600",
"1 c #2d001d000700",
"2 c #30001e000700",
"3 c #310020000700",
"4 c #340022000800",
"5 c #350022000800",
"6 c #360023000800",
"7 c #370024000800",
"8 c #380025000900",
"9 c #3e0028000900",
"0 c #44002c000a00",
"q c #45002d000b00",
"w c #47002e000b00",
"e c #49002f000b00",
"r c #4a0030000b00",
"t c #4b0031000c00",
"y c #4e0032000c00",
"u c #4e0033000c00",
"i c #500034000c00",
"p c #510035000d00",
"a c #530036000d00",
"s c #61003f000f00",
"d c #6a0044001000",
"f c #6c0046001100",
"g c #6d0047001100",
"h c #6f0048001100",
"j c #710049001100",
"k c #710049001200",
"l c #73004a001200",
"z c #74004b001200",
"x c #76004d001300",
"c c #77004d001200",
"v c #78004d001300",
"b c #7e0051001400",
"n c #800052001400",
"m c #820053001400",
"M c #830055001500",
"N c #8a0059001600",
"B c #8c005a001600",
"V c #8d005a001600",
"C c #8d005b001600",
"Z c #8f005c001600",
"A c #90005c001600",
"S c #91005e001700",
"D c #92005e001700",
"F c #960061001800",
"G c None",
/* pixels */
"GGGGGGGGGGGGGGGGGGGGGGGGGGGGGGGG",
"GGGGGGGGGGGGGGGGGGGGGGGGGGGGGGGG",
"GGGGGGGGGGGGGGGGGGGGGGGGGGGGGGGG",
"GGGGGGGGGGGGGGGGGGGGGGGGGGGGGGGG",
"GGGGGGGGGGGGGGGGGGGGGGGGGGGGGGGG",
"GGGGGGGGG G GGGGGGGGGGGGGGGGGGGG",
"GGGGGGGG @ # GGGGGGGGGGGGGGGGGGG",
"GGGGGGG9-e0r& GGGGGGGGGGGGGGGGGG",
"GGGGGG%1rczvr& GGGGGGGGGGGGGGGGG",
"GGGGGG47cBBBvr& GGGGGGGGGGGGGGGG",
"GGGGGG36mVDSAvr@ GGGGGGGGGGGGGGG",
"GGGGGG*:BDFFFAjX$ GGGGGGGGGGGGGG",
"GGGGGGG 2fMFFFAlr% GGGGGGGGGGGGG",
"GGGGGGGG =uMFFFbw+  GGGGGGGGGGGG",
"GGGGGGGGG =uMFFFd5   GGGGGGGGGGG",
"GGGGGGGGGG =uMZFFd55& GGGGGGGGGG",
"GGGGGGGGGGG =ypgFFdtr& GGGGGGGGG",
"GGGGGGGGGGGG =;8gFFhxr& GGGGGGGG",
"GGGGGGGGGGGGG  X8gFFFnrOGGGGGGGG",
"GGGGGGGGGGGGGGGGX8gFFFk GGGGGGGG",
"GGGGGGGGGGGGGGGGGX8gFFFd GGGGGGG",
"GGGGGGGGGGGGGGGGGGX8aFFFi GGGGGG",
"GGGGGGGGGGGGGGGGGGG. qFFsoGGGGGG",
"GGGGGGGGGGGGGGGGGGGGG qNC< GGGGG",
"GGGGGGGGGGGGGGGGGGGGGG >,1 GGGGG",
"GGGGGGGGGGGGGGGGGGGGGGG    GGGGG",
"GGGGGGGGGGGGGGGGGGGGGGGGGGGGGGGG",
"GGGGGGGGGGGGGGGGGGGGGGGGGGGGGGGG",
"GGGGGGGGGGGGGGGGGGGGGGGGGGGGGGGG",
"GGGGGGGGGGGGGGGGGGGGGGGGGGGGGGGG",
"GGGGGGGGGGGGGGGGGGGGGGGGGGGGGGGG",
"GGGGGGGGGGGGGGGGGGGGGGGGGGGGGGGG"
};
