/* XPM */
static char *fire_right_0_xpm[] = {
/* columns rows colors chars-per-pixel */
"32 32 5 1",
"  c Gray0",
". c #960061001800",
"X c #d200dd00dd00",
"o c Gray100",
"O c None",
/* pixels */
"OOOOOO     OOOOOOOOOOOOOOOOOOOOO",
"OOOOO   XX  OOOOOOOOOOOOOOOOOOOO",
"OOOOO XXXXX  OOOOOOOOOOOOOOOOOOO",
"OOOOO XXXXXX OOOOOOOOOOOOOOOOOOO",
"OOOOO XXX    OOOOOOOOOOOOOOOOOOO",
"OOOOO XXX    OOOOO   OOOOOOOOOOO",
"OOOOO XXXXXX OOOOO  OOOOOOOOOOOO",
"OOOOO XXXXXX        OOOOOOOOOOOO",
"OOOOO XX      X                O",
"OOOOO    XXXXXXXXX ooooooooooo  ",
"OOOO   XXXXXXXXXXX ooooooooooo  ",
"OOOO X XXXXXXXXX               O",
"OOOO X   XX         OOOOOOOOOOOO",
"OOOO XXX    . OOOO  OOOOOOOOOOOO",
"OOOO XXXXXX . OOOO   OOOOOOOOOOO",
"OOOO XXXXXX .  OOOOOOOOOOOOOOOOO",
"OOOO XXXXXX .. OOOOOOOOOOOOOOOOO",
"OOOO     XX .. OOOOOOOOOOOOOOOOO",
"OOOOO XX     . OOOOOOOOOOOOOOOOO",
"OOOO  XXX X  . OOOOOOOOOOOOOOOOO",
"OOO  XXXX XX . OOOOOOOOOOOOOOOOO",
"OOO  XXXX XX   OOOOOOOOOOOOOOOOO",
"OOO XXXXX XXX OOOOOOOOOOOOOOOOOO",
"OO  XX    XXX OOOOOOOOOOOOOOOOOO",
"OO XXX OO  XX OOOOOOOOOOOOOOOOOO",
"OO     OO      OOOOOOOOOOOOOOOOO",
"OO    OOOO     OOOOOOOOOOOOOOOOO",
"OO    OOOO      OOOOOOOOOOOOOOOO",
"OOOOOOOOOOOOOOOOOOOOOOOOOOOOOOOO",
"OOOOOOOOOOOOOOOOOOOOOOOOOOOOOOOO",
"OOOOOOOOOOOOOOOOOOOOOOOOOOOOOOOO",
"OOOOOOOOOOOOOOOOOOOOOOOOOOOOOOOO"
};
