/* XPM */
static char *fire_down_0_xpm[] = {
/* columns rows colors chars-per-pixel */
"32 32 5 1",
"  c Gray0",
". c #960061001800",
"X c #d200dd00dd00",
"o c Gray100",
"O c None",
/* pixels */
"OOOOOOOOOOOOOOOOOOOOOOOOOOOOOOOO",
"OOOOOOOOOOOOOOOOOOOOOOOOOOOOOOOO",
"OOOOOOOOOOOOOOOOOOOOOOOOOOOOOOOO",
"OOOOOOOOOOOOOOOOOOOOOOOOOOOOOOOO",
"OOOOOOOOOOOOOOO    OOOOOOOOOOOOO",
"OOOOOOOOOOOOOO  XX  OOOOOOOOOOOO",
"OOOOOOOOOOOOO  XXXX  OOOOOOOOOOO",
"OOOOOOOOOOOOO XXXXXX OOOOOOOOOOO",
"OOOOOOOOOOOOO X    X OOOOOOOOOOO",
"OOOOOOOOOOOOO X    X OOOOOOOOOOO",
"OOOOOOOOOOOOO XXXXXX OOOOOOOOOOO",
"OOOOOOOOOOOOO XXXXX     OOOOOOOO",
"OOOOOOOOOOOOO XXXXX ...  OOOOOOO",
"OOOOOOOOOOOOO       ....  OOOOOO",
"OOOOOOOOOOOO  XXXX ...... OOOOOO",
"OOOOOOOOOO    XXXX ..  .. OOOOOO",
"OOOOOOOOO  XX XXXX ..  .. OOOOOO",
"OOOOOOOOO XXX XXXX ...... OOOOOO",
"OOOOOOOO  XX  XXXX .....  OOOOOO",
"OOOOOOOO XX        ..... OOOOOOO",
"OOOOOO        XX    ...  OOOOOOO",
"OOOOOO   oo   XX XX     OOOOOOOO",
"OOOOOOO  oo  XXX XXX   OOOOOOOOO",
"OOOOOOOO oo  XXX XXXX OOOOOOOOOO",
"OOOOOOOO oo  XX   XXX OOOOOOOOOO",
"OOOOOOOO oo  XX O XXX OOOOOOOOOO",
"OOOOOOOO oo   X O XXX OOOOOOOOOO",
"OOOOOOOO oo O   O XXX OOOOOOOOOO",
"OOOOOOOO oo O   O X X OOOOOOOOOO",
"OOOOOOOO    OOOOO     OOOOOOOOOO",
"OOOOOOOOO  OOOOOO     OOOOOOOOOO",
"OOOOOOOOOOOOOOOOOO    OOOOOOOOOO"
};
