/* XPM */
static char *fire_up_0_xpm[] = {
/* columns rows colors chars-per-pixel */
"32 32 5 1",
"  c Gray0",
". c #960061001800",
"X c #d200dd00dd00",
"o c Gray100",
"O c None",
/* pixels */
"OOOOOOOOOOOOOOOOOOOOOO  OOOOOOOO",
"OOOOOOOOOOOOOOOOOOOOO    OOOOOOO",
"OOOOOOOOOOOOOOOOOOOOO oo OOOOOOO",
"OOOOOOOOOOOOOOOOOOOOO oo OOOOOOO",
"OOOOOOOOOOOOOO    OOO oo OOOOOOO",
"OOOOOOOOOOOOO  XX  OO oo OOOOOOO",
"OOOOOOOOOOOO  XXXX  O oo OOOOOOO",
"OOOOOOOOOOOO XXXXXX   oo  OOOOOO",
"OOOOOOOOOOOO XXXXXX       OOOOOO",
"OOOOOOOOOOOO XXXXXX  XXX OOOOOOO",
"OOOOOOOOOOOO XXXXXX   XX OOOOOOO",
"OOOOOOOOO    XXXXXX      OOOOOOO",
"OOOOOOOO  .. XXXXXX  XX  OOOOOOO",
"OOOOOOO  ...        XXX OOOOOOOO",
"OOOOOOO ..   XXXXXX  XX OOOOOOOO",
"OOOOOOO ..  XXXXXXXX X  OOOOOOOO",
"OOOOOOO ..  XXXXXXXX   OOOOOOOOO",
"OOOOOOO ..  XXXXXXXX  OOOOOOOOOO",
"OOOOOOO  ..  XXXXXXX OOOOOOOOOOO",
"OOOOOOOO ..          OOOOOOOOOOO",
"OOOOOOOO  .  XX  XX  OOOOOOOOOOO",
"OOOOOOOOO    XXX XX  OOOOOOOOOOO",
"OOOOOOOOOO   XXX XXX OOOOOOOOOOO",
"OOOOOOOOOOO XXXX XXX OOOOOOOOOOO",
"OOOOOOOOOOO XXX   XX OOOOOOOOOOO",
"OOOOOOOOOOO XXX O XX OOOOOOOOOOO",
"OOOOOOOOOOO XXX O X  OOOOOOOOOOO",
"OOOOOOOOOOO XXX O    OOOOOOOOOOO",
"OOOOOOOOOOO X X O    OOOOOOOOOOO",
"OOOOOOOOOOO     OOOOOOOOOOOOOOOO",
"OOOOOOOOOOO     OOOOOOOOOOOOOOOO",
"OOOOOOOOOOO    OOOOOOOOOOOOOOOOO"
};
