/* XPM */
static char *move_up_0_xpm[] = {
/* columns rows colors chars-per-pixel */
"32 32 5 1",
"  c Gray0",
". c #960061001800",
"X c #ad00b500b500",
"o c #d200dd00dd00",
"O c None",
/* pixels */
"OOOOOOOOOOOOOOOOOOOOOOOOOOOOOOOO",
"OOOOOOOOOOOOOOOOOOOOO OOOOOOOOOO",
"OOOOOOOOOOOOOOOOOOOO   OOOOOOOOO",
"OOOOOOOOOOOOOOOOOOOO o OOOOOOOOO",
"OOOOOOOOOOOOO    OOO o OOOOOOOOO",
"OOOOOOOOOOOO  oo  OO o OOOOOOOOO",
"OOOOOOOOOOO  oooo  O o OOOOOOOOO",
"OOOOOOOOOOO oooooo O o OOOOOOOOO",
"OOOOOOOOOOO oooooo O o OOOOOOOOO",
"OOOOOOOOOOO oooooo O o OOOOOOOOO",
"OOOOOOOOOOO oooooo O o OOOOOOOOO",
"OOOOOOOO    oooooo O o OOOOOOOOO",
"OOOOOOO  .. oooooo O o OOOOOOOOO",
"OOOOOO  ...        O o OOOOOOOOO",
"OOOOOO ..   oooooo   o   OOOOOOO",
"OOOOOO ..  oooooooo      OOOOOOO",
"OOOOOO ..  oooooooo XXX OOOOOOOO",
"OOOOOO ..  oooooooo  XX OOOOOOOO",
"OOOOOO  ..  ooooooo     OOOOOOOO",
"OOOOOOO ..           XX OOOOOOOO",
"OOOOOOO  .  oo  oo  O  OOOOOOOOO",
"OOOOOOOO    ooo oo  OOOOOOOOOOOO",
"OOOOOOOOO   ooo ooo OOOOOOOOOOOO",
"OOOOOOOOOO oooo ooo OOOOOOOOOOOO",
"OOOOOOOOOO ooo   oo OOOOOOOOOOOO",
"OOOOOOOOOO ooo O  o OOOOOOOOOOOO",
"OOOOOOOOOO ooo O    OOOOOOOOOOOO",
"OOOOOOOOOO ooo O    OOOOOOOOOOOO",
"OOOOOOOOOO o o O    OOOOOOOOOOOO",
"OOOOOOOOOO     OOOOOOOOOOOOOOOOO",
"OOOOOOOOOO     OOOOOOOOOOOOOOOOO",
"OOOOOOOOOO    OOOOOOOOOOOOOOOOOO"
};
