/* XPM */
static char *fire_down_0_xpm[] = {
/* columns rows colors chars-per-pixel */
"32 32 9 1",
"  c Gray0",
". c #990073004900",
"X c #b50089005600",
"o c #d30082000800",
"O c #db00a6006700",
"+ c #f700bb007600",
"@ c #d200dd00dd00",
"# c Gray100",
"$ c None",
/* pixels */
"$$$$$$$$$$$$$$$$$$$$$$$$$$$$$$$$",
"$$$$$$$$$$$$$$$$$$$$$$$$$$$$$$$$",
"$$$$$$$$$$$$$$$$$$$$$$$$$$$$$$$$",
"$$$$$$$$$$$$$$$      $$$$$$$$$$$",
"$$$$$$$$$$$$$   ++++  $$$$$$$$$$",
"$$$$$$$$$$$$$ OO+++++  $$$$$$$$$",
"$$$$$$$$$$$$  O  +O  + $$$$$$$$$",
"$$$$$$$$$$$$ O++ OO +O  $$$$$$$$",
"$$$$$$$$$$$o O+++OO++OO $$$$$$$$",
"$$$$$$$$$$$oo O  ++ OO  $$$$$$$$",
"$$$$$$$$$$$o$ .O    XX  $$$$$$$$",
"$$$$$$$$$$$$$   ...XX    $$$$$$$",
"$$$$$$$$$$    OO OO   OO $$$$$$$",
"$$$$$$$$$  ..   OO  OOOX $$$$$$$",
"$$$$$$$$$ XOOOO    XOOX  $$$$$$$",
"$$$$$$$$$  XOOOOOO  X   $$$$$$$$",
"$$$$$$$$$$  .OOOOXXX   $$$$$$$$$",
"$$$$$$$$$$$$  X       $$$$$$$$$$",
"$$$$$$$$$$$$$   OOOOO $$$$$$$$$$",
"$$$$$$$$$$$$$ OOO OOO  $$$$$$$$$",
"$$$$$$$$$     OOOOOO    $$$$$$$$",
"$$$$$$$  @@@    OOO @@@  $$$$$$$",
"$$$$$$  @@  @@@  OO @@@   $$$$$$",
"$$$$$$     @##@@    @## @  $$$$$",
"$$$$$  ## @@###@@@@###  @@  $$$$",
"$$$$ @#  @  @# @  @##  @@##@ $$$",
"$$$$ ## @@@    @@@@@@@@@ ### $$$",
"$$$$ ##   @@@@@@@#@@@@   #@@ $$$",
"$$$$$  @@@@@ @@###@@@@@@##  $$$$",
"$$$$$$     @   @@@         $$$$$",
"$$$$$$$$$$   @@@   $$$$$$$$$$$$$",
"$$$$$$$$$$$$     $$$$$$$$$$$$$$$"
};
