/* XPM */
static char *fire_up_0_xpm[] = {
/* columns rows colors chars-per-pixel */
"32 32 9 1",
"  c Gray0",
". c #2a001c000600",
"X c #28003a00d600",
"o c #990073004900",
"O c #820076007600",
"+ c #db00a6006700",
"@ c #f100f9000900",
"# c #d200dd00dd00",
"$ c None",
/* pixels */
"$$$$$$$$$$$$$$$$$$$$$$$$$$$$$$$$",
"$$$$$$$$$$$$$$$$$$$$$$$$$$$$$$$$",
"$$$$$$$$$$$$$$$$$$$$$$$$$$$$$$$$",
"$$$$$$$$$$$$$$$$$$$$$$$$$$$$$$$$",
"$$$$$$$$$$$$$$$$$$$$$$$$$$$$$$$$",
"$$$$$$$$$$$$$$$$$$$$$$$$$$$$$$$$",
"$$$$$$$$$$$$$$$$$$$$$$$$$$$$$$$$",
"$$$$$$$$$$$$$$$    $$$$$$$$$$$$$",
"$$$$$$$$$$$$$$  ##  $$$$$$$$$$$$",
"$$$$$$$$$$   $ #### $$$$$$$$$$$$",
"$$$$$$$$$  o $  @@  $$$$$$$$$$$$",
"$$$$$$$$$ o. $+@@@@+$$$$$$$$$$$$",
"$$$$$$$$$  o   @@@@+$$$$$$$$$$$$",
"$$$$$$$$$$   X @@@@   $$$$$$$$$$",
"$$$$$$$$$$  XX ##@@ X  $$$$$$$$$",
"$$$$$$$$$$$    ####  X $$$$$$$$$",
"$$$$$$$$$$$$  ###### X $$$$$$$$$",
"$$$$$$$$$$$$$ ######   $$$$$$$$$",
"$$$$$$$$$$$$$ ###    $$$$$$$$$$$",
"$$$$$$$$$$$$$     X   $$$$$$$$$$",
"$$$$$$$$$$$$   XXXXXX  $$$$$$$$$",
"$$$$$$$$$$$$  XXXXXXXX  $$$$$$$$",
"$$$$$$$$$$$  X XX XX XX $$$$$$$$",
"$$$$$$$$$$$ XX XX  X  X $$$$$$$$",
"$$$$$$$$$$$ X  XX  X  X  $$$$$$$",
"$$$$$$$$$$$ X XX   XX    $$$$$$$",
"$$$$$$$$$$$           O  $$$$$$$",
"$$$$$$$$$$$$  OO $$$$   $$$$$$$$",
"$$$$$$$$$$$$ OO  $$$$$$$$$$$$$$$",
"$$$$$$$$$$$$    $$$$$$$$$$$$$$$$",
"$$$$$$$$$$$$$$$$$$$$$$$$$$$$$$$$",
"$$$$$$$$$$$$$$$$$$$$$$$$$$$$$$$$"
};
