/* XPM */
static char *fire_left_0_xpm[] = {
/* columns rows colors chars-per-pixel */
"32 32 6 1",
"  c Gray0",
". c #09004e008e00",
"X c #11008600fe00",
"o c #800080008000",
"O c #d200dd00dd00",
"+ c None",
/* pixels */
"++++++++++++++++++++++++++++++++",
"++++++++++++++++++++++++++++++++",
"++++++++++++++++++++++++++++++++",
"++++++++++++++++++++++++++++++++",
"++++++++++++++++++++++++++++++++",
"++++++++++++++++++++++++++++++++",
"++++++++++++++++++++++++++++++++",
"++++++++++++++++++++++++++++++++",
"++++++++++.......+++++++++++++++",
"++++++++...........+++++++++++++",
"+++++++.......XXXXX.++++++++++++",
"+++++++.....XXXXXXXX++++++++++++",
"++++++.....XXXXoooooX+++++++++++",
"++++++....XXXXXoooooooooo+++++++",
"++++++....XXXXXooOOOOOooo+++++++",
"++++++....XXXXXoooOOOOOOOOO+++++",
"++++++....XXXXXoooooooOOOOOOO+++",
"++++++....XXXXXXXXXXooooo++OO+++",
"++++++.....XXXXXXXXXX+++++++++++",
"+++++++.....XXXXXXXX++++++++++++",
"+++++++.............++++++++++++",
"++++++++...........+++++++++++++",
"++++++++++.......+++++++++++++++",
"++++++++++++++++++++++++++++++++",
"++++++++++++++++++++++++++++++++",
"++++++++++++++++++++++++++++++++",
"++++++++++++++++++++++++++++++++",
"++++++++++++++++++++++++++++++++",
"++++++++++++++++++++++++++++++++",
"++++++++++++++++++++++++++++++++",
"++++++++++++++++++++++++++++++++",
"++++++++++++++++++++++++++++++++"
};
