/* XPM */
static char *move_up_0_xpm[] = {
/* columns rows colors chars-per-pixel */
"32 32 15 1",
"  c Gray0",
". c #000000006d00",
"X c #3c0022005e00",
"o c #440025006e00",
"O c #4c002b007a00",
"+ c #4d004a004a00",
"@ c #090009009800",
"# c #13001300c300",
"$ c #28003a00d600",
"% c #3d003d00fc00",
"& c #63006300fe00",
"* c #820010001000",
"= c #dd0046004300",
"- c #82002d008000",
"; c None",
/* pixels */
";;;;;;;;;;;;;;;;;;;;;;;;;;;;;;;;",
";;;;;;;;;;;;;;;;;;;;;;;;;;;;;;;;",
";;;;;;;;;;;;;;;;;;;;;;;;;;;;;;;;",
";;;;;;;;;;;;;;;;;;;;;;;;;;;;;;;;",
";;;;;;;;;;;;;; . ;;;;;;;;;;;;;;;",
";;;;;;;;;;;;; -$O ;;;;;;;;;;;;;;",
";;;;;;;;;;;;;--#o=;;;;;;;;;;;;;;",
";;;;;;;;;;;;;*o%X- ;@;;@;;;;;;;;",
";;;;;;;;;;;;;.....@;@;..;;;;;;;;",
";;;;;;;;;;;;@..@..@@.$#;;;;;;;;;",
";;;;;;;;;;;;;;@## .o.#.;;;;;;;;;",
";;;;;;;;;;;;;;@.. .@@;;;;;;;;;;;",
";;;;;;;;;;;;; .@..$X;;;;;;;;;;;;",
";;;;;;;;@;;;.@@@..#;;;;;;;;;;;;;",
";;;;;;;;@;;&#o@@@. ;;;;;;;;;;;;;",
";;;;;;;.@@$...@@@.. ;;;;;;;;;;;;",
";;;;;;;.@#@;;.@$#..  ;;;;;;;;;;;",
";;;;;;;;..;; @@%$@ .. ;;;;;;;;;;",
";;;;;;;;;@;;...@@@$...;;;;;;;;;;",
";;;;;;;;;;;;..@@@.@ ;;;;;;;;;;;;",
";;;;;;;;;;;;;.@%$.+;;;;;;;;;;;;;",
";;;;;;;;;;;;; .$#.&;;;;;;;;;;;;;",
";;;;;;;;;;;;; .@@.$;;;;;;;;;;;;;",
";;;;;;;;;;;;;; #$@@;;;;;;;;;;;;;",
";;;;;;;;;;;;;; @##.;;;;;;;;;;;;;",
";;;;;;;;;;;;;;; #..;;;;;;;;;;;;;",
";;;;;;;;;;;;;;;;@#.;;;;;;;;;;;;;",
";;;;;;;;;;;;;;;;;.;;;;;;;;;;;;;;",
";;;;;;;;;;;;;;;;;;;;;;;;;;;;;;;;",
";;;;;;;;;;;;;;;;;;;;;;;;;;;;;;;;",
";;;;;;;;;;;;;;;;;;;;;;;;;;;;;;;;",
";;;;;;;;;;;;;;;;;;;;;;;;;;;;;;;;"
};
