/* XPM */
static char *elem_water_4_xpm[] = {
/* columns rows colors chars-per-pixel */
"32 32 4 1",
"  c Gray0",
". c #09004e008e00",
"X c #11008600fe00",
"o c None",
/* pixels */
"oooooooooooooooooooooooooooooooo",
"oooooooooooooooooooooooooooooooo",
"oooooooooooooooooooooooooooooooo",
"oooooooooooooooooooooooooooooooo",
"oooooooooooooooooooooooooooooooo",
"ooooooo...oooooooooooooooooooooo",
"oooooo.......ooooooooooooooooooo",
"ooooo...XXXX...oooooooo.....oooo",
"oooo...XXXXXXX..oooooo.......ooo",
"oooo..XXXXXXXX.....oo...XX....oo",
"oooo..XXXXXXXXXX.......XXXX...oo",
"oooo..XXXXXXXXXXXX...XXXXXX...oo",
"oooo...XXXXXXXXXXXXXXXXXXXX...oo",
"ooooo.......X...XXXXXXXXXXX...oo",
"ooooooo.......o...XXXXXXXXX...oo",
"oooooooo...ooooooo...XX.......oo",
"ooooooooooooooooooo..........ooo",
"oooooooooooooooooooo........oooo",
"oooooooooooooooooooooooooooooooo",
"oooooooooooooooooooooooooooooooo",
"oooooooooooooooooooooooooooooooo",
"oooooooooooooooooooooooooooooooo",
"oooooooooooooooooooooooooooooooo",
"oooooooooooooooooooooooooooooooo",
"oooooooooooooooooooooooooooooooo",
"oooooooooooooooooooooooooooooooo",
"oooooooooooooooooooooooooooooooo",
"oooooooooooooooooooooooooooooooo",
"oooooooooooooooooooooooooooooooo",
"oooooooooooooooooooooooooooooooo",
"oooooooooooooooooooooooooooooooo",
"oooooooooooooooooooooooooooooooo"
};
