/* XPM */
static char *fire_upright_0_xpm[] = {
/* columns rows colors chars-per-pixel */
"32 32 6 1",
"  c Gray0",
". c #09004e008e00",
"X c #11008600fe00",
"o c #800080008000",
"O c #d200dd00dd00",
"+ c None",
/* pixels */
"++++++++++++++++++++++++++++++++",
"++++++++++++++++++++++++++++++++",
"++++++++++++++++++++++++++++++++",
"++++++++++++++++++++++++++++++++",
"+++++++++++++....+++++++++++++++",
"+++++++++++........+++++++++++++",
"+++++++++++.........++++++++++++",
"++++++++++...XX......+++++++++++",
"+++++++++...XXXXX.....++++++++++",
"++++++++...XXXXXXXX....+++++++++",
"++++++++..XXXXXXXXXX...+++++++++",
"+++++++..XXXXXXXXXXXX...++++++++",
"++++++..XXXoooooXXXXX...++++++++",
"++++++..XXooooooXXXX....++++++++",
"+++++++.XooooooXXXXX...+++++++++",
"++++++++XooOoooXXXX....+++++++++",
"++++++++ooOOOooXXX.....+++++++++",
"+++++++ooOOOooXXX.....++++++++++",
"++++++oooOOooXXX......++++++++++",
"++++++ooOOooXXX......+++++++++++",
"+++++++OOOo++++...++++++++++++++",
"++++++OOOo++++++++++++++++++++++",
"++++++OO++++++++++++++++++++++++",
"+++++OO+++++++++++++++++++++++++",
"+++++OO+++++++++++++++++++++++++",
"++++++++++++++++++++++++++++++++",
"++++++++++++++++++++++++++++++++",
"++++++++++++++++++++++++++++++++",
"++++++++++++++++++++++++++++++++",
"++++++++++++++++++++++++++++++++",
"++++++++++++++++++++++++++++++++",
"++++++++++++++++++++++++++++++++"
};
