/* XPM */
static char *fire_up_0_xpm[] = {
/* columns rows colors chars-per-pixel */
"32 32 6 1",
"  c Gray0",
". c #09004e008e00",
"X c #11008600fe00",
"o c #800080008000",
"O c #d200dd00dd00",
"+ c None",
/* pixels */
"++++++++++++++++++++++++++++++++",
"++++++++++++++++++++++++++++++++",
"++++++++++++++++++++++++++++++++",
"++++++++++++++++++++++++++++++++",
"++++++++++++++++++++++++++++++++",
"++++++++++++++++++++++++++++++++",
"+++++++++++++.......++++++++++++",
"+++++++++++...........++++++++++",
"++++++++++.............+++++++++",
"++++++++++.............+++++++++",
"+++++++++.....XXXXX.....++++++++",
"+++++++++....XXXXXXX....++++++++",
"+++++++++...XXXXXXXXX...++++++++",
"+++++++++...XXXXXXXXX...++++++++",
"+++++++++...XXXXXXXXXX..++++++++",
"+++++++++...XXXoooooXX..++++++++",
"+++++++++...XXXoooooXX..++++++++",
"++++++++++..XXXooOooXX.+++++++++",
"++++++++++..XXXoOOooXX.+++++++++",
"+++++++++++.XXXoOOooX.++++++++++",
"+++++++++++++XooOOoX++++++++++++",
"++++++++++++++ooOOo+++++++++++++",
"++++++++++++++oOOoo+++++++++++++",
"++++++++++++++oOOoo+++++++++++++",
"++++++++++++++oOOoo+++++++++++++",
"+++++++++++++++OO+++++++++++++++",
"+++++++++++++++OO+++++++++++++++",
"++++++++++++++OO++++++++++++++++",
"++++++++++++++OO++++++++++++++++",
"++++++++++++++++++++++++++++++++",
"++++++++++++++++++++++++++++++++",
"++++++++++++++++++++++++++++++++"
};
