/* XPM */
static char *fire_up_0_xpm[] = {
/* columns rows colors chars-per-pixel */
"32 32 10 1",
"  c Gray0",
". c #380073002c00",
"X c #48002f000b00",
"o c #1d009b003f00",
"O c #960061001800",
"+ c #e5000b000b00",
"@ c #b50089005600",
"# c #db00a6006700",
"$ c #d200dd00dd00",
"% c None",
/* pixels */
"%%%%%%%%%%%%%%%  %%%%%%%%%%%%%%%",
"%%%%%%%%%%%%%%% $$%%%%%%%%%%%%%%",
"%%%%%%%%%%%%%%%  $%%%%%%%%%%%%%%",
"%%%%%%%%%%++%%%  $$%%%%%%%%%%%%%",
"%%%%%%%%%%%+     %$%%%%%%%%%%%%%",
"%%%%%%%%%%% +  oo $$%%%%%%%%%%%%",
"%%%%%%%%%%  +oooo %$%%%%%%%%%%%%",
"%%%%%%%%%% o+oooo X$%%%%%%%%%%%%",
"%%%%%%%%%% ooooo  XX%%%%%%%%%%%%",
"%%%%%%%%%% o      %X%%%%%%%%%%%%",
"%%%%%%%%%%       #%++%%%%%%%%%%%",
"%%%%%%%%%%%%#   ##@OOO%%%%%%%%%%",
"%%%%%%%%%%%        OO%%%%%%%%%%%",
"%%%%%%%%%%  .oooo    %%%%%%%%%%%",
"%%%%%%%%%% .oooo  .. %%%%%%%%%%%",
"%%%%%%%%%% .oooo oo. %%%%%%%%%%%",
"%%%%%%%%%% .oooo oo   %%%%%%%%%%",
"%%%%%%%%%%  oooo      %%%%%%%%%%",
"%%%%%%%%%%  ooooooo %%%%%%%%%%%%",
"%%%%%%%%%%% oooooo  %%%%%%%%%%%%",
"%%%%%%%%%%%         %%%%%%%%%%%%",
"%%%%%%%%%%% ooooo %%%%%%%%%%%%%%",
"%%%%%%%%%%% ..ooo  %%%%%%%%%%%%%",
"%%%%%%%%%%% o..ooo %%%%%%%%%%%%%",
"%%%%%%%%%%  oo ... %%%%%%%%%%%%%",
"%%%%%%%%%% ooo .oo %%%%%%%%%%%%%",
"%%%%%%%%%%     ooo %%%%%%%%%%%%%",
"%%%%%%%%%%         %%%%%%%%%%%%%",
"%%%%%%%%%%%%%%%     %%%%%%%%%%%%",
"%%%%%%%%%%%%%%%     %%%%%%%%%%%%",
"%%%%%%%%%%%%%%%     %%%%%%%%%%%%",
"%%%%%%%%%%%%%%%%%%%%%%%%%%%%%%%%"
};
