/* XPM */
static char *move_left_0_xpm[] = {
/* columns rows colors chars-per-pixel */
"32 32 8 1",
"  c Gray0",
". c #1d009b003f00",
"X c #960061001800",
"o c #e5000b000b00",
"O c #b50089005600",
"+ c #db00a6006700",
"@ c #d200dd00dd00",
"# c None",
/* pixels */
"################################",
"#############  #################",
"############  @@################",
"###########   #@###########oo###",
"##########   ##@##########oo####",
"##########  ###@####      o ####",
"#########  ####@##   .....o  ###",
"########   #####@#     ...o. ###",
"########  ######@  +     ... ###",
"#######  #######@@  ++     . ###",
"####      #######@  +++      ###",
"#### O  O        @@++++   ######",
"### @   #  .....  o      #######",
"## @@            oo  .... ######",
"## @@XXXXXXXXXXXoOOO ....  #####",
"### @            OOO ..... #####",
"#### O  O  ###    OO    .. #####",
"#####    ########  O . . . #####",
"######  #########@@    ... #####",
"######  #########@ .. . .  #####",
"######  #########@        ######",
"######  ########@@ ..... #######",
"#######  #######@#  .... #######",
"#######  #######@#  .... #######",
"#######  ######@@#   ...  ######",
"########  ####@@##   .... ######",
"########   ###@### . ..   ######",
"#########  ##@@### .      ######",
"##########  #@###         ######",
"###########  @###          #####",
"################           #####",
"################           #####"
};
