/* XPM */
static char *move_down_0_xpm[] = {
/* columns rows colors chars-per-pixel */
"32 32 11 1",
"  c Gray0",
". c #380073002c00",
"X c #48002f000b00",
"o c #1d009b003f00",
"O c #960061001800",
"+ c #e5000b000b00",
"@ c #d30082000800",
"# c #db00a6006700",
"$ c #f700bb007600",
"% c #d200dd00dd00",
"& c None",
/* pixels */
"&&&&&&&&&&&&&&&  &&&&&&&&&&&&&&&",
"&&&&&&&&&&&&&&%% &&&&&&&&&&&&&&&",
"&&&&&&&&&&&&&&%X &&&&&&&&&&&&&&&",
"&&&&&&&&&&&&&% X &&&++&&&&&&&&&&",
"&&&&&&&&&&&&&% X     &&&&&&&&&&&",
"&&&&&&&&&&&&%% X  oo  &&&&&&&&&&",
"&&&&&&&&&&&&%& XX ooo &&&&&&&&&&",
"&&&&&&&&&&&&%X  X   o &&&&&&&&&&",
"&&&&&&&&&&&&%X# X #   &&&&&&&&&&",
"&&&&&&&&&&&&%&  X ##  &&&&&&&&&&",
"&&&&&&&&&&&++&$ X #   &&&&&&&&&&",
"&&&&&&&&&&&+@@# X ##&&&&&&&&&&&&",
"&&&&&&&&&&&OO@@ OO#  &&&&&&&&&&&",
"&&&&&&&&&&& % @@%O    &&&&&&&&&&",
"&&&&&&&&&&& %o %%OO   &&&&&&&&&&",
"&&&&&&&&&&&&% oOOOO . &&&&&&&&&&",
"&&&&&&&&&&&&%   XOO . &&&&&&&&&&",
"&&&&&&&&&&&&% o X     &&&&&&&&&&",
"&&&&&&&&&&&&% o X oo  &&&&&&&&&&",
"&&&&&&&&&&&&% o X oo &&&&&&&&&&&",
"&&&&&&&&&&& %   X    &&&&&&&&&&&",
"&&&&&&&&&&& %o XX oo &&&&&&&&&&&",
"&&&&&&&&&&&  % X ooo &&&&&&&&&&&",
"&&&&&&&&&&&  % X ooo &&&&&&&&&&&",
"&&&&&&&&&&&  % X  oo  &&&&&&&&&&",
"&&&&&&&&&&&&&% X  ooo &&&&&&&&&&",
"&&&&&&&&&&&&&% X      &&&&&&&&&&",
"&&&&&&&&&&&&&&%X      &&&&&&&&&&",
"&&&&&&&&&&&&&&%X &&&&&&&&&&&&&&&",
"&&&&&&&&&&&&&&&  &&&&&&&&&&&&&&&",
"&&&&&&&&&&&&&&&  &&&&&&&&&&&&&&&",
"&&&&&&&&&&&&&&&&&&&&&&&&&&&&&&&&"
};
