/* XPM */
static char *move_down_0_xpm[] = {
/* columns rows colors chars-per-pixel */
"32 32 5 1",
"  c Gray0",
". c #e5000b000b00",
"X c #e00070000000",
"o c #f400e9001600",
"O c None",
/* pixels */
"OOOOOOOOOOOOOOOOOOOOOOOOOOOOOOOO",
"OOOOOOOOOOOOOOOOOOOOOOOOOOOOOOOO",
"OOOOOOOOOOOOOOOOOOOOOOOOOOOOOOOO",
"OOOOOOOOOOOOOOOOOOOOOOOOOOOOOOOO",
"OOOOO       OO       OOO     OOO",
"OOOO  ..... O   ..oo O    ..  OO",
"OOOO ...XX..  ...oo  O ......  O",
"OOO  ..XXX.  ....o  O  ..XXX.. O",
"OOO ...XXX.    ooo O  .XXXXXX. O",
"OO  ..XXoX. OO ooo O .XXXXooX. O",
"OO ..XXooX. OO .X. O .XXXooXX. O",
"OO ..XoooXX    .X    .XXoooXX. O",
"OO .XXo  XX. XXX  XX ..   XXX. O",
"O  .XX    X. XoooooX .. O  XX. O",
"O ..X  OO  . XoooooX    O  XX. O",
"O .X  OOOO . XoooooX    OO  .. O",
"O .. OOOOO   XXooooX OOOOOO .. O",
"O    OOOOOO   XooooX OOOOOO  . O",
"O  OOOOOOOOOO XXXoXX OOOOOOO   O",
"OOOOOOOOOOOOO  XXXXX  OOOOOOOOOO",
"OOOOOOOOOOOOOO  ooXX  OOOOOOOOOO",
"OOOOOOOOOOOOOOO oooX  OOOOOOOOOO",
"OOOOOOOOOOOOOOO  ooX   OOOOOOOOO",
"OOOOOOOOOOOOOOOO  oX o  OOOOOOOO",
"OOOOOOOOOOOOOOOOO  o ooo OOOOOOO",
"OOOOOOOOOOOOOOOOOO oooooo OOOOOO",
"OOOOOOOOOOOOOOOOOO  oo    OOOOOO",
"OOOOOOOOOOOOOOOOOOO    OOOOOOOOO",
"OOOOOOOOOOOOOOOOOOOOOOOOOOOOOOOO",
"OOOOOOOOOOOOOOOOOOOOOOOOOOOOOOOO",
"OOOOOOOOOOOOOOOOOOOOOOOOOOOOOOOO",
"OOOOOOOOOOOOOOOOOOOOOOOOOOOOOOOO"
};
