/* XPM */
static char *move_right_0_xpm[] = {
/* columns rows colors chars-per-pixel */
"32 32 6 1",
"  c Gray0",
". c #e2000f002f00",
"X c #82002d008000",
"o c #d30082000800",
"O c #f400e9001600",
"+ c None",
/* pixels */
"+++++++++++++++++++  +++++++++++",
"++++++++++++++++++       +++++++",
"+++++   ++++++++++        ++++++",
"++++  .  +++++++++  ....  ++++++",
"+++  O... +++++++  ..oXX.  +++++",
"++  O....  ++++++  ..oXoo.  ++++",
"++ O.ooo.. +++++   .ooo     ++++",
"+ O.ooooo.  ++++  ..ooo  +++++++",
"+ Oooo..o.. +++  ..ooooo  ++++++",
"+ Ooo......     ..oo       +++++",
"+  Oo...oo......oooo +++++++++++",
"+ Oo...ooo....oo.oo  +++++++++++",
"+ Oo...oo........o.  +++++++++++",
"+ Oo.oooo...oo...o.          +++",
"+ OooooOO..oo...............  ++",
"+ OoOOO Oooo....o....o..oo..O ++",
"+ OOO   Ooo...ooo...oo.o.o..O ++",
"+ OOO + Oo...ooo...oo..o.oo.OO +",
"+ OO  + Oo...oo...oo..oo..o..O +",
"+    ++ Oo..oo...ooo..oo..o..O +",
"++  ++  O..oo...ooo...oOOOoo.O +",
"++++++ O...o...ooOOO.ooO Ooo.O +",
"++++++ O..oo.ooOOO OOO   OoOO  +",
"++++++ O.ooO.oOO   OO  + OOO  ++",
"++++++ Oo   .oO  + OO ++ OO  +++",
"+++++ OO ++ .oO ++ O  ++ O  ++++",
"+++++ O  ++ .o  +    ++    +++++",
"+++++   +++ OO +   ++++   ++++++",
"+++++++++++ O  +  +++++  +++++++",
"+++++++++++   ++++++++  ++++++++",
"+++++++++++  +++++++++++++++++++",
"++++++++++++ +++++++++++++++++++"
};
