/* XPM */
static char *move_left_0_xpm[] = {
/* columns rows colors chars-per-pixel */
"32 32 6 1",
"  c Gray0",
". c #e2000f002f00",
"X c #82002d008000",
"o c #d30082000800",
"O c #f400e9001600",
"+ c None",
/* pixels */
"+++++++++++  +++++++++++++++++++",
"+++++++       ++++++++++++++++++",
"++++++        ++++++++++   +++++",
"++++++  ....  +++++++++  .  ++++",
"+++++  .XXo..  +++++++ ...O  +++",
"++++  .ooXo..  ++++++  ....O  ++",
"++++     ooo.   +++++ ..ooo.O ++",
"+++++++  ooo..  ++++  .ooooo.O +",
"++++++  ooooo..  +++ ..o..oooO +",
"+++++       oo..     ......ooO +",
"+++++++++++ oooo......oo...oO  +",
"+++++++++++  oo.oo....ooo...oO +",
"+++++++++++  .o........oo...oO +",
"+++          .o...oo...oooo.oO +",
"++  ...............oo..OOooooO +",
"++ O..oo..o....o....oooO OOOoO +",
"++ O..o.o.oo...ooo...ooO   OOO +",
"+ OO.oo.o..oo...ooo...oO + OOO +",
"+ O..o..oo..oo...oo...oO +  OO +",
"+ O..o..oo..ooo...oo..oO ++    +",
"+ O.ooOOOo...ooo...oo..O  ++  ++",
"+ O.ooO Ooo.OOOoo...o...O ++++++",
"+  OOoO   OOO OOOoo.oo..O ++++++",
"++  OOO +  OO   OOo.Ooo.O ++++++",
"+++  OO ++ OO +  Oo.   oO ++++++",
"++++  O ++  O ++ Oo. ++ OO +++++",
"+++++    ++    +  o. ++  O +++++",
"++++++   ++++   + OO +++   +++++",
"+++++++  +++++  +  O +++++++++++",
"++++++++  ++++++++   +++++++++++",
"+++++++++++++++++++  +++++++++++",
"+++++++++++++++++++ ++++++++++++"
};
