/* XPM */
static char *move_up_0_xpm[] = {
/* columns rows colors chars-per-pixel */
"32 32 8 1",
"  c Gray0",
". c Gray8",
"X c #2a001c000600",
"o c #240023002300",
"O c #280026002600",
"+ c #35002b003100",
"@ c #360033003300",
"# c None",
/* pixels */
"################################",
"################################",
"################################",
"################################",
"################################",
"################################",
"################################",
"#######...######################",
"###### .o. ##########....#######",
"##### ..o. ########  .... ######",
"####O@+Oo+. ##### ..oo+...######",
"####@++@oOO@#Oo...o+++oO..######",
"####@@oOoO..@O+ooooOoo... ######",
"####@oOoooOo.ooooOOOoO.. #######",
"#####o..oooOooooooOooo..o#######",
"######.oXooooo.o.ooOO...o#######",
"###### .oo..OO+...ooOo..  ######",
"#####  .oo.O+@O@+@.oooo..   ####",
"#####  oo.++OOOOOOO+oooo...   ##",
"#### ..ooO@OOOOOOoOOOOooOOo..  #",
"####...oO@@OOOOOoOOOOOOOOOOO.  #",
"#### oOooOOooOOOOoooOoOOoooo.. #",
"### oOOOooooOoOOoo...ooo...X.. #",
"### o+oo..ooooooo... .......o ##",
"## .@OO.. ......o.     oo.  ####",
"##.OOOo.   .  ....  ### oO #####",
"## .OO.. ### ....  #############",
"### ... #####  .. ##############",
"#### O #######   ###############",
"################################",
"################################",
"################################"
};
