/* XPM */
static char *move_down_0_xpm[] = {
/* columns rows colors chars-per-pixel */
"32 32 4 1",
"  c Gray0",
". c #7e0073007100",
"X c #820076007600",
"o c None",
/* pixels */
"oooooooooooooooooooooooooooooooo",
"oooooooooooooooooooooooooooooooo",
"oooooooooooooooooooooooooooooooo",
"oooooooooooo       ooooooooooooo",
"ooooooooooo  .....  oooooooooooo",
"ooooooooooo . ....   ooooooooooo",
"ooooooooooo .  ..  . ooooooooooo",
"ooooooooooo ........ ooooooooooo",
"ooooooooooo ...  ... ooooooooooo",
"ooooooooooo  .    .  ooooooooooo",
"oooooooooooo  ....  oooooooooooo",
"oooooooooooo   ..  oooo   oooooo",
"oooooooo     ..... oo   . oooooo",
"ooooooo  ..  .....    ...   oooo",
"oooooo  .... ...........  . oooo",
"ooooo  .................... oooo",
"oooo  ....................  oooo",
"ooo  ....   ......   ..    ooooo",
"ooo ....  oo ..... o    oooooooo",
"o   ..   ooo ..... ooooooooooooo",
"o         o  .....  oooooooooooo",
"  XXXXX X o ... ...  ooooooooooo",
" X  XXXXX o ..   ... ooooooooooo",
" XXXX XX    ..    ..  oooooooooo",
"   XXX X o ... oo  .. oooooooooo",
"o XXXXX    ... oo  ..   oooooooo",
"o XX X   ..... ooo ....  ooooooo",
"o  XXX o  ...  ooo ..... ooooooo",
"oo     oo     oooo  ...  ooooooo",
"ooooooooooooooooooo     oooooooo",
"oooooooooooooooooooooooooooooooo",
"oooooooooooooooooooooooooooooooo"
};
