/* XPM */
static char *move_right_0_xpm[] = {
/* columns rows colors chars-per-pixel */
"32 32 4 1",
"  c Gray0",
". c #7e0073007100",
"X c #820076007600",
"o c None",
/* pixels */
"oooooooooooooooooooooooooooooooo",
"oo     ooooooooooooooooooooooooo",
"o  XXX ooooooooooooooooooooooooo",
"o XX X  ooo       oooooooooooooo",
"o XXXXX  o  .....  ooooooooooooo",
"   XXX X o .....    oooooooooooo",
" XXXXXXX o .....  . oooooo   ooo",
" X XX   .o ........ oooo   .  oo",
"  XX .. .o ........ oooo ....  o",
"o   . ...    ....   oooo ..... o",
"o   .....  o  ...  oooo  ..... o",
"ooo .....   o ....  ooo .....  o",
"ooo  ....     .....    ...    oo",
"oooo  .................... ooooo",
"ooooo  ..................  ooooo",
"oooooo  ..... ... ......  oooooo",
"ooooooo  .... ...  ....  ooooooo",
"oooooooo      ....      oooooooo",
"oooooooooooo ..... ooooooooooooo",
"oooooooooooo ..... ooooooooooooo",
"ooooooooooo ....... oooooooooooo",
"ooooooooooo .......  ooooooooooo",
"ooooooooooo ...   ..  oooooooooo",
"oooooooooo  ..  o ... oooooooooo",
"oooooooooo ... ooo ..  ooooooooo",
"oooooooooo ..  ooo  .. ooooooooo",
"ooooooooo  .. ooooo ..   ooooooo",
"ooooooooo ... ooooo ....  oooooo",
"ooooooo   ... ooooo ..... oooooo",
"ooooooo ..... ooooo  ...  oooooo",
"ooooooo  ...  oooooo     ooooooo",
"oooooooo     ooooooooooooooooooo"
};
