/* XPM */
static char *elem_fire_0_xpm[] = {
/* columns rows colors chars-per-pixel */
"32 32 15 1",
"  c Gray0",
". c #820010001000",
"X c #e5000b000b00",
"o c #e2000f002f00",
"O c #e00070000000",
"+ c #dd0046004300",
"@ c #d30082000800",
"# c #cb0093003b00",
"$ c #e200b1003c00",
"% c #db00a6006700",
"& c #e200bf004300",
"* c #f400e9001600",
"= c #f100f9000900",
"- c #f000dd004900",
"; c None",
/* pixels */
";;;;;     ;;;;;;;;;;;;;;;;;;;;;;",
";;;; ===== ;;;;;;;;;;;;;;;   ;;;",
";;;; =*=*= ;;;;;;;;;;;;;; =*= ;;",
";;;; *---*      ;;;;;;;   *-* ;;",
";;;; *-$&-*=*=*= ;;;;; =**--* ;;",
";;;;; *-&$-----* ;;;;; *--** ;;;",
";;;;;; *-&$$&$&-= ;;;  *-*  ;;;;",
";;;;;; *-&@$@%$-* ;  **--= ;;;;;",
";;; ;; *-&#OO#$-*  =**-$-* ;;;;;",
";; =   *-&@O+O%$***--$&$-* ;;;;;",
";; ==**-$%OoXoO@&--$&@&--* ;;;;;",
";; =*--&@O+X.X+O%$&#%&-**= ;;;;;",
";;; *-&#O+X. XXoO#%@&-*   ;;;;;;",
";;;; *-&@OoX. .X+OO#$-* ;;;;;;;;",
";;;; **-&%O+X. XXoO%$-* ;;;;;;;;",
";;;;;  *-&@OoX..X+O#$-=  ;;;;;;;",
";;;;;; *-$%O+X. .X+O@&-*= ;;;;;;",
";;;;;; *-&@OoXX  .X+O@&-* ;;;;;;",
";;;;;; *-&#O+X. .XoO#&-*= ;;;;;;",
";;;;;; *-&#OoXX.X+O@&-*  ;;;;;;;",
";;;;;; *-&#O+X..X+O@&-* ;;;;;;;;",
";;;;; *-$%OoX. .XoO%$-* ;;;;;;;;",
";;;; *-$##%O+X.X+OO@&-*   ;;;;;;",
";;;; *-&#&$@OoXoO%@%#$-***  ;;;;",
";;; *-$%$--&%O+O@&$&##&---** ;;;",
";; =*-&$-**-&@O@&---&&$$$--= ;;;",
";; =*-$-*  *-$%&-***-----*** ;;;",
";; =*&-* ; *-&$-*   *****   ;;;;",
";;; *-* ;; *---* ;;;     ;;;;;;;",
";;; *** ;; ***** ;;;;;;;;;;;;;;;",
";;;;   ;;;;     ;;;;;;;;;;;;;;;;",
";;;;;;;;;;;;;;;;;;;;;;;;;;;;;;;;"
};
