/* XPM */
static char *fire_right_0_xpm[] = {
/* columns rows colors chars-per-pixel */
"32 32 25 1",
"  c Gray0",
". c #35002b003100",
"X c #3d0035003200",
"o c #3c0022005e00",
"O c #41003e003e00",
"+ c #440025006e00",
"@ c #4c002b007a00",
"# c #4f0044003e00",
"$ c #560053005300",
"% c #610060006000",
"& c #0b005900a800",
"* c #5b0033008e00",
"= c #5c0034009400",
"- c #69003b00a500",
"; c #920076006b00",
": c #dd0046004300",
"> c #890080008000",
", c #a5008d008a00",
"< c #b500a400a200",
"1 c #c60090008b00",
"2 c #d300ae009c00",
"3 c #d900b800a600",
"4 c #e700cb00c000",
"5 c #e300cd00ca00",
"6 c None",
/* pixels */
"66666666666666666666666666666666",
"6666666666666XXXXOO6666666666666",
"666666666666XXXXOXX6666666666666",
"666666666666OXX#;,XX666666666666",
"66666666666XXXO23&46666666666666",
"66666666666XXX%33335666666666666",
"6666666666.XXX,33336666666666666",
"6666666666XX.X,33::6666666666666",
"6666666666XXX.%2<166=*-=$2366666",
"6666666666XX..XO2-@*=*@@;3336666",
"666666666XXX.X..@@++@++o*><66666",
"666666666XX..X.X@++ooooo66666666",
"6666666666XX.XXX+oo++66666666666",
"66666666==*@@.#o+++=-66666666666",
"666666===*@+++ooo+*-=66666666666",
"66666==*@++oooooo+@=666666666666",
"66666--*+oo+oooo+++6666666666666",
"6666%<<-oo66=+o++oo6666666666666",
"6666633;+6666+++@oo6666666666666",
"666663266666=**@@oo6666666666666",
"666666666666--=@*++o666666666666",
"66666666666--@@*=@ooo66666666666",
"66666666666--+@=-*oooo6666666666",
"6666666666=-++@***@ooo6666666666",
"6666666666--++*=@@=*ooo666666666",
"666666666=-*+o=-@@=@+oo666666666",
"666666666-==oo-=@@**@oo666666666",
"666666666*=+@+-*@==@*o+666666666",
"6666666666@++@-@@*@@@*6666666666",
"66666666666@+@@@@@@@@66666666666",
"66666666666111666661116666666666",
"66666666666122666661226666666666"
};
