/* XPM */
static char *fire_left_0_xpm[] = {
/* columns rows colors chars-per-pixel */
"32 32 28 1",
"  c Gray0",
". c #35002b003100",
"X c #3d0035003200",
"o c #3c0022005e00",
"O c #41003e003e00",
"+ c #440025006e00",
"@ c #4c002b007a00",
"# c #4f0044003e00",
"$ c #4d004a004a00",
"% c #560053005300",
"& c #610060006000",
"* c #7a0069006200",
"= c #0a0050009700",
"- c #5b0033008e00",
"; c #5c0034009400",
": c #69003b00a500",
"> c #920076006b00",
", c #dd0046004300",
"< c #890080008000",
"1 c #a5008d008a00",
"2 c #b500a400a200",
"3 c #c60090008b00",
"4 c #d300ae009c00",
"5 c #d300b000ac00",
"6 c #d900b800a600",
"7 c #e700cb00c000",
"8 c #e300cd00ca00",
"9 c None",
/* pixels */
"99999999999999999999999999999999",
"9999999999999O##OXX9999999999999",
"9999999999999OO%#OXX999999999999",
"999999999999X#11%$XX999999999999",
"99999999999997=64%##X99999999999",
"99999999999988666&#OX99999999999",
"999999999999976661$O..9999999999",
"9999999999999,,661$X..9999999999",
"999966*;;;9999454%X...9999999999",
"999666>-;;;;;;:5%OX...9999999999",
"999961:++@--;;:;OOX...9999999999",
"99999+++++++-;;-#OX...X999999999",
"999999@++++@:;--O#XX..+999999999",
"9999999999+::;--@#X----+99999999",
"99999999999;:--@@-@;:;;@@9999999",
"999999999999;@@@@@o@;;;;+9999999",
"9999999999999+++++++@;-;--:99999",
"9999999999999+++++@o99@;&2499999",
"9999999999999@@@+++9999@<6699999",
"9999999999999@@@@@++9999:4699999",
"999999999999;;--@@++999999999999",
"99999999999::---@@oo+99999999999",
"9999999999::;----@++o99999999999",
"9999999999::-@@@@@+ooo9999999999",
"9999999999:;-@@@@@++oo9999999999",
"999999999;:;@@@@++@+oo+999999999",
"999999999::;@@@+++@@++o999999999",
"999999999;:---@+++@@+@o999999999",
"9999999999-@@@+@@@@@+@9999999999",
"99999999999@@@@@@@@@@99999999999",
"99999999993339999933399999999999",
"99999999994439999944399999999999"
};
