/* XPM */
static char *move_left_0_xpm[] = {
/* columns rows colors chars-per-pixel */
"32 32 27 1",
"  c Gray0",
". c #35002b003100",
"X c #3d0035003200",
"o c #3c0022005e00",
"O c #41003e003e00",
"+ c #440025006e00",
"@ c #4c002b007a00",
"# c #4f0044003e00",
"$ c #4d004a004a00",
"% c #560053005300",
"& c #610060006000",
"* c #0a0050009700",
"= c #5b0033008e00",
"- c #5c0034009400",
"; c #69003b00a500",
": c #920076006b00",
"> c #dd0046004300",
", c #890080008000",
"< c #a5008d008a00",
"1 c #b500a400a200",
"2 c #c60090008b00",
"3 c #d300ae009c00",
"4 c #d300b000ac00",
"5 c #d900b800a600",
"6 c #e700cb00c000",
"7 c #e300cd00ca00",
"8 c None",
/* pixels */
"88888888888888888888888888888888",
"8888888888888O##OXX8888888888888",
"8888888888888OO%#OXX888888888888",
"888888888888X#<<%$XX888888888888",
"88888888888886*53%##X88888888888",
"88888888888877555&#OX88888888888",
"88888888888886555<$O..8888888888",
"8888888888888>>55<$X..8888888888",
"88888888888888343%X...8888888888",
"88888888888888;4%OX...8888888888",
"88888888888888;-OOX...8888888888",
"8888888888888--=#OX...X888888888",
"888888888888;-==O#X...8888888888",
"88888888888;;-==@#.o+88888888888",
"88888888888-;==@@++oo88888888888",
"888888888888-@@@@oooo88888888888",
"8888888888888++++++++88888888888",
"8888888888888+--++@o888888888888",
"8888888888888;21;++8888888888888",
"8888888888888:55:@++888888888888",
"888888888888-;2,;@++888888888888",
"88888888888;;-;=@@oo+88888888888",
"8888888888;;-====@++o88888888888",
"8888888888;;=@@@@@+ooo8888888888",
"8888888888;-=@@@@@++oo8888888888",
"888888888-;-@@@@++@+oo+888888888",
"888888888;;-@@@+++@@++o888888888",
"888888888-;===@+++@@+@o888888888",
"8888888888=@@@+@@@@@+@8888888888",
"88888888888@@@@@@@@@@88888888888",
"88888888882228888822288888888888",
"88888888883328888833288888888888"
};
