/* XPM */
static char *move_down_0_xpm[] = {
/* columns rows colors chars-per-pixel */
"32 32 25 1",
"  c Gray0",
". c #35002b003100",
"X c #3d0035003200",
"o c #060039006900",
"O c #3c0022005e00",
"+ c #41003e003e00",
"@ c #440025006e00",
"# c #4c002b007a00",
"$ c #4f0044003e00",
"% c #4d004a004a00",
"& c #560053005300",
"* c #610060006000",
"= c #7a0069006200",
"- c #5b0033008e00",
"; c #5c0034009400",
": c #69003b00a500",
"> c #920076006b00",
", c #dd0046004300",
"< c #b500a400a200",
"1 c #c60090008b00",
"2 c #d300ae009c00",
"3 c #d900b800a600",
"4 c #e700cb00c000",
"5 c #fd00d600c200",
"6 c None",
/* pixels */
"66666666666666XXX666666666666666",
"666666666666X+$$$XX6666666666666",
"666666666666X++&%XX.666666666666",
"66666666666X.&*===X.666666666666",
"66666666666X+&o3<o&$.66666666666",
"66666666666X$&2543=$.66666666666",
"66666666666X%*3332=&.66666666666",
"6666666666+..&3,,2>$X66666666666",
"6666666666+...1231&+X.6666666666",
"6666666666+..X:2<#$$X.6666666666",
"6666666666X...#--#$+..6666666666",
"6666666666$X..O###$X..6666666666",
"666666666:%X..O@@X+X..@666666666",
"666666666:XX..####+X..O666666666",
"66666666:;X.XX;;;-XX.OO@66666666",
"66666666:-#@:;----##X@OO66666666",
"66666666;##6:;######6@@O66666666",
"66666666-##6:-@##@@O6@@@66666666",
"666666666##6;#@@@@OO6#@666666666",
"6666666663166#@@@OO6631666666666",
"666666666316;##@@@OO631666666666",
"66666666666:;###@@@O@66666666666",
"6666666666::;-##@@@OO66666666666",
"6666666666:;---#@@@OOO6666666666",
"6666666666:;--##@@#@OO6666666666",
"666666666;:;-##-@###@O@666666666",
"666666666::-###-####@OO666666666",
"666666666-:-@#--@@###@O666666666",
"6666666666-#O#-#@@####6666666666",
"66666666666##########66666666666",
"66666666666652166521666666666666",
"66666666666632166321666666666666"
};
