/* XPM */
static char *move_right_0_xpm[] = {
/* columns rows colors chars-per-pixel */
"32 32 24 1",
"  c Gray0",
". c #35002b003100",
"X c #3d0035003200",
"o c #3c0022005e00",
"O c #41003e003e00",
"+ c #440025006e00",
"@ c #4c002b007a00",
"# c #4f0044003e00",
"$ c #610060006000",
"% c #0b005900a800",
"& c #5b0033008e00",
"* c #5c0034009400",
"= c #69003b00a500",
"- c #920076006b00",
"; c #dd0046004300",
": c #890080008000",
"> c #a5008d008a00",
", c #b500a400a200",
"< c #c60090008b00",
"1 c #d300ae009c00",
"2 c #d900b800a600",
"3 c #e700cb00c000",
"4 c #e300cd00ca00",
"5 c None",
/* pixels */
"55555555555555555555555555555555",
"5555555555555XXXXOO5555555555555",
"555555555555XXXXOXX5555555555555",
"555555555555OXX#->XX555555555555",
"55555555555XXXO12%35555555555555",
"55555555555XXX$22224555555555555",
"5555555555.XXX>22225555555555555",
"5555555555XX.X>22;;5555555555555",
"5555555555XXX.$1,<55555555555555",
"5555555555XX..XO1=55555555555555",
"555555555XXX.X..*=55555555555555",
"555555555XX..X.X&**5555555555555",
"5555555555XXXXXX@&*=555555555555",
"55555555555&&X#@+&*==55555555555",
"55555555555*&+@@+@&=*55555555555",
"55555555555**o+@@+@*555555555555",
"55555555555&=@+@@++5555555555555",
"555555555555*@++=&o5555555555555",
"5555555555555++=,<#5555555555555",
"555555555555*&&-22-5555555555555",
"555555555555==*=:>=o555555555555",
"55555555555==@@&=&ooo55555555555",
"55555555555==+@*=&oooo5555555555",
"5555555555*=++@&&&@ooo5555555555",
"5555555555==++&*@@*&ooo555555555",
"555555555*=&+o*=@@*@+oo555555555",
"555555555=**oo=*@@&&@oo555555555",
"555555555&*+@+=&@**@&o+555555555",
"5555555555@++@=@@&@@@&5555555555",
"55555555555@+@@@@@@@@55555555555",
"55555555555<<<55555<<<5555555555",
"55555555555<1155555<115555555555"
};
