/* XPM */
static char *fire_up_0_xpm[] = {
/* columns rows colors chars-per-pixel */
"32 32 24 1",
"  c Gray0",
". c #12000c000300",
"X c #250018000500",
"o c #250018000600",
"O c #380024000900",
"+ c #48002e000b00",
"@ c #4b0030000c00",
"# c #4b0031000c00",
"$ c #580039000e00",
"% c #5b003b000e00",
"& c #5d003c000f00",
"* c #5d003d000f00",
"= c #6b0045001100",
"- c #700048001100",
"; c #700049001200",
": c #7b004f001300",
"> c #800053001400",
", c #830055001500",
"< c #8c005a001600",
"1 c #8e005b001600",
"2 c #91005d001700",
"3 c #93005f001700",
"4 c #960061001800",
"5 c None",
/* pixels */
"55555555555555555555555555555555",
"55555555555555555555555555555555",
"55555555555555555555555555555555",
"555555555555555X 555555555555555",
"5555555555555      5555555555555",
"5555555555555 +==%  555555555555",
"5555555555555 :<<:% 555555555555",
"5555555555555 121<=  55555555555",
"555555555555  >431=  55555555555",
"555555555555  -442=  55555555555",
"5555555555555 -442= 555555555555",
"5555555555555 -442$ 555555555555",
"5555555555555 -442$ 555555555555",
"5555555555555 ;44>%o 55555555555",
"5555555555555 *,4;O 555555555555",
"5555555555555 O;4;o 555555555555",
"5555555555555  ;4;o 555555555555",
"55555555555555 ;4;O 555555555555",
"55555555555555 ;4;#  55555555555",
"55555555555555 ;4,*o 55555555555",
"55555555555555 ;44;o 55555555555",
"55555555555555 ;44;o555555555555",
"55555555555555 &44&.555555555555",
"55555555555555 @44  555555555555",
"55555555555555  44 5555555555555",
"555555555555555 4, 5555555555555",
"555555555555555 ,  5555555555555",
"555555555555555   55555555555555",
"5555555555555555  55555555555555",
"5555555555555555  55555555555555",
"55555555555555555555555555555555",
"55555555555555555555555555555555"
};
