/* XPM */
static char *fire_upleft_0_xpm[] = {
/* columns rows colors chars-per-pixel */
"32 32 4 1",
"  c Gray0",
". c #7a0051002500",
"X c #e5000b000b00",
"o c None",
/* pixels */
"oooooooooooooooooooooooooooooooo",
"oooooooooooooooooooooooooooooooo",
"oooooooooooooooooooooooooooooooo",
"oooooooooooooooooooooooooooooooo",
"oooooooooooooooooooooooooooooooo",
"oooooooooooooooooooooooooooooooo",
"oooooooooooooooooooooooooooooooo",
"oooooooooooooooooooooooooooooooo",
"ooooooo  ooooooooooooooooooooooo",
"ooooooo ..oooooooooooooooooooooo",
"ooooooooo..ooooooooooooooooooooo",
"oooooooooo..oooooooooooooooooooo",
"ooooooooooo..ooooooooooooooooooo",
"oooooooooooo..oooooooooooooooooo",
"ooooooooooooo..ooooooooooooooooo",
"oooooooooooooo..oooooooooooooooo",
"ooooooooooooooo..ooooooooooooooo",
"oooooooooooooooo..oooooooooooooo",
"ooooooooooooooooo..ooooooooooooo",
"oooooooooooooooooo..oooooooooooo",
"ooooooooooooooooooo..ooooooooooo",
"oooooooooooooooooooo..oooooooooo",
"ooooooooooooooooooooo..XXooooooo",
"oooooooooooooooooooooo..XXoooooo",
"ooooooooooooooooooooooX..XXooooo",
"ooooooooooooooooooooooXX..oooooo",
"oooooooooooooooooooooooXXooooooo",
"ooooooooooooooooooooooooXooooooo",
"oooooooooooooooooooooooooooooooo",
"oooooooooooooooooooooooooooooooo",
"oooooooooooooooooooooooooooooooo",
"oooooooooooooooooooooooooooooooo"
};
