/* XPM */
static char *fire_up_0_xpm[] = {
/* columns rows colors chars-per-pixel */
"32 32 4 1",
"  c Gray0",
". c #390077002d00",
"X c #3a0079002d00",
"o c None",
/* pixels */
"oooooooooooooooXoooooooooooooooo",
"oooooooooooooooXoooooooooooooooo",
"oooooooooooooo X ooooooooooooooo",
"ooooooooooooo  X  oooooooooooooo",
"ooooooooooooo ... oooooooooooooo",
"ooooooooooooo .  . ooooooooooooo",
"ooooooooooooo      ooooooooooooo",
"ooooooooooooo       oooooooooooo",
"oooooooooooo        oooooooooooo",
"oooooooooooo X    X  ooooooooooo",
"ooooooooooo  X    XX ooooooooooo",
"ooooooooooo  X    XX ooooooooooo",
"ooooooooooo  X.  ..X ooooooooooo",
"ooooooooooo  X.  X.. ooooooooooo",
"oooooooooooo ..XXXX. ooooooooooo",
"oooooooooooo  XXXXXX ooooooooooo",
"ooooooooooooo XXXXXX ooooooooooo",
"ooooooooooooo XXXXX  ooooooooooo",
"ooooooooooooo XXXXX oooooooooooo",
"ooooooooooooo XXXXX oooooooooooo",
"ooooooooooooo .XXX.  ooooooooooo",
"ooooooooooooo ..XX.X ooooooooooo",
"oooooooooooo  X.X..X ooooooooooo",
"oooooooooooo XX.X.XX ooooooooooo",
"oooooooooooo XX  .X  ooooooooooo",
"oooooooooooo  ..    oooooooooooo",
"ooooooooooooo      ooooooooooooo",
"oooooooooooooooo  oooooooooooooo",
"ooooooooooooooo   oooooooooooooo",
"oooooooooooooo    oooooooooooooo",
"ooooooooooooo    ooooooooooooooo",
"ooooooooooooooo oooooooooooooooo"
};
