/* XPM */
static char *fire_left_0_xpm[] = {
/* columns rows colors chars-per-pixel */
"32 32 8 1",
"  c Gray0",
". c #390075002d00",
"X c #390077002d00",
"o c #3a0079002d00",
"O c #3a007b002e00",
"+ c #e2000f002f00",
"@ c #f000dd004900",
"# c None",
/* pixels */
"##################  ############",
"########### #######    #########",
"##########   #######     #######",
"########     #####  ###  #######",
"########      ####        ######",
"#######  ..      #####     #####",
"######  +@.    ######   #   ####",
"#####  .@+.      ####  ###   ###",
"####  ....         #  ####   ###",
"###  .....      ###########   ##",
"###  . .   .  o   #########   ##",
"####      .. oooo    ######   ##",
"#####   #   ooooooo   ####   ###",
"#######   ooooooooooo   ##   ###",
"####    O oo oooooooooo      ###",
"###  OOO     oooo ooooooo    ###",
"### OO     ooooo  ooooooooo  ###",
"##     ##  ooo    oooooo  oo  ##",
"###   #### o   ##  oooo  oooo ##",
"#### #####  X ###     o ooooo ##",
"########### X ##### X    oooo ##",
"###########  X ####  X # ooo  ##",
"########### XX ##### X  ooo  ###",
"########### X  ####      o  ####",
"#########  XX ####    #  o #####",
"#########     ####   ##     ####",
"##########  #######  ##  XX ####",
"######################## X  ####",
"######################## X #####",
"########################    ####",
"########################    ####",
"################################"
};
