/* XPM */
static char *fire_down_0_xpm[] = {
/* columns rows colors chars-per-pixel */
"32 32 5 1",
"  c Gray0",
". c #3a0079002d00",
"X c #3a007b002e00",
"o c #3a007d002e00",
"O c None",
/* pixels */
"OOOOOOOOOOOOOOO OOOOOOOOOOOOOOOO",
"OOOOOOOOOOOOO    OOOOOOOOOOOOOOO",
"OOOOOOOOOOOOOO    OOOOOOOOOOOOOO",
"OOOOOOOOOOOOOOO   OOOOOOOOOOOOOO",
"OOOOOOOOOOOOOOOO  OOOOOOOOOOOOOO",
"OOOOOOOOOOOOO      OOOOOOOOOOOOO",
"OOOOOOOOOOOO  ..    OOOOOOOOOOOO",
"OOOOOOOOOOOO XX  .X  OOOOOOOOOOO",
"OOOOOOOOOOOO XX...XX OOOOOOOOOOO",
"OOOOOOOOOOOO  X....X OOOOOOOOOOO",
"OOOOOOOOOOOOO .....X OOOOOOOOOOO",
"OOOOOOOOOOOOO .....  OOOOOOOOOOO",
"OOOOOOOOOOOOO ..... OOOOOOOOOOOO",
"OOOOOOOOOOOOO ..... OOOOOOOOOOOO",
"OOOOOOOOOOOOO .....  OOOOOOOOOOO",
"OOOOOOOOOOOOO ...... OOOOOOOOOOO",
"OOOOOOOOOOOO  ...... OOOOOOOOOOO",
"OOOOOOOOOOOO oo....o OOOOOOOOOOO",
"OOOOOOOOOOO  Xo  .oo OOOOOOOOOOO",
"OOOOOOOOOOO  Xo  ooX OOOOOOOOOOO",
"OOOOOOOOOOO  X    XX OOOOOOOOOOO",
"OOOOOOOOOOO  X    XX OOOOOOOOOOO",
"OOOOOOOOOOOO X    X  OOOOOOOOOOO",
"OOOOOOOOOOOO        OOOOOOOOOOOO",
"OOOOOOOOOOOOO       OOOOOOOOOOOO",
"OOOOOOOOOOOOO      OOOOOOOOOOOOO",
"OOOOOOOOOOOOO X  o OOOOOOOOOOOOO",
"OOOOOOOOOOOOO XXX OOOOOOOOOOOOOO",
"OOOOOOOOOOOOO  o  OOOOOOOOOOOOOO",
"OOOOOOOOOOOOOO o OOOOOOOOOOOOOOO",
"OOOOOOOOOOOOOOOoOOOOOOOOOOOOOOOO",
"OOOOOOOOOOOOOOOoOOOOOOOOOOOOOOOO"
};
