/* XPM */
static char *move_right_0_xpm[] = {
/* columns rows colors chars-per-pixel */
"32 32 8 1",
"  c Gray0",
". c #390075002d00",
"X c #390077002d00",
"o c #3a0079002d00",
"O c #3a007b002e00",
"+ c #e2000f002f00",
"@ c #f000dd004900",
"# c None",
/* pixels */
"############  ##################",
"#########    ####### ###########",
"#######     #######   ##########",
"#######  ###  #####     ########",
"######        ####      ########",
"#####     #####      ..  #######",
"####   #   ######    .@+  ######",
"###   ###  ####      .+@.  #####",
"###   ####  #         ....  ####",
"##   ###########      .....  ###",
"##   #########   o  .   . .  ###",
"##   ######    oooo ..      ####",
"###   ####   ooooooo   #   #####",
"###   ##   ooooooooooo   #######",
"###      oooooooooo oo O    ####",
"###    ooooooo oooo     OOO  ###",
"###  ooooooooo  ooooo     OO ###",
"##  oo  oooooo    ooo  ##     ##",
"## oooo  oooo  ##   o ####   ###",
"## ooooo o     ### X  ##### ####",
"## oooo    X ##### X ###########",
"##  ooo # X  #### X  ###########",
"###  ooo  X ##### XX ###########",
"####  o      ####  X ###########",
"##### o  #    #### XX  #########",
"####     ##   ####     #########",
"#### XX  ##  #######  ##########",
"####  X ########################",
"##### X ########################",
"####    ########################",
"####    ########################",
"################################"
};
