/* XPM */
static char *elem_earth_3_xpm[] = {
/* columns rows colors chars-per-pixel */
"32 32 26 1",
"  c Gray0",
". c #2a001c000600",
"X c #35002b003100",
"o c #3d0035003200",
"O c #3c0022005e00",
"+ c #48002f000b00",
"@ c #41003e003e00",
"# c #4f0044003e00",
"$ c #7a0051002500",
"% c #4d004a004a00",
"& c #560053005300",
"* c #610060006000",
"= c #6d006b006b00",
"- c #7a0069006200",
"; c #7e0073007100",
": c #820010001000",
"> c #960061001800",
", c #990073004900",
"< c #920076006b00",
"1 c #b10075006e00",
"2 c #b50089005600",
"3 c #cb0093003b00",
"4 c #db00a6006700",
"5 c #a5008d008a00",
"6 c #c60090008b00",
"7 c None",
/* pixels */
"77777777777777777777777777777777",
"77777777777777777777777777777777",
"77777777777777777777777777777777",
"77777777@... o77777@ ...&7777777",
"777777.X-22,>$.:7@.$>>>,>o:77777",
"77777.-62222,>>$ +>>>>>,,2*=7777",
"7777.-4432222>>+.$>,,,>,,22$$777",
"7777.64432222>>++>,23,>>,112X777",
"777.-23322221.++>>12,1,,,,,2-.77",
"777.222222,2,->,,,2,$22222,,2.77",
"777.22222,>,,,22,,2>,222222,<.77",
"777.222,>122,,,,>,-1444222222.77",
"777.22,>2222>,,1,,22344444462.77",
"777.,2,221,2,,,,,,2,34444443-.77",
"7777X222->>>>>,,,,2#*,464332X777",
"7777.%$$$222,,,,>,,1+ $>2,&$.777",
"77777.+++,,,,2,,>,,>>+++#...7777",
"7777 $>>>21,22,,->,,>>>>++$$#777",
"7777.>>,,22,2,>2,<2,,>>>>>>>.777",
"777 $>,222,22>1,>$>,,$>1>,>>$ 77",
"777.>>,22,2,$>2,,2>,21>$>22,>+77",
"777.>222,,,,,,,22252,,,>$>2,>+77",
"777.22222,,,,,,,2243>$$-1,,2>.77",
"777.222222,222>@><3,462221232.77",
"777 >2222>$,,,2-.$444442,>,2-o77",
"7777.2222,,,,,22#&24443>>222X777",
"7777.-2222222222>,23636,,22-=777",
"77777 $22222225=o-22222222-;7777",
"777777.O>5252,X&7&.,5252-..77777",
"77777777.X.X.+77777.X.X..7777777",
"77777777777777777777777777777777",
"77777777777777777777777777777777"
};
