/* XPM */
static char *elem_earth_0_xpm[] = {
/* columns rows colors chars-per-pixel */
"32 32 26 1",
"  c Gray0",
". c #2a001c000600",
"X c #35002b003100",
"o c #3d0035003200",
"O c #3c0022005e00",
"+ c #48002f000b00",
"@ c #41003e003e00",
"# c #4f0044003e00",
"$ c #7a0051002500",
"% c #4d004a004a00",
"& c #560053005300",
"* c #610060006000",
"= c #6d006b006b00",
"- c #7a0069006200",
"; c #7e0073007100",
": c #820010001000",
"> c #960061001800",
", c #990073004900",
"< c #920076006b00",
"1 c #b10075006e00",
"2 c #b50089005600",
"3 c #cb0093003b00",
"4 c #db00a6006700",
"5 c #a5008d008a00",
"6 c #c60090008b00",
"7 c None",
/* pixels */
"77777777777777777777777777777777",
"77777777777777777777777777777777",
"77777777......77777 ++..o7777777",
"777777$X-2<22-X.7#.$>>>2-X=77777",
"77777=$22,,2632$.$>>,,2322-;7777",
"7777:*21,,22443&.$>>22,2,22-.777",
"7777o221,222443,.+>,2>,1>222.777",
"777&>,,,,2224442#+>>>$12,>,2-.77",
"777.,,,>,222446>+>>1$>-22>,22.77",
"777.>>>>,224444$+>>>>,$243625X77",
"777.>>,,122444, +>>$1,$644322.77",
"777 >>,3,$,433*+>>,,2,>444625X77",
"777@$>,22,>12,#1>,,,,23,4432,.77",
"7777.>>,122-222,,,2>>5434222.777",
"7777@+$>>,,,,,,,,><$222<$&,-&777",
"77777 .+>,,>,,,>>-,>,22>.#>o7777",
"7777:$+++,2,1,,,,,2,,2,@-22=&777",
"7777.>>>+>2,,,,,,,>12,,>2225X777",
"777o$>>>.-,,,,>,22,>>,,2,,22,+77",
"777 >,221,,,>,>,,222$,,2,,222.77",
"777.,22222,222>2,,,2,,,2,,225X77",
"777.22222,>22,>2,12,2,,,$,222.77",
"777.222222,121>2,222,,,2>,225X77",
"777@-233222>22-$+>,22,222222>.77",
"7777X644322,>22$+>,222222222O777",
"7777.-443222,,2$+>>,,222222$.777",
"77777.-62222222%.$>>>22222- 7777",
"777777..-2222,X.7 .$>>22>..77777",
"77777777......77777 .... 7777777",
"77777777777777777777777777777777",
"77777777777777777777777777777777",
"77777777777777777777777777777777"
};
