/* XPM */
static char *elem_earth_11_xpm[] = {
/* columns rows colors chars-per-pixel */
"32 32 26 1",
"  c Gray0",
". c #2a001c000600",
"X c #35002b003100",
"o c #3d0035003200",
"O c #3c0022005e00",
"+ c #48002f000b00",
"@ c #41003e003e00",
"# c #4f0044003e00",
"$ c #7a0051002500",
"% c #4d004a004a00",
"& c #560053005300",
"* c #610060006000",
"= c #6d006b006b00",
"- c #7a0069006200",
"; c #7e0073007100",
": c #820010001000",
"> c #960061001800",
", c #990073004900",
"< c #920076006b00",
"1 c #b10075006e00",
"2 c #b50089005600",
"3 c #cb0093003b00",
"4 c #db00a6006700",
"5 c #a5008d008a00",
"6 c #c60090008b00",
"7 c None",
/* pixels */
"77777777777777777777777777777777",
"77777777777777777777777777777777",
"7777777..X.X.77777+.X.X.77777777",
"77777..-2525,.&7&X,2525>O.777777",
"7777;-22222222-o=52222222$ 77777",
"777=-22,,63632,>2222222222-.7777",
"777X222>>34442&#22,,,,,2222.7777",
"77o-2,>,244444$.-2,,,$>2222> 777",
"77.232122264,3<>@>222,222222.777",
"77.>2,,1-$$>3422,,,,,,,22222.777",
"77+>,2>$>,,,25222,,,,,,,222>.777",
"77+>,22>$>12,>2,,2>$,2,22,>>.777",
"77 $>>,>1>$,,>$>,1>22,222,>$ 777",
"777.>>>>>>>,,2<,2>,2,22,,>>.7777",
"777#$$++>>>>,,>-,,22,12>>>$ 7777",
"7777...#+++>>,,>,,2,,,,+++.77777",
"777.$&,2>$ +1,,>,,,,222$$$%.7777",
"777X233464,*#2,,,,>>>>>-222X7777",
"77.-34444443,2,,,,,,2,122,2,.777",
"77.26444444322,,1,,>2222>,22.777",
"77.2222224441-,>,,,,221>,222.777",
"77.<,222222,>2,,22,,,>,22222.777",
"77.2,,22222$,2,,,>-,2,222222.777",
"77.-2,,,,,1,21>>++.12222332-.777",
"777X211,>>,32,>++>>22223446.7777",
"777$$22,,>,,,>$.+>>2222344-.7777",
"7777=*2,,>>>>>+ $>>,22226-.77777",
"77777:o>,>>>$.@7:.$>,22-X.777777",
"7777777&... @77777o ...@77777777",
"77777777777777777777777777777777",
"77777777777777777777777777777777",
"77777777777777777777777777777777"
};
