/* XPM */
static char *elem_earth_13_xpm[] = {
/* columns rows colors chars-per-pixel */
"32 32 29 1",
"  c Gray0",
". c #2a001c000600",
"X c #35002b003100",
"o c #3d0035003200",
"O c #3c0022005e00",
"+ c #48002f000b00",
"@ c #41003e003e00",
"# c #4f0044003e00",
"$ c #7a0051002500",
"% c #4d004a004a00",
"& c #560053005300",
"* c #610060006000",
"= c #6d006b006b00",
"- c #7a0069006200",
"; c #7e0073007100",
": c #820010001000",
"> c #960061001800",
", c #990073004900",
"< c #820076007600",
"1 c #920076006b00",
"2 c #b10075006e00",
"3 c #b50089005600",
"4 c #d30082000800",
"5 c #cb0093003b00",
"6 c #db00a6006700",
"7 c #890080008000",
"8 c #a5008d008a00",
"9 c #c60090008b00",
"0 c None",
/* pixels */
"00000000000o#%-1$X+.000000000000",
"0000000000.$13333,1@X00000000000",
"000000000+$,52,3,338@.0000000000",
"00000000.$>,33>,>,338#.000000000",
"00000000+>,3,,3235533,+000000000",
"0000000o+>,3>>2365693,X000000000",
"0000000#$>>,>>->966653=000000000",
"00000.+.#$>>>$,$,65611$#&0000000",
"000.#%>#.+$>2>2,>335$&><-%#.0000",
"00.$855,$@#>>$,23551##33333#X000",
"0.$396655>+$>>,,,832$*333333+X00",
".$1,35669,#+>>,,>333-$3,,3337#.0",
"#1,3336666$.>>,3$,,3,,3,,,333>00",
"%3,,333666;#>,,>,>,2,,,3,>,33>O0",
"$22,3336653&>,,>132,>,,,,>,331+0",
"-32,,335653,3,>,,,>>,>1,,33333X0",
"$3,,,,323333,,,,,,233,3,,33333@0",
"@,,>>,2$>,-,,,,,,33,3,3,,3333$.0",
"&>,>,23,33,>,2,,>,,,233333333$ 0",
"o+>>>,332,,,,,,,>,3,3,,3,,33>.00",
"0.+>>,>>>>,32,,>,>23$$,>,>>$.000",
"00..$$>$##+>,,,,3,>,#+$>>$$.0000",
"000X@.+.++$+-,,3332->$+#+. 00000",
"0000000.#$>#,2,,33333>@000000000",
"0000000:$>>423,,2>>,,3@000000000",
"00000000+>,3333333,23,o000000000",
"00000000@>,3333333333>.000000000",
"00000000 X2333555333-.0000000000",
"000000000.+33366533>.00000000000",
"0000000000.#-,959-$.000000000000",
"00000000000@0.###..0000000000000",
"00000000000000000000000000000000"
};
