/* XPM */
static char *fire_left_0_xpm[] = {
/* columns rows colors chars-per-pixel */
"32 32 4 1",
"  c Gray0",
". c #b50089005600",
"X c #db00a6006700",
"o c None",
/* pixels */
"oooooooooooooooooooooooooooooooo",
"oooooooooooooooooooooooooooooooo",
"oooooooooooooooooooooooooooooooo",
"oooooooooooooo       ooooooooooo",
"ooooooooooooo  X....  oooooooooo",
"oooooooooooo    ..... oooooooooo",
"oooooooooooo X  XX... oooooooooo",
"oooo    oooo XXXXXX.. oooooooooo",
"ooo  X  oooo XXXXXXXX oooooooooo",
"ooo XXX  ooo  ...XX  ooooooooooo",
"o     X.       XXX  oooooooooooo",
"o XXX XX XXXX XXXXX oooooooooooo",
"o   ...XXXXX  XXXX  oooooooooooo",
"oo     XXXX  XXXX   oooooooooooo",
"ooooo    XX XXXX  .  ooooooooooo",
"oooooooo    XXXX .X   oooooooooo",
"ooooooooooo XXXXXXXX  oooooooooo",
"ooooooooooo  XX.XXXXX  ooooooooo",
"oooooooooooo  ...XXXXX  oooooooo",
"ooooooooooo  ....  XXX    oooooo",
"ooooooooooo ......  XXXX.  ooooo",
"oooooooooo  ...  ..  XXX.. ooooo",
"oooooooooo ...    .. ..XX. ooooo",
"oooooooooo ... oo .. X..X  ooooo",
"ooooooooo  XX  oo  X   .  oooooo",
"ooooooooo XX  ooo   X    ooooooo",
"ooooooo   XX oooooo ...   oooooo",
"oooooo  XXX. oooooo ..... oooooo",
"oooooo ..... oooooo  ...  oooooo",
"oooooo  ...  ooooooo     ooooooo",
"ooooooo     oooooooooooooooooooo",
"oooooooooooooooooooooooooooooooo"
};
