/* XPM */
static char *fire_up_0_xpm[] = {
/* columns rows colors chars-per-pixel */
"32 32 7 1",
"  c Gray0",
". c #3c002d001c00",
"X c #b50089005600",
"o c #ce009c006100",
"O c #d700a3006500",
"+ c #db00a6006700",
"@ c None",
/* pixels */
"@@@@@@@@@@@@@@@@@@@@@@@@@@@@@@@@",
"@@@@@@@@@@@@@@@@@@@@@@@@@@@@@@@@",
"@@@@@@@@@@@@@@@@@@@@@@@@@@@@@@@@",
"@@@@@@@@@@@@@       @@@@@@@@@@@@",
"@@@@@@@@@@@@  XXXXX  @@@@@@@@@@@",
"@@@@@@@@@@@  XXXXXXX @@@@@@@@@@@",
"@@@@@@@@@@@ XXX++XXX @@@@@@@@@@@",
"@@@@@@@@@@@ XX++++XX @@   @@@@@@",
"@@@@@@@@@@@ ++++++++ @  X  @@@@@",
"@@@@@@@@     ++++++    X X @@@@@",
"@@@@@@@  X    ++++  @ +XXX @@@@@",
"@@@@@@   XX+   ++     ++XX @@@@@",
"@@@@@@ X  XX +++++    ++X  @@@@@",
"@@@@@@ XXX++ O++++ +++++  @@@@@@",
"@@@@@@  X++++O+++++++++  @@@@@@@",
"@@@@@@@     ++++++++++  @@@@@@@@",
"@@@@@@@@@   +++++++ +  @@@@@@@@@",
"@@@@@@@@@    ++++++   @@@@@@@@@@",
"@@@@@@@@@@@@  XXXXX @@@@@@@@@@@@",
"@@@@@@@@@@@@ +o+XXX @@@@@@@@@@@@",
"@@@@@@@@@@@  ++ .XX  @@@@@@@@@@@",
"@@@@@@@@@@@ ++   XXX @@@@@@@@@@@",
"@@@@@@@@@   ++    XX @@@@@@@@@@@",
"@@@@@@@@  +++X @  ++  @@@@@@@@@@",
"@@@@@@@@ XXXXX @@ +++ @@@@@@@@@@",
"@@@@@@@@  XXX  @@ XXX    @@@@@@@",
"@@@@@@@@@     @@@ XXXXX  @@@@@@@",
"@@@@@@@@@@@@@@@@@  XXX  @@@@@@@@",
"@@@@@@@@@@@@@@@@@@     @@@@@@@@@",
"@@@@@@@@@@@@@@@@@@@@@@@@@@@@@@@@",
"@@@@@@@@@@@@@@@@@@@@@@@@@@@@@@@@",
"@@@@@@@@@@@@@@@@@@@@@@@@@@@@@@@@"
};
