/* XPM */
static char *move_up_0_xpm[] = {
/* columns rows colors chars-per-pixel */
"32 32 6 1",
"  c Gray0",
". c #820076007600",
"X c #b50089005600",
"o c #d700a3006500",
"O c #db00a6006700",
"+ c None",
/* pixels */
"++++++++++++++++++++++++++++++++",
"++++++++++++++++++++++++++++++++",
"++++++++++++++++++++++++++++++++",
"+++++++++++++       ++++++++++++",
"++++++++++++  XXXXX  +++++++++++",
"+++++++++++  XXXXXXX +++++++++++",
"+++++++++++ XXXOOXXX +++++++++++",
"+++++++++++ XXOOOOXX +++++++++++",
"+++++++++++ OOOOOOOO +++++++++++",
"++++++++     OOOOOO  +++++++++++",
"+++++++  X    OOOO  ++++++++++++",
"++++++   XXO   OO   ++++++++++++",
"++++++ X  XX OOOOOO     ++++++++",
"++++++ XXXOO oOOOOO  XO  +++++++",
"++++++  XOOOOoOOOOO OOOO  ++++++",
"+++++++    OOOOOOOOOOOOOO  +++++",
"+++++++++  OOOOOOOOOOOOOOO  ++++",
"+++++++++     OOOOOO   OOOX  +++",
"+++++++++++++ XXXXX ++  OOXX +++",
"+++++++++++++ XXXXX +++ OXXX   +",
"++++++++++++  XXXXX  +  XX X   +",
"+++++++++++  XXX XXX + X XX ..  ",
"+++++++++++ OOO   XX + X   .. . ",
"++++++++++  OO    OO    ....... ",
"++++++++++ OO  ++ OOO + . ...   ",
"++++++++   OO  ++ XXX    ..... +",
"+++++++  OOOX +++ XXXXX   . .. +",
"+++++++ XXXXX +++  XXX  + ...  +",
"+++++++  XXX  ++++     ++     ++",
"++++++++     +++++++++++++++++++",
"++++++++++++++++++++++++++++++++",
"++++++++++++++++++++++++++++++++"
};
