/* XPM */
static char *fire_right_0_xpm[] = {
/* columns rows colors chars-per-pixel */
"32 32 7 1",
"  c Gray0",
". c #990073004900",
"X c #d30082000800",
"o c #db00a6006700",
"O c #f700bb007600",
"+ c #d200dd00dd00",
"@ c None",
/* pixels */
"@@@@@@@@@@@@@@@@@@@@@@@@@@@@@@@@",
"@@@@@@@@@@@@@@@@@@@@@@@@@@@@@@@@",
"@@@@@@@@@@@@@      @@@@@@@@@@@@@",
"@@@@@@@@@@@@  OOOO   @@@@@@@@@@@",
"@@@@@@@@@@@  OOOOOoo @@@@@@@@@@@",
"@@@@@@@@@@@ OOOOO  o  @@@@@@@@@@",
"@@@@@@@@@@  oOOooo oo @@@@@@@@@@",
"@@@@@@@@@@ oXXo oooo  @@@@@@@@@@",
"@@@@@@@@@@  XXo ooo   @@@@@@@@@@",
"@@@@@@@@@@@  oo  oo  @@@@@@@@@@@",
"@@@@@@@@@@@@        @@@@@@@@@@@@",
"@@@@@@@@@    oo    @@@@@@@@@@@@@",
"@@@@@@@@  .ooooo      @@@@@@@@@@",
"@@@@@@@@  ooooooo ooo  @@@@@@@@@",
"@@@@@@@@ ooooo  o  ooo @@@@@@@@@",
"@@@@@@@@  .oooo     o    @@@@@@@",
"@@@@@@@@@   oooooo    o  @@@@@@@",
"@@@@@@@@@@    .ooooooooo @@@@@@@",
"@@@@@@@@@@ .o    .oooo   @@@@@@@",
"@@@@@@@@@@ .ooo..      @@@@@@@@@",
"@@@@@@@@    oooo.  @@@@@@@@@@@@@",
"@@@@@@@  ++ oooo.   @@@@@@@@@@@@",
"@@@@@@      .oo.. +  @@@@@@@@@@@",
"@@@@@  ++++       ++      @@@@@@",
"@@@@  ++++++++++     ++++  @@@@@",
"@@@ +++++++++   +++++++  ++ @@@@",
"@@@ +++ ++++++++ +++++++ ++ @@@@",
"@@@ +++   ++++++++++++   ++ @@@@",
"@@@@  +++++++++++++ +++++  @@@@@",
"@@@@@         +++   +     @@@@@@",
"@@@@@@@@@@@@@   +++   @@@@@@@@@@",
"@@@@@@@@@@@@@@@     @@@@@@@@@@@@"
};
