/* XPM */
static char *move_up_0_xpm[] = {
/* columns rows colors chars-per-pixel */
"32 32 8 1",
"  c Gray0",
". c #990073004900",
"X c #b50089005600",
"o c #db00a6006700",
"O c #f700bb007600",
"+ c #d200dd00dd00",
"@ c Gray100",
"# c None",
/* pixels */
"################################",
"################################",
"################################",
"###########      ###############",
"##########  OOOO   #############",
"#########  OOOOOoo #############",
"######### OOO@OOOo  ############",
"########  oO@++OOOo ############",
"######## ooOO@OOOOo ############",
"########  ooOOOOOo  ############",
"########   ..Oooo. #############",
"#######      ....  #############",
"####### oo.oooXooo    ##########",
"####### oo.oooXoooo..  #########",
"#######  o..oXXooo..oo #########",
"########   .XXoXXX...  #########",
"#########  oooooooo.  ##########",
"########## ooooooo  ############",
"##########   oXooo #############",
"#########  +       #############",
"########   ++@+++      #########",
"#######  +++ @@@ ++ +++  #######",
"######   +++  @  +++  ++  ######",
"#####  + @@++   ++@@+     ######",
"####  ++  @@@++++@@@++ @@  #####",
"### +@@++  @@+  + @+  +  @+ ####",
"### @@@ +++++++++    +++ @@ ####",
"### ++@   ++++@+++++++   @@ ####",
"####  @@++++++@@@++ +++++  #####",
"#####         +++   +     ######",
"#############   +++   ##########",
"###############     ############"
};
