/* XPM */
static char *move_left_0_xpm[] = {
/* columns rows colors chars-per-pixel */
"32 32 7 1",
"  c Gray0",
". c #990073004900",
"X c #d30082000800",
"o c #db00a6006700",
"O c #f700bb007600",
"+ c #d200dd00dd00",
"@ c None",
/* pixels */
"@@@@@@@@@@@@@@@@@@@@@@@@@@@@@@@@",
"@@@@@@@@@@@@@@@@@@@@@@@@@@@@@@@@",
"@@@@@@@@@@@@@      @@@@@@@@@@@@@",
"@@@@@@@@@@@   OOOO  @@@@@@@@@@@@",
"@@@@@@@@@@@ ooOOOOO  @@@@@@@@@@@",
"@@@@@@@@@@  o  OOOOO @@@@@@@@@@@",
"@@@@@@@@@@ oo oooOOo  @@@@@@@@@@",
"@@@@@@@@@@  oooo oXXo @@@@@@@@@@",
"@@@@@@@@@@   ooo oXX  @@@@@@@@@@",
"@@@@@@@@@@@  oo  oo  @@@@@@@@@@@",
"@@@@@@@@@@@@        @@@@@@@@@@@@",
"@@@@@@@@@@@@@    oo    @@@@@@@@@",
"@@@@@@@@@@      ooooo.  @@@@@@@@",
"@@@@@@@@@  ooo ooooooo  @@@@@@@@",
"@@@@@@@@@ ooo  o  ooooo @@@@@@@@",
"@@@@@@@    o     oooo.  @@@@@@@@",
"@@@@@@@  o    oooooo   @@@@@@@@@",
"@@@@@@@ ooooooooo.    @@@@@@@@@@",
"@@@@@@@   oooo.    o. @@@@@@@@@@",
"@@@@@@@@@      ..ooo. @@@@@@@@@@",
"@@@@@@@@@@@@@  .oooo    @@@@@@@@",
"@@@@@@@@@@@@   .oooo ++  @@@@@@@",
"@@@@@@@@@@@  + ..oo.      @@@@@@",
"@@@@@@      ++       ++++  @@@@@",
"@@@@@  ++++     ++++++++++  @@@@",
"@@@@ ++  +++++++   +++++++++ @@@",
"@@@@ ++ +++++++ ++++++++ +++ @@@",
"@@@@ ++   ++++++++++++   +++ @@@",
"@@@@@  +++++ +++++++++++++  @@@@",
"@@@@@@     +   +++         @@@@@",
"@@@@@@@@@@   +++   @@@@@@@@@@@@@",
"@@@@@@@@@@@@     @@@@@@@@@@@@@@@"
};
