/* XPM */
static char *fire_up_0_xpm[] = {
/* columns rows colors chars-per-pixel */
"32 32 7 1",
"  c Gray0",
". c #790013000c00",
"X c #9a0017000e00",
"o c #aa001a001300",
"O c #c4002f002f00",
"+ c #fb00a600a600",
"@ c None",
/* pixels */
"@@@@@@@@@@@@@@@@@@@@@@@@@@@@@@@@",
"@@@@@@@@@@@@@@@@@@@@@@@@@@@@@@@@",
"@@@@@@@@@@@@@@@@@@@@@@@@@@@@@@@@",
"@@@@@@@@@@@@@@@@@@@@@@@@@@@@@@@@",
"@@@@@@@@@@@@@@@@@@@@@@@@@@@@@@@@",
"@@@@@@@@@@@@@@@@@@@@@@@@@@@@@@@@",
"@@@@@@@@@@@@@@@@@@@@@@@@@@@@@@@@",
"@@@@@@@@@@@@@@@@@@@@@@@@@@@@@@@@",
"@@@@@@@@@@@++@@@@@++@@@@@@@@@@@@",
"@@@@@@@@@@@@@+OOO+@@@@@@@@@@@@@@",
"@@@@@@@@@@@@@OoooX@@@@@@@@@@@@@@",
"@@@@@@@@@@@@OooooXX@@@@@@@@@@@@@",
"@@@@@@@@@@@@OoooXXX@@@@@@@@@@@@@",
"@@@@@@@@@@@@@OooXX@@@@@@@@@@@@@@",
"@@@@@@@@@@@@@OooXX@@@@@@@@@@@@@@",
"@@@@@@@@@@@@@..o..@@@@@@@@@@@@@@",
"@@@@@@@@@@@@@XX.X.@@@@@@@@@@@@@@",
"@@@@@@@@@@@@OooXX..@@@@@@@@@@@@@",
"@@@@@@@@@@@oOoooXX.@@@@@@@@@@@@@",
"@@@@@@@@@@O.OooXXX.X@@@@@@@@@@@@",
"@@@@@@@@O@.OoooXXX.Xo@@@@@@@@@@@",
"@@@@@@@OoOOoooXXX.@.X@@@@@@@@@@@",
"@@@@@@OXXXXooXXX.X@@@@@@@@@@@@@@",
"@@@@@@@...XXXXX.@oo@@@@@@@@@@@@@",
"@@@@@@@@@@.....@@.o@@@@@@@@@@@@@",
"@@@@@@@@@@@@@@@@@@@@@@@@@@@@@@@@",
"@@@@@@@@@@@@@@@@@@@@@@@@@@@@@@@@",
"@@@@@@@@@@@@@@@@@@@@@@@@@@@@@@@@",
"@@@@@@@@@@@@@@@@@@@@@@@@@@@@@@@@",
"@@@@@@@@@@@@@@@@@@@@@@@@@@@@@@@@",
"@@@@@@@@@@@@@@@@@@@@@@@@@@@@@@@@",
"@@@@@@@@@@@@@@@@@@@@@@@@@@@@@@@@"
};
