/* XPM */
static char *move_right_0_xpm[] = {
/* columns rows colors chars-per-pixel */
"32 32 8 1",
"  c Gray0",
". c #790013000c00",
"X c #820010001000",
"o c #9a0017000e00",
"O c #aa001a001300",
"+ c #c4002f002f00",
"@ c #fb00a600a600",
"# c None",
/* pixels */
"################################",
"################################",
"################################",
"################################",
"################################",
"################################",
"################################",
"################################",
"######################@#########",
"####################@##@########",
"#####################@O++#######",
"#####################+O O+######",
"#####################OOOOO+#####",
"####################+OOOO@O#####",
"####################Oo.#.O######",
"###################+OoX#########",
"##############+++##OOOX.########",
"########+.##O+OOO..OOo..########",
"######++oO.oOOOOOOOOOo.#########",
"###O++ooOOOOooooOOOOOO.#########",
"#++X.OX..ooOO.oX.oooXOO#########",
"OO.#X..##.Oo.O##...Oo.O#########",
"##########.O.O#####.O.OO########",
"###########.O.+####.O#.O########",
"################################",
"################################",
"################################",
"################################",
"################################",
"################################",
"################################",
"################################"
};
