/* XPM */
static char *fire_upleft_0_xpm[] = {
/* columns rows colors chars-per-pixel */
"32 32 24 1",
"  c Gray0",
". c #7a0051002500",
"X c #7a0069006200",
"o c #820010001000",
"O c #960061001800",
"+ c #b10075006e00",
"@ c #e00070000000",
"# c #dd0046004300",
"$ c #82002d008000",
"% c #b50089005600",
"& c #d30082000800",
"* c #cb0093003b00",
"= c #e200b1003c00",
"- c #db00a6006700",
"; c #e200bf004300",
": c #f700bb007600",
"> c #f400e9001600",
", c #f100f9000900",
"< c #f000dd004900",
"1 c #c60090008b00",
"2 c #d900b800a600",
"3 c #e700cb00c000",
"4 c Gray100",
"5 c None",
/* pixels */
"55555555555555555555555555555555",
"55555555555555555555555555555555",
"55555555555555555555555555555555",
"55#55$###55555555555555555555555",
"5555@*:=@#$555555555555555555555",
"55##=;><-@$555555555555555555555",
"5555=>4>:@$555555555555555555555",
"5555=<4,>*O555555555555555555555",
"55$5@;>>>;&##5555555555555555555",
"55555.-;>,%5#5555555555555555555",
"55555$@-5=;*#1555555555555555555",
"555555555@=;&@555555555555555555",
"5555555555+<;&O55555555555555555",
"555555o5555-;<-&+5+5555555555555",
"5555555##5555<<&5555555555555555",
"55555555555#51<,>355555555555555",
"55555555555555*<,,55555555555555",
"555555555555555X%,O5555555555555",
"55555555555555555;;&#55555555555",
"555555555555555555;:@#5555555555",
"555555555555555555%--@#555555555",
"5555555555555555*#5555-555555555",
"5555555555555555555555-+55555555",
"5555555555555555555555+1+5555555",
"55555555555555555555555.##555555",
"5555555555555555555555555#515555",
"55555555555555555555+5555:225555",
"555555555555555555555555X5555555",
"55555555555555555555555555555555",
"55555555555555555555555555#55555",
"55555555555555555555555555555555",
"55555555555555555555555555555555"
};
