/* XPM */
static char *fire_down_0_xpm[] = {
/* columns rows colors chars-per-pixel */
"32 32 9 1",
"  c Gray0",
". c #dd0046004300",
"X c #db00a6006700",
"o c #e200bf004300",
"O c #f700bb007600",
"+ c #f100f9000900",
"@ c #e700cb00c000",
"# c Gray100",
"$ c None",
/* pixels */
"$$$$$$$$$$$$$$$X$$$$$$$$$$$$$$$$",
"$$$$$$$$$$$$$.$$o.$$$$$$$$$$$$$$",
"$$$$$$$$$$$$X$X@$$$$$$$$$$$$$$$$",
"$$$$$$$$$$$$$$$$@X$$$$$$$$$$$$$$",
"$$$$$$$$$$$$$$$.$$$$$$$$$$$$$$$$",
"$$$$$$$$$$$$.$$.@$$$$$$$$$$$$$$$",
"$$$$$$$$$$$$$$OX$$$X$$$$$$$$$$$$",
"$$$$$$$$$$$$$$$@$o$$$$$$$$$$$$$$",
"$$$$$$$$$$$$$$.$O$$$$$$$$$$$$$$$",
"$$$$$$$$$$$$$$.o$$$$$$$$$$$$$$$$",
"$$$$$$$$$$$X$$.OX.$$$$$$$$$$$$$$",
"$$$$$$$$$$$$$$.+$$o$$$$$$$$$$$$$",
"$$$$$$$$$$$$$$$+X$$$$$$$$$$$$$$$",
"$$$$$$$$$$$$$$$+$$$$$$$$$$$$$$$$",
"$$$$$$$$$$$$X$@+@$$$$$$$$$$$$$$$",
"$$$$$$$$$$$$$$$+$$$X$$$$$$$$$$$$",
"$$$$$$$$$$$$$X.+X$$$$$$$$$$$$$$$",
"$$$$$$$$$$$$$$@+$.$$$$$$$$$$$$$$",
"$$$$$$$$$$$$o$.+@$$$$$$$$$$$$$$$",
"$$$$$$$$$$$$$X.+X$.$$$$$$$$$$$$$",
"$$$$$$$$$$$.$..+.$..$$$$$$$$$$$$",
"$$$$$$$$$$$$..$+$$$.$$$$$$$$$$$$",
"$$$$$$$$$$$$$Xo+oX$.$$$$$$$$$$$$",
"$$$$$$$$$$$$$.o+o.$$$$$$$$$$$$$$",
"$$$$$$$$$$$..X+#+$o$$$$$$$$$$$$$",
"$$$$$$$$$$$$.X+#+.$$$$$$$$$$$$$$",
"$$$$$$$$$$$$.$o+o$.$$$$$$$$$$$$$",
"$$$$$$$$$$$$$.X..$$$$$$$$$$$$$$$",
"$$$$$$$$$$$$$$$$$.$$$$$$$$$$$$$$",
"$$$$$$$$$$$$$.$.$$$$$$$$$$$$$$$$",
"$$$$$$$$$$$$$$$$$$$$$$$$$$$$$$$$",
"$$$$$$$$$$$$$$$$$$$$$$$$$$$$$$$$"
};
