/* XPM */
static char *fire_down_0_xpm[] = {
/* columns rows colors chars-per-pixel */
"32 32 5 1",
"  c Gray0",
". c #0a0007000400",
"X c #b50089005600",
"o c #db00a6006700",
"O c None",
/* pixels */
"OOOOOOOOOOOOOOOOOOOOOOOOOOOOOOOO",
"OOOOOOOOOOOOOOOOOOOOOOOOOOOOOOOO",
"OOOOOOOOOOOOOOOOOOOOOOOOOOOOOOOO",
"OOOOOOOOOOOOOOOOOOOOOOOOOOOOOOOO",
"OOOOOOOOOOO       OOOOOOOOOOOOOO",
"OOOOOOOOOO  XXXXX  OOOOOOOOOOOOO",
"OOOOOOOOOO XXXXXXX  OOOOOOOOOOOO",
"OOOOOOOOOO X  oo  X OOOOOOOOOOOO",
"OOOOOOOOOO X ooooXX OOOOOOOOOOOO",
"OOOOOOOOOO ooo  ooo OOOOOOOOOOOO",
"OOOOOOOOOO  o    o  OOOOOOOOOOOO",
"OOOOOOOOOO.  oooo  OOOOOOOOOOOOO",
"OOOOOOOOOOO   oo     OOOOOOOOOOO",
"OOOOOOOOO   ooooo XX  OOOOOOOOOO",
"OOOOOOOO  ooooooooXoo  OOOOOOOOO",
"OOOOOOOO oo   oooooooo  OOOOOOOO",
"OOOOOOOO oo  ooooo oooo     OOOO",
"OOOOOOOO oo      o  oooXXXX OOOO",
"OOOOOOOO  ooooo  X   XXX    OOOO",
"OOOOOOOOO  oooo XX O     OOOOOOO",
"OOOOOOOOOO  oo  XX  OOOOOOOOOOOO",
"OOOOOOOOOOO     XXX OOOOOOOOOOOO",
"OOOOOOOOOOO X    Xo  OOOOOOOOOOO",
"OOOOOOOOOO  oo O  oo OOOOOOOOOOO",
"OOOOOOOOOO ooo O  oo   OOOOOOOOO",
"OOOOOOOO   XXX OO Xooo  OOOOOOOO",
"OOOOOOOO XXXXX OO XXXXX OOOOOOOO",
"OOOOOOOO  XXX  OO  XXX  OOOOOOOO",
"OOOOOOOOO     OOOO     OOOOOOOOO",
"OOOOOOOOOOOOOOOOOOOOOOOOOOOOOOOO",
"OOOOOOOOOOOOOOOOOOOOOOOOOOOOOOOO",
"OOOOOOOOOOOOOOOOOOOOOOOOOOOOOOOO"
};
