/* XPM */
static char *fire_right_0_xpm[] = {
/* columns rows colors chars-per-pixel */
"32 32 4 1",
"  c Gray0",
". c #b50089005600",
"X c #db00a6006700",
"o c None",
/* pixels */
"oooooooooooooooooooooooooooooooo",
"oooooooooooooooooooooooooooooooo",
"oooooooooooooooooooooooooooooooo",
"ooooooooooo       oooooooooooooo",
"oooooooooo  ....X  ooooooooooooo",
"oooooooooo .....    oooooooooooo",
"oooooooooo ...XX  X oooooooooooo",
"oooooooooo ..XXXXXX oooo    oooo",
"oooooooooo XXXXXXXX oooo  X  ooo",
"ooooooooooo  XX...  ooo  XXX ooo",
"oooooooooooo  XXX       .X     o",
"oooooooooooo  XXXX XXXX XX XXX o",
"ooooooooooo    XXX  XXXXX...   o",
"oooooooooo   X  XXX  XXXX     oo",
"oooooooooo  XXXXXXXX XX    ooooo",
"ooooooooo  XXXX.XXXX    oooooooo",
"oooooooo  XXXX..XXXX ooooooooooo",
"oooooo    XXX  ..XX  ooooooooooo",
"ooooo  .XXXX  ....  oooooooooooo",
"ooooo ..XXX  ......  ooooooooooo",
"ooooo .XX.. ........ ooooooooooo",
"ooooo  X..X ...  ...  oooooooooo",
"oooooo  .  ...    ... oooooooooo",
"ooooooo  o ... oo ... oooooooooo",
"oooooooooo ... oo  XX  ooooooooo",
"oooooooo  ...  ooo  XX ooooooooo",
"oooooo   .... ooooo XX   ooooooo",
"oooooo .....  ooooo .XXX  oooooo",
"oooooo  ...  oooooo ..... oooooo",
"ooooooo     ooooooo  ...  oooooo",
"oooooooooooooooooooo     ooooooo",
"oooooooooooooooooooooooooooooooo"
};
