/* XPM */
static char *move_down_0_xpm[] = {
/* columns rows colors chars-per-pixel */
"32 32 5 1",
"  c Gray0",
". c #820076007600",
"X c #b50089005600",
"o c #db00a6006700",
"O c None",
/* pixels */
"OOOOOOOOOOOOOOOOOOOOOOOOOOOOOOOO",
"OOOOOOOOOOOOOOOOOOOOOOOOOOOOOOOO",
"OOOOOOOOOOOOOOOOOOOOOOOOOOOOOOOO",
"OOOOOOOOOOOO       OOOOOOOOOOOOO",
"OOOOOOOOOOO  XXXXX  OOOOOOOOOOOO",
"OOOOOOOOOOO X XXXX   OOOOOOOOOOO",
"OOOOOOOOOOO X  oo  X OOOOOOOOOOO",
"OOOOOOOOOOO XXooooXX OOOOOOOOOOO",
"OOOOOOOOOOO ooo  ooo OOOOOOOOOOO",
"OOOOOOOOOOO  o    o  OOOOOOOOOOO",
"OOOOOOOOOOOO  oooo  OOOOOOOOOOOO",
"OOOOOOOOOOOO   oo  OOOO   OOOOOO",
"OOOOOOOO     ooooo OO   X OOOOOO",
"OOOOOOO  oX  ooooo    oXX   OOOO",
"OOOOOO  oooo oooooooooXX  X OOOO",
"OOOOO  oooooooooooooooooXXX OOOO",
"OOOO  oooooooooooooooooooX  OOOO",
"OOO  Xooo   oooooo   oo    OOOOO",
"OOO XXoo  OO XXXXX O    OOOOOOOO",
"O   XX   OOO XXXXX OOOOOOOOOOOOO",
"O         O  XXXXX  OOOOOOOOOOOO",
"  ..... . O XXX XXX  OOOOOOOOOOO",
" .  ..... O XX   ooo OOOOOOOOOOO",
" .... ..    oo    oo  OOOOOOOOOO",
"   ... . O ooo OO  oo OOOOOOOOOO",
"O .....    XXX OO  oo   OOOOOOOO",
"O .. .   XXXXX OOO Xooo  OOOOOOO",
"O  ... O  XXX  OOO XXXXX OOOOOOO",
"OO     OO     OOOO  XXX  OOOOOOO",
"OOOOOOOOOOOOOOOOOOO     OOOOOOOO",
"OOOOOOOOOOOOOOOOOOOOOOOOOOOOOOOO",
"OOOOOOOOOOOOOOOOOOOOOOOOOOOOOOOO"
};
