/* XPM */
static char *move_left_0_xpm[] = {
/* columns rows colors chars-per-pixel */
"32 32 5 1",
"  c Gray0",
". c #820076007600",
"X c #b50089005600",
"o c #db00a6006700",
"O c None",
/* pixels */
"OOOOOOOOOOOOOOOOOOOOOOOOOOOOOOOO",
"OOOOOOOOOOOOOOOOOOOOOOOOO     OO",
"OOOOOOOOOOOOOOOOOOOOOOOOO ...  O",
"OOOOOOOOOOOOOO       OOO  . .. O",
"OOOOOOOOOOOOO  oXXXX  O  ..... O",
"OOOOOOOOOOOO    XXXXX O . ...   ",
"OOO   OOOOOO o  ooXXX O ....... ",
"OO  X   OOOO ooooooXX OX   .. . ",
"O  oXXo OOOO oooooooo OX XX ..  ",
"O XooXX OOOO   XXoo    XXX X   O",
"O XXooo  OOOO  Xoo  O  ooXXX   O",
"O  Xoooo OOO  oooo O   oooXX OOO",
"OO    ooo    ooooo     oooX  OOO",
"OOOOO oooooooooooooooooooo  OOOO",
"OOOOO  oooooooooooooooooo  OOOOO",
"OOOOOO  oooooo ooo ooooo  OOOOOO",
"OOOOOOO  oooo  ooo oooo  OOOOOOO",
"OOOOOOOO      oooo      OOOOOOOO",
"OOOOOOOOOOOOO XXXXX OOOOOOOOOOOO",
"OOOOOOOOOOOOO XXXXX OOOOOOOOOOOO",
"OOOOOOOOOOOO XXXXXXX OOOOOOOOOOO",
"OOOOOOOOOOO  XXXXXXX OOOOOOOOOOO",
"OOOOOOOOOO  XX   XXX OOOOOOOOOOO",
"OOOOOOOOOO ooo O  oo  OOOOOOOOOO",
"OOOOOOOOO  oo OOO ooo OOOOOOOOOO",
"OOOOOOOOO oo  OOO  oo OOOOOOOOOO",
"OOOOOOO   oo OOOOO oo  OOOOOOOOO",
"OOOOOO  oooX OOOOO ooo OOOOOOOOO",
"OOOOOO XXXXX OOOOO XXX   OOOOOOO",
"OOOOOO  XXX  OOOOO XXXXX OOOOOOO",
"OOOOOOO     OOOOOO  XXX  OOOOOOO",
"OOOOOOOOOOOOOOOOOOO     OOOOOOOO"
};
