/* XPM */
static char *move_right_0_xpm[] = {
/* columns rows colors chars-per-pixel */
"32 32 5 1",
"  c Gray0",
". c #820076007600",
"X c #b50089005600",
"o c #db00a6006700",
"O c None",
/* pixels */
"OOOOOOOOOOOOOOOOOOOOOOOOOOOOOOOO",
"OO     OOOOOOOOOOOOOOOOOOOOOOOOO",
"O  ... OOOOOOOOOOOOOOOOOOOOOOOOO",
"O .. .  OOO       OOOOOOOOOOOOOO",
"O .....  O  XXXXo  OOOOOOOOOOOOO",
"   ... . O XXXXX    OOOOOOOOOOOO",
" ....... O XXXoo  o OOOOOO   OOO",
" . ..   XO XXoooooo OOOO   X  OO",
"  .. XX XO oooooooo OOOO oXXo  O",
"O   X XXX    ooXX   OOOO XXooX O",
"O   XXXoo  O  ooX  OOOO  oooXX O",
"OOO XXooo   O oooo  OOO ooooX  O",
"OOO  Xooo     ooooo    ooo    OO",
"OOOO  oooooooooooooooooooo OOOOO",
"OOOOO  oooooooooooooooooo  OOOOO",
"OOOOOO  ooooo ooo oooooo  OOOOOO",
"OOOOOOO  oooo ooo  oooo  OOOOOOO",
"OOOOOOOO      oooo      OOOOOOOO",
"OOOOOOOOOOOO XXXXX OOOOOOOOOOOOO",
"OOOOOOOOOOOO XXXXX OOOOOOOOOOOOO",
"OOOOOOOOOOO XXXXXXX OOOOOOOOOOOO",
"OOOOOOOOOOO XXXXXXX  OOOOOOOOOOO",
"OOOOOOOOOOO XXX   XX  OOOOOOOOOO",
"OOOOOOOOOO  oo  O ooo OOOOOOOOOO",
"OOOOOOOOOO ooo OOO oo  OOOOOOOOO",
"OOOOOOOOOO oo  OOO  oo OOOOOOOOO",
"OOOOOOOOO  oo OOOOO oo   OOOOOOO",
"OOOOOOOOO ooo OOOOO Xooo  OOOOOO",
"OOOOOOO   XXX OOOOO XXXXX OOOOOO",
"OOOOOOO XXXXX OOOOO  XXX  OOOOOO",
"OOOOOOO  XXX  OOOOOO     OOOOOOO",
"OOOOOOOO     OOOOOOOOOOOOOOOOOOO"
};
