/* XPM */
static char *move_down_0_xpm[] = {
/* columns rows colors chars-per-pixel */
"32 32 21 1",
"  c Gray0",
". c #020001000000",
"X c #070004000100",
"o c #13000c000300",
"O c #18000f000300",
"+ c #1c0012000400",
"@ c #220016000500",
"# c #29001a000600",
"$ c #2d001d000700",
"% c #48002f000b00",
"& c #7a0051002500",
"* c #27003900d500",
"= c #28003a00d600",
"- c #1d009b003f00",
"; c #960061001800",
": c #820076007600",
"> c #db00a6006700",
", c #f700bb007600",
"< c #f100f9000900",
"1 c #d200dd00dd00",
"2 c None",
/* pixels */
"22222222222222222222222222222222",
"22222222222222222222222222222222",
"222222222222222    2222222222222",
"2222222222222   11   22222222222",
"222222222222  11  11  2222222222",
"222222222222 11 11 11 2222222222",
"222222222222          2222222222",
"1112222222222<<<<<<<<22222222222",
"111   2222222<<-,,-<<22222222222",
"111 >> 222222<>-,,-><22222222222",
"2  %%>   22222>>&&>>222222222222",
" >>%%% =   2222>;;>2222222222222",
"2 >>%%% ==     1111    222222222",
"22    %%  ==  111111 = 222222222",
"222222 %%%   111111  =  22222222",
"2222222  %%%  11111 ===  2222222",
"222222222  %%%  111  *==  222222",
"22222222222  %%%  11  ===  22222",
"222222222222   %%%  1   == 22222",
"222222222222    #%%+. 2 == 22222",
"22222222222   ==  O %$o    22222",
"2222222222  ======= X@  >  22222",
"2222222222 ==========  >>>  2222",
"222222222  =========== >>>%   22",
"222222222 ============  >> %%  2",
"222222222    =====           % 2",
"22222222222        ::: 22222   2",
"22222222222 ::: 22  ::  22222222",
"222222222   ::  222  ::  2222222",
"22222222   ::: 2222   :: 2222222",
"22222222  :::  22222     2222222",
"222222222     222222222222222222"
};
