/* XPM */
static char *fire_any_0_xpm[] = {
/* columns rows colors chars-per-pixel */
"32 32 7 1",
"  c Gray0",
". c #41003e003e00",
"X c #820076007600",
"o c #ad00b500b500",
"O c #d200dd00dd00",
"+ c Gray100",
"@ c None",
/* pixels */
"@@@@@@@@@@@@@@@@ooooooooo@@@@@@@",
"@@@@@@@@@@@@@@@@ooo      oooooo@",
"@@@@@@@@@@@@@@@@@@oo...XX     oo",
"@@@@@@@@@@@@@@@@@@@o      XX..o@",
"@@@@@@@@@@@@@@@@@@@o......X oo@@",
"@@@@@@@@@@@@@@@@@oooX      @o@@@",
"@@@@@@@@@@@@@@@ooo  ....XXXoo@@@",
"@@@@@@@@@@@@@ooo@....   ..o@@@@@",
"@@@@@@@@@ooooo@XXXXX@@XX@oo@@@@@",
"@@@@@@@@oo.......X     ooo@@@@@@",
"@@@@@@@o...X        XXoo@@@@@@@@",
"@@@@@@@oXXX..XX@XXX@@oo@@@@@@@@@",
"@@@@@@@oXXX     X@oooo@@@@@@@@@@",
"@@@@@@@oo    XX...o@@@@@@@@@@@@@",
"@@@@@@@@ooXX    XXo@@@@@@@@@@@@@",
"@@@@@@@@@o...     oo@@@@@@@@@@@@",
"@@@@@@@@@oo   XXX@@o@@@@@@@@@@@@",
"@@@@@@@@@@ooX   ...oo@@@@@@@@@@@",
"@@@@@@@@@@@oo       oo@@@@@@@@@@",
"@@@@@@@@@@@@oo..   @@o@@@@@@@@@@",
"@@@@@@@@@@@@@o  X ..@o@@@@@@@@@@",
"@@@@@@@@@@@@@oo     Xo@@@@@@@@@@",
"@@@@@@@@@@@@@@o@XXXXXo@@@@@@@@@@",
"@@@@@@@@@O@@@@o...X oo@@@@@@@@@@",
"@@@@@@@@@OO@@@oX    o@@@@@@@@@@@",
"@@@@@@@@@@OO@@o... oo@@@@@@@@@@@",
"@@@@@@@@+@@O@@oXX oo@+@@@@@@@@@@",
"@@@@@@@@@++@+@o  oo@++@@@@@@@@@@",
"@@@@@@@@@@@@OOo@oo@O@+@@@@@@@@@@",
"@@@@@@@@@@@OO+oooOO@@@@@@@@@@@@@",
"@@@@@@@@@++O@O+O@+@@@@@@@@@@@@@@",
"@@@@@@@@@@@+OO+O@+@@@@@@@@@@@@@@"
};
