/* XPM */
static char *fire_upright_0_xpm[] = {
/* columns rows colors chars-per-pixel */
"32 32 2 1",
"  c Gray0",
". c None",
/* pixels */
".. ....    .....................",
"..     ..  .....................",
".. .....  . ....................",
".  ....  .. ....................",
". ....  .... ...................",
"  ...  ..... ...................",
". ..  ......   .................",
". .  ......  .. ................",
".      ...  ... ................",
". ....     .... ................",
". ........ .... ................",
". ........ .... ................",
" .........  ... ................",
" .......... ... ................",
" ..........  .. ................",
" .......... . . ................",
" ......... ...  ................",
". ........ ....  ...............",
". ....... .......  ........ ....",
".  ..... .......... ......  ....",
". .  ... .........   .... . ....",
". ... . ....      ... .. .. ....",
". ....  .   .........   ... ....",
". .....  ..........    ..... ...",
". ......  .......  .  ...... ...",
"  .......  ....  .....  .... ...",
". ........ ... . ....... ...    ",
". ......... . ... .......  . ...",
".  ........  .....  .......  ...",
".. .......  .......  ......  ...",
".. ......  .........    ... ....",
"..    .. ...........        ...."
};
