/* XPM */
static char *fire_downright_0_xpm[] = {
/* columns rows colors chars-per-pixel */
"32 32 3 1",
"  c Gray0",
". c #890087008400",
"X c None",
/* pixels */
"XX XXXX    XXXXXXXXXXX   X XXXXX",
"XX     XX  XXXXXXXXXX  XX   XXXX",
"XX .XXXX  X XXXXXXXX  XXXX X  XX",
"X  XXXX  XX XXXXXXX XXXXX XXXX  ",
"X XXXX  XXXX XXXXX XXXXX XXXXX X",
"  XXX  XXXXX XXXX XXXXXX XXXX  X",
"X XX  XXXXXX       XXXX XXXXX XX",
"X X  XXXXXX  XX XX   X XXXXX XXX",
"X      XXX  XXX XXXXX    XX  XXX",
"X XXXX     XXXX XXXXXX X    XXXX",
"X XXXXXXXX XXXX XXXXX XXXXXXXXXX",
"X XXXXXXXX XXXX XXXX XXXXXXXXXXX",
" XXXXXXXXX  XXX XXX XXXXXXXXXXXX",
" XXXXXXXXXX XXX XXX XXXXXXXXXXXX",
" XXXXXXXXXX  XX XX XXXXXXXXXXXXX",
" XXXXXXXXXX X X X XXXXXXXXXXXXXX",
" XXXXXXXXX XXX   XXXXXXXXXXXXXXX",
"X XXXXXXXX XXXX  XXXXXXXXXXXXXXX",
"X XXXXXXX XXXXXX XXXXXXXXXXXXXXX",
"X  XXXXX XXXXXX XXXXXXXXXXXXXXXX",
"X X  XXX XXXXX  XXXXXXXXXXXXXXXX",
"X XXX X XXXX   XXXXXXXXXXXXXXXXX",
"X XXXX  X   XXXXXXXXXXXXXXXXXXXX",
"X XXXXX  XXXXXXXXXXXXXXXXXXXXXXX",
"X XXXXXX  XXXXXXXXXXXXXXXXXXXXXX",
"  XXXXXXX  XXXXXXXXXXXXXXXXXXXXX",
"X XXXXXXXX XXXXXXXXXXXXXXXXXXXXX",
"X XXXXXXXXX XXXXXXXXXXXXXXXXXXXX",
"X  XXXXXXXX XXXXXXXXXXXXXXXXXXXX",
"XX XXXXXXX  XXXXXXXXXXXXXXXXXXXX",
"XX XXXXXX  XXXXXXXXXXXXXXXXXXXXX",
"XX    XX XXXXXXXXXXXXXXXXXXXXXXX"
};
