/* XPM */
static char *board_6_xpm[] = {
/* columns rows colors chars-per-pixel */
"32 32 5 1",
"  c #09004e008e00",
". c #0a0050009700",
"X c #0b005c00ae00",
"o c #0c006100b900",
"O c #05007b00f400",
/* pixels */
"OOOOOOOOOOOOOOOOOOOOOOOOOOOOOOOO",
"Ooooooooooooooooooooooooooooooo.",
"Ooooooooooooooooooooooooooooooo.",
"Ooooooooooooooooooooooooooooooo.",
"Ooooooooooooooooooooooooooooooo ",
"Ooooooooooooooooooooooooooooooo ",
"Ooooooooooooooooooooooooooooooo ",
"Ooooooooooooooooooooooooooooooo ",
"Ooooooooooooooooooooooooooooooo ",
"Ooooooooooooooooooooooooooooooo ",
"Ooooooooooooooooooooooooooooooo.",
"OooooooooooooooooXooooooooooooo.",
"Ooooooooooooooooooooooooooooooo.",
"Ooooooooooooooooooooooooooooooo.",
"Ooooooooooooooooooooooooooooooo.",
"Ooooooooooooooooooooooooooooooo ",
"Ooooooooooooooooooooooooooooooo ",
"Ooooooooooooooooooooooooooooooo.",
"Ooooooooooooooooooooooooooooooo.",
"Ooooooooooooooooooooooooooooooo.",
"Ooooooooooooooooooooooooooooooo ",
"Ooooooooooooooooooooooooooooooo ",
"Ooooooooooooooooooooooooooooooo.",
"Ooooooooooooooooooooooooooooooo.",
"Ooooooooooooooooooooooooooooooo.",
"Ooooooooooooooooooooooooooooooo.",
"OoooooXoooooooooooooooooooooooo.",
"Ooooooooooooooooooooooooooooooo.",
"Ooooooooooooooooooooooooooooooo.",
"Ooooooooooooooooooooooooooooooo.",
"Ooooooooooooooooooooooooooooooo.",
".......        ....... ..  ....."
};
