/* XPM */
static char *board_2_xpm[] = {
/* columns rows colors chars-per-pixel */
"32 32 7 1",
"  c #08003f007300",
". c #09004b008800",
"X c #09004e008e00",
"o c #0a0050009700",
"O c #0b005c00ae00",
"+ c #0c006100b900",
"@ c #01006300c800",
/* pixels */
"@@@@@@@++@@@@@@++@@@@@@@@@@@O+@@",
"@ooXXoXXXXoooXXXXXXooXXXXXXXXXo ",
"@ooXXXXXXXXoXXXXXXXXXXXXXXXXXXo ",
"@ooXXXXXXXXXXXXXXoXXXXXXXXXXXXX ",
"@oXXXXXXXXXXXXXXXXXXXXXoXXXXXXX ",
"@oXXXXXXXXXXX.XXXXXXXXXXXXXXXXX ",
"@oXXXXXXXXXXXXXXXXXXXXXXXoXXXXX ",
"@oXXXXXXXXXXXXooXXXXXXXooXXXXXX ",
"@oXXXXXXXXoXXXooXXXXXXXooXXXXXX ",
"@oXXXXXXXXXXXoooXXXXXXXXXXXXXoX ",
"@XXXXXXXXXXXXXXXXXXXX.XXXXXXXoo ",
"@XXXXXXXXXXXXXXX..XXXXXXXXXXooo ",
"@XXXXXXXXXXXXXXXXXXXXXXXXXXXooX ",
"@oXXXXXXXXXXXXXXXXXXXXXXXXXXXXX ",
"@oXXXXXXXXXXXXXXXXXXXXXXXXXXoXX ",
"@oXXXXXXXXXXooXXXXXXoXXXXXXXooX ",
"@oXXXXXXXXXoXXXXXXXooXXXXXXXoXX ",
"@XXXXXXXoooXXXXXXXXooXXXXXXXoXX ",
"+XXXXXXXXXXXXXXXXXoooXXXXXXXXXX ",
"+XXXXXXXXXXXXXXXXXXooXXXXXXoXXo ",
"+XXXXXXX.XXXXXXXXXXXXXXXXXXoXXX ",
"@XXXXXXXXXXXXXXXXXXXXXXXXXXXXXX ",
"@XXXXXXXXXXXXXXXXooXXXXXXXXXXXX ",
"+XXoXXXXXXXXXXXXXXXXXXXXXXXXXXo ",
"+XXXoXXXXXXXXXXXXXXXXXX.XXXXXXo ",
"+XXXoX.XXXXXXXXXXXXXXXXXXXXXXXo ",
"@oXXXX.XXXXXXXXXXXXXXXXXXXXXXoo ",
"@XXXXXXXXXXXXXXXXXoooXXXXXXXXXo ",
"@oXoXXXXXoXXXXXXXooooooXXXXXXXo ",
"@oXoXXXooooXXXXXXoXXoXXXXXXXXXo ",
"@XoooooooXXXXXXXooXXXooXoXXXXoo ",
"                                "
};
