/* XPM */
static char *board_5_xpm[] = {
/* columns rows colors chars-per-pixel */
"32 32 6 1",
"  c #09004b008800",
". c #09004e008e00",
"X c #0b005900a800",
"o c #0b005c00ae00",
"O c #0c006100b900",
"+ c #05007500e800",
/* pixels */
"++++++++++++++++++++++++++++++++",
"+OOoooooooOOOoooooooooooooooooo.",
"+OOoooooooooooooooooooooooooooO.",
"+Oooooooooooooooooooooooooooooo ",
"+OoooooooooooXooooooooooooooooo ",
"+OooooXXooooXXoooXXoooooooooooo ",
"+Oooooooooooooooooooooooooooooo ",
"+ooXoooXooooooooooooooooOoooooo ",
"+ooXooXXooooooOoooooooooooooooo ",
"+oooooooooooooooooooooooooooooo ",
"+oXoooooooooooooooooXXoooooooOo ",
"+oXXXoooooooooooXXXoooXooooooOo ",
"+oXXooooooooooXXXXooooXoooooooo ",
"+oooooooooooooXXooooooooooooooo ",
"+oooooooooooooooooooooooooooooo ",
"+oooooooooooooooooooOoooooooOOo ",
"+oooooooooooooooooooOoooooooOoo ",
"+ooooooooOoooooooooOOoooooooooo ",
"+ooooooooooooooooooOooooooooooo ",
"+oooooooXXoooooXooooooooooooooO.",
"+ooooooXXooooooXXoooooooooooooo ",
"+ooooooXXoooooXoooooooooooooooo ",
"+oooooooXoooooooooooooooooooooo ",
"+ooooooooooooooooooooooXXoooooO.",
"+ooooooooXoooooooooooXXXXoooooO.",
"+oooooXXXXoooooooooooooXooooooO.",
"+oooooXXooooooXXooooooooooooooO.",
"+oooooXooooXXXXooooOooooooooooO.",
"+oooooooooooooooooooOOoooooXooo.",
"+ooooooooooooooooooooooooooXooo ",
"+ooOooOOooooooooOooooooooooooOO.",
"   .            .           ...."
};
