/* XPM */
static char *board_3_xpm[] = {
/* columns rows colors chars-per-pixel */
"32 32 6 1",
"  c #080041007b00",
". c #080046007f00",
"X c #0a0054009f00",
"o c #0c006100b900",
"O c #01006300c800",
"+ c #09006c00d200",
/* pixels */
"+++++++oo++++++Oo+++++++++++oo++",
"+XXXXXXXXXXXXXXXXXXXXXXXXXXXXXX.",
"+XXXXXXXXXXXXXXXXXXXXXXXXXXXXXX.",
"+XXXXXXXXXXXXXXXXXXXXXXXXXXXXXX ",
"+XXXXXXXXXXXXXXXXXXXXXXXXXXXXXX ",
"+XXXXXXXXXXXXXXXXXXXXXXXXXXXXXX ",
"+XXXXXXXXXXXXXXXXXXXXXXXXXXXXXX ",
"+XXXXXXXXXXXXXXXXXXXXXXXXXXXXXX ",
"+XXXXXXXXXXXXXXXXXXXXXXXXXXXXXX ",
"+XXXXXXXXXXXXXXXXXXXXXXXXXXXXXX ",
"+XXXXXXXXXXXXXXXXXXXXXXXXXXXXXX ",
"+XXXXXXXXXXXXXXXXXXXXXXXXXXXXXX ",
"+XXXXXXXXXXXXXXXXXXXXXXXXXXXXXX ",
"+XXXXXXXXXXXXXXXXXXXXXXXXXXXXXX ",
"+XXXXXXXXXXXXXXXXXXXXXXXXXXXXXX ",
"+XXXXXXXXXXXXXXXXXXXXXXXXXXXXXX ",
"+XXXXXXXXXXXXXXXXXXXXXXXXXXXXXX ",
"+XXXXXXXXXXXXXXXXXXXXXXXXXXXXXX ",
"oXXXXXXXXXXXXXXXXXXXXXXXXXXXXXX ",
"oXXXXXXXXXXXXXXXXXXXXXXXXXXXXXX.",
"oXXXXXXXXXXXXXXXXXXXXXXXXXXXXXX ",
"+XXXXXXXXXXXXXXXXXXXXXXXXXXXXXX ",
"+XXXXXXXXXXXXXXXXXXXXXXXXXXXXXX ",
"OXXXXXXXXXXXXXXXXXXXXXXXXXXXXXX.",
"oXXXXXXXXXXXXXXXXXXXXXXXXXXXXXX.",
"OXXXXXXXXXXXXXXXXXXXXXXXXXXXXXX.",
"+XXXXXXXXXXXXXXXXXXXXXXXXXXXXXX.",
"+XXXXXXXXXXXXXXXXXXXXXXXXXXXXXX.",
"+XXXXXXXXXXXXXXXXXXXXXXXXXXXXXX.",
"+XXXXXXXXXXXXXXXXXXXXXXXXXXXXXX ",
"+XXXXXXXXXXXXXXXXXXXXXXXXXXXXXX.",
"   .            .           ...."
};
