/* XPM */
static char * field_0_xpm[] = {
"32 32 14 1",
" 	c None",
".	c #B5A4A2",
"+	c #E3CDCA",
"@	c #D3B0AC",
"#	c #C2B6B5",
"$	c #A58D8A",
"%	c #7E7371",
"&	c #6D6B6B",
"*	c #565353",
"=	c #F5EDEC",
"-	c #DCD2D1",
";	c #898080",
">	c #616060",
",	c #4D4A4A",
"                                ",
"               ..               ",
"            ++@#$%&**           ",
"          +==--#.;%&**          ",
"         @-=--+.$$;%%>*         ",
"        -==---##.$;;%>>*        ",
"       @-==---##..$;;%&&        ",
"       -==----#....$;%&**       ",
"      @===-----#...$;;%&>*      ",
"      ====-----#....$;%%>**     ",
"     @===------##..$$;;%%&&     ",
"     -====-----###...$;%%>*     ",
"     +==-------###..$$;;;%>     ",
"    --==--------##...$$;;%**    ",
"    +==--------#-##..$$;;;&>    ",
"    -===----=--#-##....;$%&,    ",
"    +-=---------####.$$$;;%>>   ",
"    ==---=-----#-##.#...;;%>*   ",
"   @==---------#-###...$$;%&>   ",
"   -==--------#-#####...$;%>,   ",
"   @==--=------#-###....$;;%&   ",
"   ===---=-----#-####....$%&*,  ",
"   +==-------#-#-#-##...$;;%&>  ",
"   -==--------#-#-####...$;%>*  ",
"   +==-------#-#-#-###..$;;&&>  ",
"   -=-=----#-#-#-#-###...$;%>,  ",
"   +-------#--#-#-#-###..$;&&&  ",
"    -------#-#---#-#-###..$%*   ",
"     +---#--------#-#--##.;;>   ",
"      -#  ##  -#  #         ,   ",
"                                ",
"                                "};
