/* XPM */
static char * field_5_xpm[] = {
"32 32 14 1",
" 	c None",
".	c #39752D",
"+	c #3A792D",
"@	c #3A7D2E",
"#	c #F5EDEC",
"$	c #DCD2D1",
"%	c #565353",
"&	c #7E7371",
"*	c #C2B6B5",
"=	c #898080",
"-	c #B5A4A2",
";	c #38732C",
">	c #6D6B6B",
",	c #616060",
".+++++++++++++...++++......+++++",
"+++++..+++@++++++++++.......++++",
"+++++..+++@@@++++++++#$%..%&.+++",
"@@@++...+@@@@@@+++++##$*$#=&%+++",
"@@@@+...+@@@@@@++++.##*#$-==%.++",
"@@@@++..++@@@@@+++..#$$$$=-%..++",
"@@@@@+..++@@@@@++......$$--...++",
"@@@@@++.+++@@@@++....;;;--%...++",
"@@@@@++#&%++@@+++.............++",
"@@@@@++$$&%+++++.............+++",
"++@@@+#$-=%+++++............++++",
"++++++$#$$%+++++............++++",
"..++++$$---%++++....++......++++",
".....+$-%+++++++#$%.+++.....++++",
"..........++++#$#==.++++....++++",
"...........++++#$#$%++++.%...++@",
"...........+++++$$=%++$*&%...++@",
"............++++....##$$*&&%.+++",
".............+++....#$#$$-=%%.++",
".............++++..##$#$$-=&%..+",
"..;...........++....$#$-$==%...+",
".;;;................#$#$$=&;....",
".;;;;.$%..............#$$-%%>...",
"..;;;#$$*%.......++..+...&%.....",
"....###$**......++*%++++........",
"+...#$*$-%.....#$$*%+++++.......",
"+++.$$-$*......#$$$,%++++......+",
"++++.$%........$#$*-*+++...++..+",
"@+++...........+$$$-,+.....++++.",
"++++++++++.....++$-&%......++++.",
"++++++++++......+++++.......+++.",
"+++++++++++.....++++...;;...++.."};
