/* XPM */
static char *field_6_xpm[] = {
/* columns rows colors chars-per-pixel */
"32 32 28 1",
"  c #060036006300",
". c #060039006900",
"X c #08003f007300",
"o c #080041007b00",
"O c #080046007f00",
"+ c #09004b008800",
"@ c #09004e008e00",
"# c #0a0050009700",
"$ c #0a0054009f00",
"% c #0b005900a800",
"& c #0b005c00ae00",
"* c #0c006100b900",
"= c #0d006700c400",
"- c #01006300c800",
"; c #09006c00d200",
": c #05007500e800",
"> c #05007b00f400",
", c #11008600fe00",
"< c #cb0093003b00",
"1 c #e200b1003c00",
"2 c #e200bf004300",
"3 c #f000dd004900",
"4 c #390075002d00",
"5 c #3a007b002e00",
"6 c #390077002d00",
"7 c #3a0079002d00",
"8 c #380073002c00",
"9 c #3a007d002e00",
/* pixels */
"47777777777777444777744444477777",
"77777447779777777777744444447777",
"77777447779997777777744444444777",
"99977444799999977777444444444777",
"99997444799999977774444444444477",
"99997744779999977744444444444477",
"99999744779999977444444444444477",
"99999774777999977444488844444477",
"99999777777799777444444444444477",
"99999777777777774444444444444777",
"77999777777777774444444444447777",
"77777777777777774444444444447777",
"44777777777777774444774444447777",
"44444777777777774444777444447777",
"44444444447777774444777744447777",
"44444444444777774444777744444779",
"44444444444777774444777744444779",
"44444444444477774444477744444777",
"44444444444447774444444444444477",
"44444444444447777444444444444447",
"44844444444444774444444444444447",
"48884444444444444444444444884444",
"48888444444444444444444444444444",
"44888844444444444774474444444444",
"44448884444444447777777744444444",
"74444884444444447777777774444444",
"77744444444444447755777774444447",
"77774444444444477777777744477447",
"97774444444444477777774444477774",
"77777777774444477777744444477774",
"77777777774444447777744444447774",
"77777777777444447777444884447744"
};
