/* XPM */
static char *power_0_xpm[] = {
/* columns rows colors chars-per-pixel */
"32 32 8 1",
"  c Gray0",
". c #0a0054009f00",
"X c #11008600fe00",
"o c #cb0093003b00",
"O c #e200b1003c00",
"+ c #e200bf004300",
"@ c #f000dd004900",
"# c None",
/* pixels */
"################################",
"################################",
"################################",
"################################",
"################################",
"################################",
"################################",
"################################",
"#############.....X#############",
"#############.ooOOX#############",
"#############.OOOOX#############",
"#############.OO+oX#############",
"#############.o++OX#############",
"########......o@@oX....X########",
"########.oOooo+@@OoooOOX########",
"########.oO@@@@@@@@@+OOX########",
"########.OOOO+@@@@@@@+oX########",
"########.++OooO@@+OOOOoX########",
"########XXXXX.o@@oXXXXXX########",
"#############.o@+OX#############",
"#############.o@+OX#############",
"#############.o++oX#############",
"#############.ooOoX#############",
"#############XXXXXX#############",
"################################",
"################################",
"################################",
"################################",
"################################",
"################################",
"################################",
"################################"
};
