/* XPM */
static char *move_up_0_xpm[] = {
/* columns rows colors chars-per-pixel */
"32 32 8 1",
"  c Gray0",
". c #000000006d00",
"X c #090009009800",
"o c #13001300c300",
"O c #28003a00d600",
"+ c #3d003d00fc00",
"@ c #63006300fe00",
"# c None",
/* pixels */
"################################",
"################################",
"################################",
"###############...##############",
"##############..X..#############",
"#############..XXX.#############",
"#############...X..#############",
"############# .....#############",
"##############....##############",
"##############..XX..############",
"############..XXXXXX############",
"#########..XXXXXoXXX..##########",
"########..XO..XXoXXX.X.#########",
"#######..Xoo.XXooXX.Xo..########",
"#######..XoX.XXoooXX.oX.########",
"#######..XX..XoOooX..X..########",
"######## ###XXoOooX.#..#########",
"###########.XX++oXX.############",
"###########.Xo++oXXX############",
"###########.Xo++oX.#############",
"###########.X+@+XXX#############",
"###########.o++OX.##############",
"###########Xo@+oXX##############",
"###########X+@OX.###############",
"##########.X@+oXX###############",
"##########.o@oX.################",
"###########oXX.#################",
"###########XX.##################",
"################################",
"################################",
"################################",
"################################"
};
