/* XPM */
static char *fire_right_0_xpm[] = {
/* columns rows colors chars-per-pixel */
"32 32 5 1",
"  c Gray0",
". c #1d009b003f00",
"X c #d200dd00dd00",
"o c Gray100",
"O c None",
/* pixels */
"OOOOOOOOOOOOOOOOOOOOOOOOOOOOXOOO",
"OOOOOOOOOOOOOOOOOOOO OOOOOOXOOOO",
"OOOOOOOOOOOOOOOOOOO   OOOOXOOOOO",
"OOOOOOOOOOOOOOOOOOO     XXOOOOOO",
"OOOOOOOOOOOOOOOOOO      XOOOOOOO",
"OOOOOOOOOOOOOOO      oo  OOOOOOO",
"OOOOOOOOOOOOOOOOO    o.   OOOOOO",
"OOOOOOOOOOOOOOO      o..o  OOOOO",
"OOOOOOOOOOOOO         oooo  OOOO",
"OOOOOOOOOOOOOOOO      ooooo  OOO",
"OOOOOOOOOOOOOO   o  o   o o  OOO",
"O   OOOOOOO    oooo oo      OOOO",
"     OOOOO   ooooooo   O   OOOOO",
"      OO   ooooooooooo   OOOOOOO",
"         oooooooooo oo o    OOOO",
" OO    ooooooo oooo     ooo  OOO",
"OOO  ooooooooo  ooooo     oo OOO",
"OO  oo  oooooo    ooo  OO     OO",
"OO oooo  oooo  OO   o OOOO   OOO",
"OO ooooo o     OOO o  OOOOO OOOO",
"OO oooo    o OOOOO o OOOOOOOOOOO",
"OO  ooo O o  OOOO X  OOOOOOOOOOO",
"OOO  ooo  o OOOOO oo OOOOOOOOOOO",
"OOOO  o      OOOO  X OOOOOOOOOOO",
"OOOOO o  O    OOOO oo  OOOOOOOOO",
"OOOO     OO   OOOO     OOOOOOOOO",
"OOOO oo  OO  OOOOOOO  OOOOOOOOOO",
"OOOO  o OOOOOOOOOOOOOOOOOOOOOOOO",
"OOOOO o OOOOOOOOOOOOOOOOOOOOOOOO",
"OOOO    OOOOOOOOOOOOOOOOOOOOOOOO",
"OOOO    OOOOOOOOOOOOOOOOOOOOOOOO",
"OOOOOOOOOOOOOOOOOOOOOOOOOOOOOOOO"
};
