/* XPM */
static char *fire_upright_0_xpm[] = {
/* columns rows colors chars-per-pixel */
"32 32 4 1",
"  c Gray0",
". c #d200dd00dd00",
"X c Gray100",
"o c None",
/* pixels */
"oooooooooooooooooooooooooooooooo",
"oooooooooooooooooooooooooooooooo",
"oooooooooooooooooooooooooooooooo",
"oooooooooooooooooooooooooooooooo",
"ooooooooooooooo oooooooooooooooo",
"ooooooooooooo        ooooooooooo",
"oooooooooo    ......  oooooooooo",
"oooooooooo .XX. ..XX. oooooooooo",
"ooooooooo  XXX   .XX. o   oooooo",
"ooooooooo .XX. . .XXX.  .  ooooo",
"ooooooooo .X...X...XX..... ooooo",
"oooooooo  ....XXX   ... .  ooooo",
"ooooooooo ... .XX.. XX.  .  oooo",
"oooooooo  ...  XXX.XXX.  .  oooo",
"ooooooooo .. ...X..XXX  .X. oooo",
"ooooooooo     ......X. .XX. oooo",
"ooooooooo ooo  .   ....XXXX oooo",
"ooooo    oooo  .. ....XXXX  oooo",
"oooo  ooooooo ....  ...XX  ooooo",
"ooo  oooo  o         .    oooooo",
"ooo ooooo  o      oo   ooooooooo",
"oooooooo  o o oooooooooooooooooo",
"oooooo   ooooooo  oooooooooooooo",
"oooooo  ooooooo  ooooooooooooooo",
"oooooo ooooo   ooooooooooooooooo",
"ooooooooooo  ooooooooooooooooooo",
"oooooooooo  oooooooooooooooooooo",
"oooooooooo ooooooooooooooooooooo",
"oooooooooooooooooooooooooooooooo",
"oooooooooooooooooooooooooooooooo",
"oooooooooooooooooooooooooooooooo",
"oooooooooooooooooooooooooooooooo"
};
