/* XPM */
static char *fire_up_0_xpm[] = {
/* columns rows colors chars-per-pixel */
"32 32 4 1",
"  c Gray0",
". c #d200dd00dd00",
"X c Gray100",
"o c None",
/* pixels */
"oooooooooooooooooooooooooooooooo",
"oooooooooooooooooooooooooooooooo",
"oooooooooooooooooooooooooooooooo",
"oooooooooooooooooooooooooooooooo",
"oooooooooooooooooooooooooooooooo",
"oooooooooooooooooooooooooooooooo",
"oooooooooooooooooooooooooooooooo",
"ooooooooooooooo    ooooooooooooo",
"ooooooooo    o  ..   ooooooooooo",
"oooooooo  ..   .....  oooooooooo",
"ooooooo  .XX....   ..  ooooooooo",
"oooooo  ..XXXX...  .X. ooooooooo",
"ooooo  ....XXX.XX. XXX ooooooooo",
"ooooo ..   ..  XXX .XX ooooooooo",
"oooo  XX ... ..XXX..XX ooooooooo",
"oooo .XX .XXX...XX..XX ooooooooo",
"oooo .XX..XXXX........ ooooooooo",
"oooo .XX.. .XX..  ...  ooooooooo",
"oooo  .X..  ...  .    oooooooooo",
"ooooo  ..... .....  oooooooooooo",
"oooooo  ...    ..  ooooooooooooo",
"ooooooo  .. o  .   ooooooooooooo",
"ooooooo     oo .  oo ooooooooooo",
"ooooooooo  ooo   oo  ooooooooooo",
"ooooooo oo oooo  oo oooooooooooo",
"ooooooo oooo  o ooo oooooooooooo",
"ooooooo  oooo oooo  oooooooooooo",
"oooooooo oooo oooo ooooooooooooo",
"oooooooo oooo oooo ooooooooooooo",
"oooooooo ooo  oooo  oooooooooooo",
"oooooooo ooo  oooo ooooooooooooo",
"ooooooooooooo oooooooooooooooooo"
};
