/* XPM */
static char *fire_left_0_xpm[] = {
/* columns rows colors chars-per-pixel */
"32 32 4 1",
"  c Gray0",
". c #d200dd00dd00",
"X c Gray100",
"o c None",
/* pixels */
"oooooooooooooooooooooooooooooooo",
"oooooooooooooooooooooooooooooooo",
"oooooooooooooooooooooooooooooooo",
"oooooooooooooooooooooooooooooooo",
"oooooooooooooo     ooooooooooooo",
"oooooooooooo   ...  oooooooooooo",
"ooooooooooo  .XXXX.  ooooooooooo",
"oooooooooo  ..XXXXX.   o   ooooo",
"ooooooooo  ..   .....  ooo     o",
"oooooooo  ... ........  oooooooo",
"oooooooo .XX. .XX  ...   ooooooo",
"oooooooo .XXX..XX. .   ooooooooo",
"oooooooo  .XX. XXX.  oooo ooo  o",
"ooooooooo .XX ..XX..  ooo       ",
"oooooooo  ... ......    oooooooo",
"ooooooo  ...XXX... ....   oooooo",
"ooooooo .. .XXXX.  ..    ooooooo",
"ooooooo ..  .XXX. ..   ooooooooo",
"ooooooo  .    ....    oooo     o",
"oooooooo ...X.....  ooo    oo oo",
"oooooooo  .XXXXX.. ooo  oooooooo",
"ooooooooo  .XXXX.  ooooooooooooo",
"oooooooooo        oooooooooooooo",
"oooooooooooooooooooooooooooooooo",
"oooooooooooooooooooooooooooooooo",
"oooooooooooooooooooooooooooooooo",
"oooooooooooooooooooooooooooooooo",
"oooooooooooooooooooooooooooooooo",
"oooooooooooooooooooooooooooooooo",
"oooooooooooooooooooooooooooooooo",
"oooooooooooooooooooooooooooooooo",
"oooooooooooooooooooooooooooooooo"
};
