/* XPM */
static char *fire_down_0_xpm[] = {
/* columns rows colors chars-per-pixel */
"32 32 4 1",
"  c Gray0",
". c #d200dd00dd00",
"X c Gray100",
"o c None",
/* pixels */
"ooooooooooooo oooooooooooooooooo",
"oooooooo ooo  oooo ooooooooooooo",
"oooooooo ooo  oooo  oooooooooooo",
"oooooooo oooo oooo ooooooooooooo",
"oooooooo oooo oooo ooooooooooooo",
"ooooooo  oooo oooo  oooooooooooo",
"ooooooo oooo  o ooo oooooooooooo",
"ooooooo oo oooo  oo oooooooooooo",
"ooooooooo  ooo   oo  ooooooooooo",
"ooooooo     oo .  oo ooooooooooo",
"ooooooo  .. o  .   ooooooooooooo",
"oooooo  ...    ..  ooooooooooooo",
"ooooo  ..... .....  oooooooooooo",
"oooo  .X..  ...  .    oooooooooo",
"oooo .XX.. .XX..  ...  ooooooooo",
"oooo .XX..XXXX........ ooooooooo",
"oooo .XX .XXX...XX..XX ooooooooo",
"oooo  XX ... ..XXX..XX ooooooooo",
"ooooo ..   ..  XXX .XX ooooooooo",
"ooooo  ....XXX.XX. XXX ooooooooo",
"oooooo  ..XXXX...  .X. ooooooooo",
"ooooooo  .XX....   ..  ooooooooo",
"oooooooo  ..   .....  oooooooooo",
"ooooooooo    o  ..   ooooooooooo",
"ooooooooooooooo    ooooooooooooo",
"oooooooooooooooooooooooooooooooo",
"oooooooooooooooooooooooooooooooo",
"oooooooooooooooooooooooooooooooo",
"oooooooooooooooooooooooooooooooo",
"oooooooooooooooooooooooooooooooo",
"oooooooooooooooooooooooooooooooo",
"oooooooooooooooooooooooooooooooo"
};
