/* XPM */
static char *fire_upright_0_xpm[] = {
/* columns rows colors chars-per-pixel */
"32 32 8 1",
"  c Gray0",
". c #960061001800",
"X c #970063001b00",
"o c #d200dd00dd00",
"O c #f900f900f900",
"+ c #fd00fd00fd00",
"@ c Gray100",
"# c None",
/* pixels */
"################################",
"################################",
"################################",
"################################",
"################################",
"################################",
"################################",
"#######################    #####",
"######################  @@ #####",
"#####################  @@  #####",
"####################  @@  ######",
"###################  @@  #######",
"##################  @@  ########",
"#################  @@  #########",
"################  @@  ##########",
"###############  O@  ###########",
"##############  +@  ############",
"######### ###  @@  #############",
"########   #  @@  ##############",
"#########    @@  ###############",
"##########  @@  ################",
"#########      #################",
"########  ..  ##################",
"#######  ..     ################",
"####oo  ..  ## #################",
"#####ooX.  #####################",
"#####ooo  ######################",
"######ooo#######################",
"#######oo#######################",
"################################",
"################################",
"################################"
};
