/* XPM */
static char *fire_upleft_0_xpm[] = {
/* columns rows colors chars-per-pixel */
"32 32 5 1",
"  c Gray0",
". c #48002f000b00",
"X c #7a0051002500",
"o c #d200dd00dd00",
"O c None",
/* pixels */
"OOOOOOOOOOOOOOOOOOOOOOOOOOOOOOOO",
"OOOOOOOOOOOOOOOOOOOOOOOOOOOOOOOO",
"OOOOOOOOOOOOOOOOOOOOOOOOOOOOOOOO",
"OOOOOOOOOOOOOOOOOOOOOOOOOOOOOOOO",
"OOOOOOOOOOOOOOOOOOOOOOOOOOOOOOOO",
"OOOOOOOOOOOOOOOOOOOOOOOOOOOOOOOO",
"OOOOOOooOOOOOOOOOOOOOOOOOOOOOOOO",
"OOOOOOooooOOOOOOOOOOOOOOOOOOOOOO",
"OOOOOOOooXOOOOOOOOOOOOOOOOOOOOOO",
"OOOOOOOo..XOOOOOOOOOOOOOOOOOOOOO",
"OOOOOOOOO..XOOOOOOOOOOOOOOOOOOOO",
"OOOOOOOOOO...OOOOOOOOOOOOOOOOOOO",
"OOOOOOOOOOO..XOOOOOOOOOOOOOOOOOO",
"OOOOOOOOOOOO..XOOOOOOOOOOOOOOOOO",
"OOOOOOOOOOOOO..XOOOOOOOOOOOOOOOO",
"OOOOOOOOOOOOOO...OOOOOOOOOOOOOOO",
"OOOOOOOOOOOOOOO..XOOOOOOOOOOOOOO",
"OOOOOOOOOOOOOOOO..XOOOOOOOOOOOOO",
"OOOOOOOOOOOOOOOOO...OOOOOOOOOOOO",
"OOOOOOOOOOOOOOOOOO..XOOOOOOOOOOO",
"OOOOOOOOOOOOOOOOOOO..XOOOOOOOOOO",
"OOOOOOOOOOOOOOOOOOOO..XOOOOOOOOO",
"OOOOOOOOOOOOOOOOOOOOO...OOOOOOOO",
"OOOOOOOOOOOOOOOOOOOOOO..XOOOOOOO",
"OOOOOOOOOOOOOOOOOOOOOOO..XOOOOOO",
"OOOOOOOOOOOOOOOOOOOOOOOO.OOOOOOO",
"OOOOOOOOOOOOOOOOOOOOOOOOOOOOOOOO",
"OOOOOOOOOOOOOOOOOOOOOOOOOOOOOOOO",
"OOOOOOOOOOOOOOOOOOOOOOOOOOOOOOOO",
"OOOOOOOOOOOOOOOOOOOOOOOOOOOOOOOO",
"OOOOOOOOOOOOOOOOOOOOOOOOOOOOOOOO",
"OOOOOOOOOOOOOOOOOOOOOOOOOOOOOOOO"
};
