/* XPM */
static char *fire_downright_0_xpm[] = {
/* columns rows colors chars-per-pixel */
"32 32 5 1",
"  c Gray0",
". c #48002f000b00",
"X c #7a0051002500",
"o c #d200dd00dd00",
"O c None",
/* pixels */
"OOOOOOOOOOOOOOOOOOOOOOOOOOOOOOOO",
"OOOOOOOOOOOOOOOOOOOOOOOOOOOOOOOO",
"OOOOOOOOOOOOOOOOOOOOOOOOOOOOOOOO",
"OOOOOOOOOOOOOOOOOOOOOOOOOOOOOOOO",
"OOOOOOOOOOOOOOOOOOOOOOOOOOOOOOOO",
"OOOOOOOOOOOOOOOOOOOOOOOOOOOOOOOO",
"OOOOOOO.OOOOOOOOOOOOOOOOOOOOOOOO",
"OOOOOOX..OOOOOOOOOOOOOOOOOOOOOOO",
"OOOOOOOX..OOOOOOOOOOOOOOOOOOOOOO",
"OOOOOOOO...OOOOOOOOOOOOOOOOOOOOO",
"OOOOOOOOOX..OOOOOOOOOOOOOOOOOOOO",
"OOOOOOOOOOX..OOOOOOOOOOOOOOOOOOO",
"OOOOOOOOOOOX..OOOOOOOOOOOOOOOOOO",
"OOOOOOOOOOOO...OOOOOOOOOOOOOOOOO",
"OOOOOOOOOOOOOX..OOOOOOOOOOOOOOOO",
"OOOOOOOOOOOOOOX..OOOOOOOOOOOOOOO",
"OOOOOOOOOOOOOOO...OOOOOOOOOOOOOO",
"OOOOOOOOOOOOOOOOX..OOOOOOOOOOOOO",
"OOOOOOOOOOOOOOOOOX..OOOOOOOOOOOO",
"OOOOOOOOOOOOOOOOOOX..OOOOOOOOOOO",
"OOOOOOOOOOOOOOOOOOO...OOOOOOOOOO",
"OOOOOOOOOOOOOOOOOOOOX..OOOOOOOOO",
"OOOOOOOOOOOOOOOOOOOOOX..oOOOOOOO",
"OOOOOOOOOOOOOOOOOOOOOOXooOOOOOOO",
"OOOOOOOOOOOOOOOOOOOOOOooooOOOOOO",
"OOOOOOOOOOOOOOOOOOOOOOOOooOOOOOO",
"OOOOOOOOOOOOOOOOOOOOOOOOOOOOOOOO",
"OOOOOOOOOOOOOOOOOOOOOOOOOOOOOOOO",
"OOOOOOOOOOOOOOOOOOOOOOOOOOOOOOOO",
"OOOOOOOOOOOOOOOOOOOOOOOOOOOOOOOO",
"OOOOOOOOOOOOOOOOOOOOOOOOOOOOOOOO",
"OOOOOOOOOOOOOOOOOOOOOOOOOOOOOOOO"
};
